<mxfile host="app.diagrams.net" agent="Mozilla/5.0 (Macintosh; Intel Mac OS X 10_15_7) AppleWebKit/537.36 (KHTML, like Gecko) Chrome/131.0.0.0 Safari/537.36" version="26.0.11" pages="3">
  <diagram id="zzCVB0pvgGECxzNero8a" name="mechanism">
    <mxGraphModel dx="3800" dy="1966" grid="0" gridSize="10" guides="1" tooltips="1" connect="1" arrows="1" fold="1" page="1" pageScale="1" pageWidth="827" pageHeight="1169" math="0" shadow="0">
      <root>
        <mxCell id="0" />
        <mxCell id="1" parent="0" />
        <mxCell id="O_GdDvFVGjTd6drNW47E-8" value="" style="shape=folder;fontStyle=1;spacingTop=10;tabWidth=0;tabHeight=0;tabPosition=left;html=1;whiteSpace=wrap;fillColor=#F5F5F5;strokeColor=none;strokeWidth=0;" parent="1" vertex="1">
          <mxGeometry x="62" y="718" width="863" height="1019" as="geometry" />
        </mxCell>
        <mxCell id="xNLXWmbkJ--YvReGtjfK-139" value="" style="shape=folder;fontStyle=1;spacingTop=10;tabWidth=21;tabHeight=0;tabPosition=left;html=1;whiteSpace=wrap;fillColor=#eeeeee;strokeColor=none;strokeWidth=0;" parent="1" vertex="1">
          <mxGeometry x="84" y="1010" width="818" height="711" as="geometry" />
        </mxCell>
        <mxCell id="xNLXWmbkJ--YvReGtjfK-141" value="" style="shape=folder;fontStyle=1;spacingTop=10;tabWidth=228;tabHeight=0;tabPosition=left;html=1;whiteSpace=wrap;fillColor=#FDF2E4;strokeColor=none;strokeWidth=0;" parent="1" vertex="1">
          <mxGeometry x="104" y="1115" width="774" height="166" as="geometry" />
        </mxCell>
        <mxCell id="O_GdDvFVGjTd6drNW47E-9" value="&lt;font style=&quot;font-size: 28px; color: rgb(128, 128, 128);&quot;&gt;&lt;b&gt;EASY A ECOSYSTEM&lt;/b&gt;&lt;/font&gt;" style="text;html=1;align=center;verticalAlign=middle;resizable=0;points=[];autosize=1;strokeColor=none;fillColor=none;fontSize=19;" parent="1" vertex="1">
          <mxGeometry x="63" y="724" width="303" height="46" as="geometry" />
        </mxCell>
        <mxCell id="TfpX0MGc0zPi5jS4X3i6-6" value="" style="shape=folder;fontStyle=1;spacingTop=10;tabWidth=225;tabHeight=1;tabPosition=left;html=1;whiteSpace=wrap;fillColor=#FBE3E2;strokeColor=none;strokeWidth=0;" parent="1" vertex="1">
          <mxGeometry x="103" y="1241" width="776" height="231" as="geometry" />
        </mxCell>
        <mxCell id="O_GdDvFVGjTd6drNW47E-4" value="" style="shape=folder;fontStyle=1;spacingTop=10;tabWidth=289;tabHeight=2;tabPosition=left;html=1;whiteSpace=wrap;strokeWidth=0;fillColor=#dae8fc;strokeColor=none;" parent="1" vertex="1">
          <mxGeometry x="103" y="1465" width="776" height="240" as="geometry" />
        </mxCell>
        <mxCell id="TfpX0MGc0zPi5jS4X3i6-2" value="" style="shape=folder;fontStyle=1;spacingTop=10;tabWidth=90;tabHeight=1;tabPosition=left;html=1;whiteSpace=wrap;strokeWidth=0;fillColor=#FFF2CC;strokeColor=none;" parent="1" vertex="1">
          <mxGeometry x="132" y="1547" width="128" height="140" as="geometry" />
        </mxCell>
        <mxCell id="TfpX0MGc0zPi5jS4X3i6-3" value="" style="shape=folder;fontStyle=1;spacingTop=10;tabWidth=80;tabHeight=0;tabPosition=left;html=1;whiteSpace=wrap;strokeWidth=0;fillColor=#FFF2CC;strokeColor=none;" parent="1" vertex="1">
          <mxGeometry x="323" y="1546" width="129" height="142" as="geometry" />
        </mxCell>
        <mxCell id="TfpX0MGc0zPi5jS4X3i6-4" value="&lt;span style=&quot;color: rgba(0, 0, 0, 0); font-family: monospace; font-size: 0px; font-weight: 400; text-align: start; text-wrap-mode: nowrap;&quot;&gt;%3CmxGraphModel%3E%3Croot%3E%3CmxCell%20id%3D%220%22%2F%3E%3CmxCell%20id%3D%221%22%20parent%3D%220%22%2F%3E%3CmxCell%20id%3D%222%22%20value%3D%22%22%20style%3D%22shape%3Dfolder%3BfontStyle%3D1%3BspacingTop%3D10%3BtabWidth%3D84%3BtabHeight%3D21%3BtabPosition%3Dleft%3Bhtml%3D1%3BwhiteSpace%3Dwrap%3B%22%20vertex%3D%221%22%20parent%3D%221%22%3E%3CmxGeometry%20x%3D%22-701%22%20y%3D%22824%22%20width%3D%22135%22%20height%3D%22139%22%20as%3D%22geometry%22%2F%3E%3C%2FmxCell%3E%3C%2Froot%3E%3C%2FmxGraphModel%3E&lt;/span&gt;" style="shape=folder;fontStyle=1;spacingTop=10;tabWidth=80;tabHeight=0;tabPosition=left;html=1;whiteSpace=wrap;strokeWidth=0;fillColor=#FFF2CC;strokeColor=none;" parent="1" vertex="1">
          <mxGeometry x="526" y="1543" width="130" height="144" as="geometry" />
        </mxCell>
        <mxCell id="xNLXWmbkJ--YvReGtjfK-131" value="&lt;font style=&quot;color: rgb(128, 128, 128);&quot;&gt;&lt;b&gt;BLOCKCHAIN NETWORKS LAYER&lt;/b&gt;&lt;/font&gt;" style="text;html=1;align=center;verticalAlign=middle;resizable=0;points=[];autosize=1;strokeColor=none;fillColor=none;fontSize=17;strokeWidth=0.8;" parent="1" vertex="1">
          <mxGeometry x="111" y="1466" width="297" height="32" as="geometry" />
        </mxCell>
        <mxCell id="xNLXWmbkJ--YvReGtjfK-140" value="&lt;font style=&quot;color: rgb(128, 128, 128);&quot;&gt;&lt;b&gt;AGGREGATION LAYER&lt;/b&gt;&lt;/font&gt;" style="text;html=1;align=center;verticalAlign=middle;resizable=0;points=[];autosize=1;strokeColor=none;fillColor=none;fontSize=17;strokeWidth=0.8;" parent="1" vertex="1">
          <mxGeometry x="112.5" y="1244.5" width="206" height="32" as="geometry" />
        </mxCell>
        <mxCell id="xNLXWmbkJ--YvReGtjfK-147" value="&lt;font style=&quot;color: rgb(128, 128, 128); font-size: 17px;&quot;&gt;&lt;b&gt;APPLICATION LAYER&lt;/b&gt;&lt;/font&gt;" style="text;html=1;align=center;verticalAlign=middle;resizable=0;points=[];autosize=1;strokeColor=none;fillColor=none;fontSize=19;strokeWidth=0.8;" parent="1" vertex="1">
          <mxGeometry x="111" y="1117.8" width="193" height="35" as="geometry" />
        </mxCell>
        <mxCell id="xNLXWmbkJ--YvReGtjfK-149" value="&lt;font style=&quot;color: rgb(128, 128, 128); font-size: 23px;&quot;&gt;&lt;b&gt;EASY A SYSTEM&lt;/b&gt;&lt;/font&gt;" style="text;html=1;align=center;verticalAlign=middle;resizable=0;points=[];autosize=1;strokeColor=none;fillColor=none;fontSize=19;strokeWidth=0.8;" parent="1" vertex="1">
          <mxGeometry x="116" y="1017" width="203" height="40" as="geometry" />
        </mxCell>
        <mxCell id="Dqvrw7kdMClWENYzbyNi-9" value="" style="outlineConnect=0;dashed=0;verticalLabelPosition=bottom;verticalAlign=top;align=center;html=1;shape=mxgraph.aws3.user;fillColor=#ffe6cc;rotation=0;strokeColor=#d79b00;" parent="1" vertex="1">
          <mxGeometry x="550.3699999999999" y="879" width="70.5" height="91.11" as="geometry" />
        </mxCell>
        <mxCell id="Dqvrw7kdMClWENYzbyNi-10" value="" style="points=[[0.13,0.02,0],[0.5,0,0],[0.87,0.02,0],[0.885,0.4,0],[0.985,0.985,0],[0.5,1,0],[0.015,0.985,0],[0.115,0.4,0]];verticalLabelPosition=bottom;sketch=0;html=1;verticalAlign=top;aspect=fixed;align=center;pointerEvents=1;shape=mxgraph.cisco19.laptop;fillColor=#005073;strokeColor=none;" parent="1" vertex="1">
          <mxGeometry x="550.8699999999999" y="925.35" width="69.5" height="48.65" as="geometry" />
        </mxCell>
        <mxCell id="Dqvrw7kdMClWENYzbyNi-11" value="" style="outlineConnect=0;dashed=0;verticalLabelPosition=bottom;verticalAlign=top;align=center;html=1;shape=mxgraph.aws3.user;fillColor=#ffe6cc;rotation=0;strokeColor=#d79b00;" parent="1" vertex="1">
          <mxGeometry x="638.1199999999999" y="879" width="70.5" height="91.11" as="geometry" />
        </mxCell>
        <mxCell id="Dqvrw7kdMClWENYzbyNi-12" value="" style="points=[[0.13,0.02,0],[0.5,0,0],[0.87,0.02,0],[0.885,0.4,0],[0.985,0.985,0],[0.5,1,0],[0.015,0.985,0],[0.115,0.4,0]];verticalLabelPosition=bottom;sketch=0;html=1;verticalAlign=top;aspect=fixed;align=center;pointerEvents=1;shape=mxgraph.cisco19.laptop;fillColor=#005073;strokeColor=none;" parent="1" vertex="1">
          <mxGeometry x="638.6199999999999" y="925.35" width="69.5" height="48.65" as="geometry" />
        </mxCell>
        <mxCell id="Dqvrw7kdMClWENYzbyNi-13" value="" style="outlineConnect=0;dashed=0;verticalLabelPosition=bottom;verticalAlign=top;align=center;html=1;shape=mxgraph.aws3.user;fillColor=#ffe6cc;rotation=0;strokeColor=#d79b00;" parent="1" vertex="1">
          <mxGeometry x="550.3699999999999" y="776" width="70.5" height="91.11" as="geometry" />
        </mxCell>
        <mxCell id="Dqvrw7kdMClWENYzbyNi-14" value="" style="points=[[0.13,0.02,0],[0.5,0,0],[0.87,0.02,0],[0.885,0.4,0],[0.985,0.985,0],[0.5,1,0],[0.015,0.985,0],[0.115,0.4,0]];verticalLabelPosition=bottom;sketch=0;html=1;verticalAlign=top;aspect=fixed;align=center;pointerEvents=1;shape=mxgraph.cisco19.laptop;fillColor=#005073;strokeColor=none;" parent="1" vertex="1">
          <mxGeometry x="550.8699999999999" y="820.35" width="69.5" height="48.65" as="geometry" />
        </mxCell>
        <mxCell id="Dqvrw7kdMClWENYzbyNi-15" value="" style="outlineConnect=0;dashed=0;verticalLabelPosition=bottom;verticalAlign=top;align=center;html=1;shape=mxgraph.aws3.user;fillColor=#ffe6cc;rotation=0;strokeColor=#d79b00;" parent="1" vertex="1">
          <mxGeometry x="637.6199999999999" y="776" width="70.5" height="91.11" as="geometry" />
        </mxCell>
        <mxCell id="Dqvrw7kdMClWENYzbyNi-16" value="" style="points=[[0.13,0.02,0],[0.5,0,0],[0.87,0.02,0],[0.885,0.4,0],[0.985,0.985,0],[0.5,1,0],[0.015,0.985,0],[0.115,0.4,0]];verticalLabelPosition=bottom;sketch=0;html=1;verticalAlign=top;aspect=fixed;align=center;pointerEvents=1;shape=mxgraph.cisco19.laptop;fillColor=#005073;strokeColor=none;" parent="1" vertex="1">
          <mxGeometry x="638.1199999999999" y="820.35" width="69.5" height="48.65" as="geometry" />
        </mxCell>
        <mxCell id="Dqvrw7kdMClWENYzbyNi-17" value="" style="strokeWidth=1.5;html=1;shape=mxgraph.flowchart.annotation_1;align=left;pointerEvents=1;rotation=-90;strokeColor=#D79B00;" parent="1" vertex="1">
          <mxGeometry x="471.5" y="738.27" width="65.3" height="428.03" as="geometry" />
        </mxCell>
        <mxCell id="Dqvrw7kdMClWENYzbyNi-161" style="edgeStyle=orthogonalEdgeStyle;rounded=0;orthogonalLoop=1;jettySize=auto;html=1;exitX=0.784;exitY=0.982;exitDx=0;exitDy=0;exitPerimeter=0;entryX=0.003;entryY=0.54;entryDx=0;entryDy=0;entryPerimeter=0;fillColor=#0050ef;strokeColor=#001DBC;" parent="1" source="Dqvrw7kdMClWENYzbyNi-32" target="EwqlEm3KHcr2zdghBDmm-303" edge="1">
          <mxGeometry relative="1" as="geometry">
            <mxPoint x="129" y="1419" as="sourcePoint" />
            <mxPoint x="148" y="1614" as="targetPoint" />
            <Array as="points">
              <mxPoint x="452" y="1459" />
              <mxPoint x="452" y="1506" />
              <mxPoint x="70" y="1506" />
              <mxPoint x="70" y="1616" />
            </Array>
          </mxGeometry>
        </mxCell>
        <mxCell id="jnM3Odv9A5hrVDS7QXXq-26" value="&lt;span style=&quot;color: rgb(230, 163, 101); font-size: 17px;&quot;&gt;translate request&lt;/span&gt;" style="edgeLabel;html=1;align=center;verticalAlign=middle;resizable=0;points=[];labelBackgroundColor=#DAE8FC;" parent="Dqvrw7kdMClWENYzbyNi-161" connectable="0" vertex="1">
          <mxGeometry x="-0.0687" y="-1" relative="1" as="geometry">
            <mxPoint as="offset" />
          </mxGeometry>
        </mxCell>
        <mxCell id="Dqvrw7kdMClWENYzbyNi-32" value="" style="html=1;dropTarget=0;whiteSpace=wrap;" parent="1" vertex="1">
          <mxGeometry x="431" y="1403" width="125" height="57" as="geometry" />
        </mxCell>
        <mxCell id="Dqvrw7kdMClWENYzbyNi-36" value="" style="html=1;dropTarget=0;whiteSpace=wrap;" parent="1" vertex="1">
          <mxGeometry x="190" y="1283" width="98" height="52" as="geometry" />
        </mxCell>
        <mxCell id="Dqvrw7kdMClWENYzbyNi-53" value="&lt;font style=&quot;color: rgb(128, 128, 128);&quot;&gt;Chain-Agnostic&lt;/font&gt;&lt;div&gt;&lt;font style=&quot;color: rgb(128, 128, 128);&quot;&gt;Aggregator&lt;/font&gt;&lt;/div&gt;" style="text;html=1;align=center;verticalAlign=middle;resizable=0;points=[];autosize=1;strokeColor=none;fillColor=none;fontSize=17;strokeWidth=0.8;" parent="1" vertex="1">
          <mxGeometry x="424.5" y="1405" width="133" height="53" as="geometry" />
        </mxCell>
        <mxCell id="Dqvrw7kdMClWENYzbyNi-55" value="&lt;font color=&quot;#808080&quot;&gt;Unified&lt;/font&gt;&lt;div&gt;&lt;font color=&quot;#808080&quot;&gt;API&lt;/font&gt;&lt;/div&gt;" style="text;html=1;align=center;verticalAlign=middle;resizable=0;points=[];autosize=1;strokeColor=none;fillColor=none;fontSize=17;strokeWidth=0.8;" parent="1" vertex="1">
          <mxGeometry x="203.5" y="1283" width="71" height="53" as="geometry" />
        </mxCell>
        <mxCell id="Dqvrw7kdMClWENYzbyNi-57" value="&lt;font style=&quot;color: rgb(128, 128, 128);&quot;&gt;Solana&lt;/font&gt;" style="text;html=1;align=center;verticalAlign=middle;resizable=0;points=[];autosize=1;strokeColor=none;fillColor=none;fontSize=17;strokeWidth=0.8;" parent="1" vertex="1">
          <mxGeometry x="132" y="1547.5" width="71" height="32" as="geometry" />
        </mxCell>
        <mxCell id="Dqvrw7kdMClWENYzbyNi-58" value="&lt;font style=&quot;color: rgb(128, 128, 128);&quot;&gt;Stacks&lt;/font&gt;" style="text;html=1;align=center;verticalAlign=middle;resizable=0;points=[];autosize=1;strokeColor=none;fillColor=none;fontSize=17;strokeWidth=0.8;" parent="1" vertex="1">
          <mxGeometry x="323.9999999999999" y="1546" width="69" height="32" as="geometry" />
        </mxCell>
        <mxCell id="Dqvrw7kdMClWENYzbyNi-60" value="&lt;font style=&quot;color: rgb(128, 128, 128);&quot;&gt;XRPL&lt;/font&gt;" style="text;html=1;align=center;verticalAlign=middle;resizable=0;points=[];autosize=1;strokeColor=none;fillColor=none;fontSize=17;strokeWidth=0.8;" parent="1" vertex="1">
          <mxGeometry x="523.9999999999999" y="1543.5" width="62" height="32" as="geometry" />
        </mxCell>
        <mxCell id="Dqvrw7kdMClWENYzbyNi-159" style="edgeStyle=orthogonalEdgeStyle;rounded=0;orthogonalLoop=1;jettySize=auto;html=1;entryX=0;entryY=0;entryDx=130;entryDy=72;exitX=0.496;exitY=0.996;exitDx=0;exitDy=0;exitPerimeter=0;entryPerimeter=0;fillColor=#0050ef;strokeColor=#001DBC;" parent="1" source="Dqvrw7kdMClWENYzbyNi-32" target="TfpX0MGc0zPi5jS4X3i6-4" edge="1">
          <mxGeometry relative="1" as="geometry">
            <mxPoint x="540.5" y="1660.5" as="targetPoint" />
            <Array as="points">
              <mxPoint x="493" y="1521" />
              <mxPoint x="695" y="1521" />
              <mxPoint x="695" y="1615" />
            </Array>
          </mxGeometry>
        </mxCell>
        <mxCell id="jnM3Odv9A5hrVDS7QXXq-31" value="&lt;span style=&quot;color: rgb(230, 163, 101); font-size: 17px;&quot;&gt;translate request directly&lt;/span&gt;" style="edgeLabel;html=1;align=center;verticalAlign=middle;resizable=0;points=[];labelBackgroundColor=#DAE8FC;" parent="Dqvrw7kdMClWENYzbyNi-159" connectable="0" vertex="1">
          <mxGeometry x="-0.0701" y="-1" relative="1" as="geometry">
            <mxPoint x="-24" as="offset" />
          </mxGeometry>
        </mxCell>
        <mxCell id="Dqvrw7kdMClWENYzbyNi-162" value="" style="outlineConnect=0;dashed=0;verticalLabelPosition=bottom;verticalAlign=top;align=center;html=1;shape=mxgraph.aws3.user;fillColor=#ffe6cc;rotation=0;strokeColor=#d79b00;" parent="1" vertex="1">
          <mxGeometry x="380.9999999999999" y="879" width="70.5" height="91.11" as="geometry" />
        </mxCell>
        <mxCell id="Dqvrw7kdMClWENYzbyNi-163" value="" style="points=[[0.13,0.02,0],[0.5,0,0],[0.87,0.02,0],[0.885,0.4,0],[0.985,0.985,0],[0.5,1,0],[0.015,0.985,0],[0.115,0.4,0]];verticalLabelPosition=bottom;sketch=0;html=1;verticalAlign=top;aspect=fixed;align=center;pointerEvents=1;shape=mxgraph.cisco19.laptop;fillColor=#005073;strokeColor=none;" parent="1" vertex="1">
          <mxGeometry x="381.4999999999999" y="925.35" width="69.5" height="48.65" as="geometry" />
        </mxCell>
        <mxCell id="Dqvrw7kdMClWENYzbyNi-164" value="" style="outlineConnect=0;dashed=0;verticalLabelPosition=bottom;verticalAlign=top;align=center;html=1;shape=mxgraph.aws3.user;fillColor=#ffe6cc;rotation=0;strokeColor=#d79b00;" parent="1" vertex="1">
          <mxGeometry x="468.7499999999999" y="879" width="70.5" height="91.11" as="geometry" />
        </mxCell>
        <mxCell id="Dqvrw7kdMClWENYzbyNi-165" value="" style="points=[[0.13,0.02,0],[0.5,0,0],[0.87,0.02,0],[0.885,0.4,0],[0.985,0.985,0],[0.5,1,0],[0.015,0.985,0],[0.115,0.4,0]];verticalLabelPosition=bottom;sketch=0;html=1;verticalAlign=top;aspect=fixed;align=center;pointerEvents=1;shape=mxgraph.cisco19.laptop;fillColor=#005073;strokeColor=none;" parent="1" vertex="1">
          <mxGeometry x="469.2499999999999" y="925.35" width="69.5" height="48.65" as="geometry" />
        </mxCell>
        <mxCell id="Dqvrw7kdMClWENYzbyNi-166" value="" style="outlineConnect=0;dashed=0;verticalLabelPosition=bottom;verticalAlign=top;align=center;html=1;shape=mxgraph.aws3.user;fillColor=#ffe6cc;rotation=0;strokeColor=#d79b00;" parent="1" vertex="1">
          <mxGeometry x="380.9999999999999" y="776" width="70.5" height="91.11" as="geometry" />
        </mxCell>
        <mxCell id="Dqvrw7kdMClWENYzbyNi-167" value="" style="points=[[0.13,0.02,0],[0.5,0,0],[0.87,0.02,0],[0.885,0.4,0],[0.985,0.985,0],[0.5,1,0],[0.015,0.985,0],[0.115,0.4,0]];verticalLabelPosition=bottom;sketch=0;html=1;verticalAlign=top;aspect=fixed;align=center;pointerEvents=1;shape=mxgraph.cisco19.laptop;fillColor=#005073;strokeColor=none;" parent="1" vertex="1">
          <mxGeometry x="381.4999999999999" y="820.35" width="69.5" height="48.65" as="geometry" />
        </mxCell>
        <mxCell id="Dqvrw7kdMClWENYzbyNi-168" value="" style="outlineConnect=0;dashed=0;verticalLabelPosition=bottom;verticalAlign=top;align=center;html=1;shape=mxgraph.aws3.user;fillColor=#ffe6cc;rotation=0;strokeColor=#d79b00;" parent="1" vertex="1">
          <mxGeometry x="468.2499999999999" y="776" width="70.5" height="91.11" as="geometry" />
        </mxCell>
        <mxCell id="Dqvrw7kdMClWENYzbyNi-169" value="" style="points=[[0.13,0.02,0],[0.5,0,0],[0.87,0.02,0],[0.885,0.4,0],[0.985,0.985,0],[0.5,1,0],[0.015,0.985,0],[0.115,0.4,0]];verticalLabelPosition=bottom;sketch=0;html=1;verticalAlign=top;aspect=fixed;align=center;pointerEvents=1;shape=mxgraph.cisco19.laptop;fillColor=#005073;strokeColor=none;" parent="1" vertex="1">
          <mxGeometry x="468.7499999999999" y="820.35" width="69.5" height="48.65" as="geometry" />
        </mxCell>
        <mxCell id="Dqvrw7kdMClWENYzbyNi-170" value="" style="outlineConnect=0;dashed=0;verticalLabelPosition=bottom;verticalAlign=top;align=center;html=1;shape=mxgraph.aws3.user;fillColor=#ffe6cc;rotation=0;strokeColor=#d79b00;" parent="1" vertex="1">
          <mxGeometry x="297.75" y="879" width="70.5" height="91.11" as="geometry" />
        </mxCell>
        <mxCell id="Dqvrw7kdMClWENYzbyNi-171" value="" style="points=[[0.13,0.02,0],[0.5,0,0],[0.87,0.02,0],[0.885,0.4,0],[0.985,0.985,0],[0.5,1,0],[0.015,0.985,0],[0.115,0.4,0]];verticalLabelPosition=bottom;sketch=0;html=1;verticalAlign=top;aspect=fixed;align=center;pointerEvents=1;shape=mxgraph.cisco19.laptop;fillColor=#005073;strokeColor=none;" parent="1" vertex="1">
          <mxGeometry x="298.25" y="925.35" width="69.5" height="48.65" as="geometry" />
        </mxCell>
        <mxCell id="Dqvrw7kdMClWENYzbyNi-172" value="" style="outlineConnect=0;dashed=0;verticalLabelPosition=bottom;verticalAlign=top;align=center;html=1;shape=mxgraph.aws3.user;fillColor=#ffe6cc;rotation=0;strokeColor=#d79b00;" parent="1" vertex="1">
          <mxGeometry x="297.75" y="776" width="70.5" height="91.11" as="geometry" />
        </mxCell>
        <mxCell id="Dqvrw7kdMClWENYzbyNi-173" value="" style="points=[[0.13,0.02,0],[0.5,0,0],[0.87,0.02,0],[0.885,0.4,0],[0.985,0.985,0],[0.5,1,0],[0.015,0.985,0],[0.115,0.4,0]];verticalLabelPosition=bottom;sketch=0;html=1;verticalAlign=top;aspect=fixed;align=center;pointerEvents=1;shape=mxgraph.cisco19.laptop;fillColor=#005073;strokeColor=none;" parent="1" vertex="1">
          <mxGeometry x="298.25" y="820.35" width="69.5" height="48.65" as="geometry" />
        </mxCell>
        <mxCell id="Dqvrw7kdMClWENYzbyNi-178" value="" style="shape=module;jettyWidth=9;jettyHeight=2;" parent="1" vertex="1">
          <mxGeometry x="533.37" y="1405" width="20" height="11" as="geometry" />
        </mxCell>
        <mxCell id="FbceFAtt0BTnn5lP0vRs-10" value="&lt;font style=&quot;font-size: 24px;&quot;&gt;Developers&lt;/font&gt;" style="text;html=1;align=center;verticalAlign=middle;resizable=0;points=[];autosize=1;strokeColor=none;fillColor=none;" parent="1" vertex="1">
          <mxGeometry x="431" y="744.2699999999999" width="139" height="41" as="geometry" />
        </mxCell>
        <mxCell id="FbceFAtt0BTnn5lP0vRs-31" style="edgeStyle=orthogonalEdgeStyle;rounded=0;orthogonalLoop=1;jettySize=auto;html=1;entryX=0.997;entryY=0.33;entryDx=0;entryDy=0;entryPerimeter=0;fillColor=#0050ef;strokeColor=#001DBC;exitX=-0.007;exitY=0.445;exitDx=0;exitDy=0;exitPerimeter=0;" parent="1" source="FbceFAtt0BTnn5lP0vRs-16" target="Dqvrw7kdMClWENYzbyNi-36" edge="1">
          <mxGeometry relative="1" as="geometry">
            <Array as="points">
              <mxPoint x="692" y="1301" />
              <mxPoint x="588" y="1301" />
            </Array>
          </mxGeometry>
        </mxCell>
        <mxCell id="EwqlEm3KHcr2zdghBDmm-182" value="&lt;span style=&quot;color: rgb(230, 163, 101); font-size: 17px;&quot;&gt;standardise request&lt;/span&gt;" style="edgeLabel;html=1;align=center;verticalAlign=middle;resizable=0;points=[];labelBackgroundColor=#FBE3E2;" parent="FbceFAtt0BTnn5lP0vRs-31" connectable="0" vertex="1">
          <mxGeometry x="0.3786" y="1" relative="1" as="geometry">
            <mxPoint x="38" as="offset" />
          </mxGeometry>
        </mxCell>
        <mxCell id="FbceFAtt0BTnn5lP0vRs-16" value="" style="html=1;dropTarget=0;whiteSpace=wrap;" parent="1" vertex="1">
          <mxGeometry x="693.12" y="1281" width="102.5" height="49" as="geometry" />
        </mxCell>
        <mxCell id="FbceFAtt0BTnn5lP0vRs-17" value="&lt;div&gt;&lt;span style=&quot;color: light-dark(rgb(128, 128, 128), rgb(127, 127, 127)); background-color: transparent;&quot;&gt;Easy A&lt;/span&gt;&lt;/div&gt;&lt;div&gt;&lt;span style=&quot;color: light-dark(rgb(128, 128, 128), rgb(127, 127, 127)); background-color: transparent;&quot;&gt;Protocol&lt;/span&gt;&lt;/div&gt;" style="text;html=1;align=center;verticalAlign=middle;resizable=0;points=[];autosize=1;strokeColor=none;fillColor=none;fontSize=19;strokeWidth=0.8;" parent="1" vertex="1">
          <mxGeometry x="696.12" y="1277" width="88" height="58" as="geometry" />
        </mxCell>
        <mxCell id="FbceFAtt0BTnn5lP0vRs-18" value="" style="shape=module;jettyWidth=9;jettyHeight=2;" parent="1" vertex="1">
          <mxGeometry x="773.1199999999995" y="1283" width="20" height="11" as="geometry" />
        </mxCell>
        <mxCell id="FbceFAtt0BTnn5lP0vRs-19" value="" style="html=1;dropTarget=0;whiteSpace=wrap;" parent="1" vertex="1">
          <mxGeometry x="192" y="1178" width="96" height="47" as="geometry" />
        </mxCell>
        <mxCell id="FbceFAtt0BTnn5lP0vRs-20" value="&lt;font style=&quot;color: rgb(128, 128, 128);&quot;&gt;Web2 API&lt;/font&gt;" style="text;html=1;align=center;verticalAlign=middle;resizable=0;points=[];autosize=1;strokeColor=none;fillColor=none;fontSize=19;strokeWidth=0.8;" parent="1" vertex="1">
          <mxGeometry x="189" y="1185" width="102" height="35" as="geometry" />
        </mxCell>
        <mxCell id="FbceFAtt0BTnn5lP0vRs-21" value="" style="shape=module;jettyWidth=9;jettyHeight=2;" parent="1" vertex="1">
          <mxGeometry x="265.99999999999955" y="1180" width="20" height="11" as="geometry" />
        </mxCell>
        <mxCell id="FbceFAtt0BTnn5lP0vRs-22" value="" style="shape=module;jettyWidth=9;jettyHeight=2;" parent="1" vertex="1">
          <mxGeometry x="265.99999999999955" y="1285" width="20" height="11" as="geometry" />
        </mxCell>
        <mxCell id="FbceFAtt0BTnn5lP0vRs-34" style="edgeStyle=orthogonalEdgeStyle;rounded=0;orthogonalLoop=1;jettySize=auto;html=1;entryX=-0.002;entryY=0.869;entryDx=0;entryDy=0;entryPerimeter=0;fillColor=#008a00;strokeColor=#67AB9F;exitX=0.997;exitY=0.761;exitDx=0;exitDy=0;exitPerimeter=0;" parent="1" source="Dqvrw7kdMClWENYzbyNi-36" target="FbceFAtt0BTnn5lP0vRs-16" edge="1">
          <mxGeometry relative="1" as="geometry">
            <mxPoint x="554" y="1314" as="sourcePoint" />
            <Array as="points">
              <mxPoint x="686" y="1324" />
              <mxPoint x="693" y="1324" />
            </Array>
          </mxGeometry>
        </mxCell>
        <mxCell id="EwqlEm3KHcr2zdghBDmm-181" value="&lt;span style=&quot;color: rgb(230, 163, 101); font-size: 17px;&quot;&gt;send response&lt;/span&gt;" style="edgeLabel;html=1;align=center;verticalAlign=middle;resizable=0;points=[];labelBackgroundColor=#FBE3E2;" parent="FbceFAtt0BTnn5lP0vRs-34" connectable="0" vertex="1">
          <mxGeometry x="0.3956" relative="1" as="geometry">
            <mxPoint x="-36" y="1" as="offset" />
          </mxGeometry>
        </mxCell>
        <mxCell id="Dqvrw7kdMClWENYzbyNi-61" value="" style="shape=folder;fontStyle=1;spacingTop=10;tabWidth=82;tabHeight=0;tabPosition=left;html=1;whiteSpace=wrap;strokeWidth=0;gradientColor=none;fillColor=#FFF2CC;strokeColor=none;" parent="1" vertex="1">
          <mxGeometry x="741" y="1509" width="135" height="137" as="geometry" />
        </mxCell>
        <mxCell id="Dqvrw7kdMClWENYzbyNi-49" value="" style="shape=folder;fontStyle=1;spacingTop=10;tabWidth=81;tabHeight=1;tabPosition=left;html=1;whiteSpace=wrap;strokeWidth=0;fillColor=#FFF2CC;strokeColor=none;" parent="1" vertex="1">
          <mxGeometry x="729.5" y="1528" width="135" height="142" as="geometry" />
        </mxCell>
        <mxCell id="TfpX0MGc0zPi5jS4X3i6-5" value="&lt;span style=&quot;color: rgba(0, 0, 0, 0); font-family: monospace; font-size: 0px; font-weight: 400; text-align: start; text-wrap-mode: nowrap;&quot;&gt;%3CmxGraphModel%3E%3Croot%3E%3CmxCell%20id%3D%220%22%2F%3E%3CmxCell%20id%3D%221%22%20parent%3D%220%22%2F%3E%3CmxCell%20id%3D%222%22%20value%3D%22%22%20style%3D%22shape%3Dfolder%3BfontStyle%3D1%3BspacingTop%3D10%3BtabWidth%3D84%3BtabHeight%3D21%3BtabPosition%3Dleft%3Bhtml%3D1%3BwhiteSpace%3Dwrap%3B%22%20vertex%3D%221%22%20parent%3D%221%22%3E%3CmxGeometry%20x%3D%22-701%22%20y%3D%22824%22%20width%3D%22135%22%20height%3D%22139%22%20as%3D%22geometry%22%2F%3E%3C%2FmxCell%3E%3C%2Froot%3E%3C%2FmxGraphModel%3E&lt;/span&gt;" style="shape=folder;fontStyle=1;spacingTop=10;tabWidth=82;tabHeight=0;tabPosition=left;html=1;whiteSpace=wrap;strokeWidth=0;fillColor=#FFF2CC;strokeColor=none;" parent="1" vertex="1">
          <mxGeometry x="717" y="1541" width="135" height="146" as="geometry" />
        </mxCell>
        <mxCell id="Dqvrw7kdMClWENYzbyNi-59" value="&lt;font style=&quot;color: rgb(128, 128, 128);&quot;&gt;Polkadot&lt;/font&gt;" style="text;html=1;align=center;verticalAlign=middle;resizable=0;points=[];autosize=1;strokeColor=none;fillColor=none;fontSize=17;strokeWidth=0.8;" parent="1" vertex="1">
          <mxGeometry x="718.9999999999999" y="1535" width="84" height="32" as="geometry" />
        </mxCell>
        <mxCell id="Dqvrw7kdMClWENYzbyNi-62" value="&lt;font style=&quot;color: rgb(128, 128, 128);&quot;&gt;.......&lt;/font&gt;" style="text;html=1;align=center;verticalAlign=middle;resizable=0;points=[];autosize=1;strokeColor=none;fillColor=none;fontSize=17;strokeWidth=0.8;" parent="1" vertex="1">
          <mxGeometry x="742.9999999999999" y="1513" width="51" height="32" as="geometry" />
        </mxCell>
        <mxCell id="Dqvrw7kdMClWENYzbyNi-63" value="&lt;font style=&quot;color: rgb(128, 128, 128);&quot;&gt;Chain X&lt;/font&gt;" style="text;html=1;align=center;verticalAlign=middle;resizable=0;points=[];autosize=1;strokeColor=none;fillColor=none;fontSize=17;strokeWidth=0.8;" parent="1" vertex="1">
          <mxGeometry x="752.9999999999999" y="1498" width="78" height="32" as="geometry" />
        </mxCell>
        <mxCell id="Dqvrw7kdMClWENYzbyNi-157" style="edgeStyle=orthogonalEdgeStyle;rounded=0;orthogonalLoop=1;jettySize=auto;html=1;entryX=0;entryY=0.5;entryDx=0;entryDy=0;exitX=0.381;exitY=0.999;exitDx=0;exitDy=0;exitPerimeter=0;fillColor=#0050ef;strokeColor=#001DBC;" parent="1" source="Dqvrw7kdMClWENYzbyNi-32" target="jnM3Odv9A5hrVDS7QXXq-17" edge="1">
          <mxGeometry relative="1" as="geometry">
            <mxPoint x="478" y="1484" as="sourcePoint" />
            <mxPoint x="438.10199999999986" y="1667.4360000000001" as="targetPoint" />
            <Array as="points">
              <mxPoint x="479" y="1521" />
              <mxPoint x="288" y="1521" />
              <mxPoint x="288" y="1617" />
              <mxPoint x="343" y="1617" />
            </Array>
          </mxGeometry>
        </mxCell>
        <mxCell id="jnM3Odv9A5hrVDS7QXXq-30" value="&lt;span style=&quot;color: rgb(230, 163, 101); font-size: 17px;&quot;&gt;translate request&lt;/span&gt;" style="edgeLabel;html=1;align=center;verticalAlign=middle;resizable=0;points=[];labelBackgroundColor=#DAE8FC;" parent="Dqvrw7kdMClWENYzbyNi-157" connectable="0" vertex="1">
          <mxGeometry x="-0.1943" y="2" relative="1" as="geometry">
            <mxPoint x="25" y="-1" as="offset" />
          </mxGeometry>
        </mxCell>
        <mxCell id="Dqvrw7kdMClWENYzbyNi-160" style="edgeStyle=orthogonalEdgeStyle;rounded=0;orthogonalLoop=1;jettySize=auto;html=1;exitX=0.783;exitY=1.001;exitDx=0;exitDy=0;exitPerimeter=0;entryX=0.998;entryY=0.569;entryDx=0;entryDy=0;entryPerimeter=0;fillColor=#0050ef;strokeColor=#001DBC;" parent="1" source="Dqvrw7kdMClWENYzbyNi-32" target="jnM3Odv9A5hrVDS7QXXq-23" edge="1">
          <mxGeometry relative="1" as="geometry">
            <mxPoint x="493.0180000000005" y="1469.3279999999997" as="sourcePoint" />
            <mxPoint x="723.998" y="1608.5019999999997" as="targetPoint" />
            <Array as="points">
              <mxPoint x="529" y="1504" />
              <mxPoint x="913" y="1504" />
              <mxPoint x="913" y="1617" />
            </Array>
          </mxGeometry>
        </mxCell>
        <mxCell id="jnM3Odv9A5hrVDS7QXXq-29" value="&lt;span style=&quot;color: rgb(230, 163, 101); font-size: 17px;&quot;&gt;translate request&lt;/span&gt;" style="edgeLabel;html=1;align=center;verticalAlign=middle;resizable=0;points=[];labelBackgroundColor=#DAE8FC;" parent="Dqvrw7kdMClWENYzbyNi-160" connectable="0" vertex="1">
          <mxGeometry x="-0.3828" y="1" relative="1" as="geometry">
            <mxPoint x="16" as="offset" />
          </mxGeometry>
        </mxCell>
        <mxCell id="EwqlEm3KHcr2zdghBDmm-171" style="edgeStyle=orthogonalEdgeStyle;rounded=0;orthogonalLoop=1;jettySize=auto;html=1;entryX=0;entryY=0.75;entryDx=0;entryDy=0;fillColor=#008a00;strokeColor=#67AB9F;exitX=0.604;exitY=-0.001;exitDx=0;exitDy=0;exitPerimeter=0;" parent="1" source="Dqvrw7kdMClWENYzbyNi-32" target="Dqvrw7kdMClWENYzbyNi-36" edge="1">
          <mxGeometry relative="1" as="geometry">
            <mxPoint x="431" y="1404" as="sourcePoint" />
            <Array as="points">
              <mxPoint x="507" y="1352" />
              <mxPoint x="170" y="1352" />
              <mxPoint x="170" y="1322" />
            </Array>
          </mxGeometry>
        </mxCell>
        <mxCell id="jnM3Odv9A5hrVDS7QXXq-32" value="&lt;span style=&quot;color: rgb(230, 163, 101); font-size: 17px;&quot;&gt;send reponse&lt;/span&gt;" style="edgeLabel;html=1;align=center;verticalAlign=middle;resizable=0;points=[];labelBackgroundColor=#FBE3E2;" parent="EwqlEm3KHcr2zdghBDmm-171" connectable="0" vertex="1">
          <mxGeometry x="0.4116" y="1" relative="1" as="geometry">
            <mxPoint x="-17" y="-1" as="offset" />
          </mxGeometry>
        </mxCell>
        <mxCell id="EwqlEm3KHcr2zdghBDmm-172" style="edgeStyle=orthogonalEdgeStyle;rounded=0;orthogonalLoop=1;jettySize=auto;html=1;exitX=-0.008;exitY=0.325;exitDx=0;exitDy=0;entryX=0.317;entryY=0;entryDx=0;entryDy=0;entryPerimeter=0;fillColor=#0050ef;strokeColor=#001DBC;exitPerimeter=0;" parent="1" source="Dqvrw7kdMClWENYzbyNi-36" target="Dqvrw7kdMClWENYzbyNi-32" edge="1">
          <mxGeometry relative="1" as="geometry">
            <Array as="points">
              <mxPoint x="146" y="1300" />
              <mxPoint x="146" y="1369" />
              <mxPoint x="471" y="1369" />
            </Array>
          </mxGeometry>
        </mxCell>
        <mxCell id="EwqlEm3KHcr2zdghBDmm-302" value="&lt;span style=&quot;color: rgb(230, 163, 101); font-size: 17px;&quot;&gt;call function&lt;/span&gt;" style="edgeLabel;html=1;align=center;verticalAlign=middle;resizable=0;points=[];labelBackgroundColor=#FBE3E2;" parent="EwqlEm3KHcr2zdghBDmm-172" connectable="0" vertex="1">
          <mxGeometry x="-0.1979" y="-1" relative="1" as="geometry">
            <mxPoint x="191" y="1" as="offset" />
          </mxGeometry>
        </mxCell>
        <mxCell id="EwqlEm3KHcr2zdghBDmm-303" value="" style="html=1;dropTarget=0;whiteSpace=wrap;" parent="1" vertex="1">
          <mxGeometry x="148" y="1588.5" width="96" height="51" as="geometry" />
        </mxCell>
        <mxCell id="EwqlEm3KHcr2zdghBDmm-304" value="&lt;div&gt;&lt;font color=&quot;#808080&quot;&gt;Easy A&lt;/font&gt;&lt;/div&gt;&lt;div&gt;&lt;font color=&quot;#808080&quot;&gt;Contract&lt;/font&gt;&lt;/div&gt;" style="text;html=1;align=center;verticalAlign=middle;resizable=0;points=[];autosize=1;strokeColor=none;fillColor=none;fontSize=14;strokeWidth=0.8;" parent="1" vertex="1">
          <mxGeometry x="151" y="1594" width="71" height="46" as="geometry" />
        </mxCell>
        <mxCell id="EwqlEm3KHcr2zdghBDmm-305" value="" style="shape=module;jettyWidth=9;jettyHeight=2;" parent="1" vertex="1">
          <mxGeometry x="222" y="1591" width="20" height="11" as="geometry" />
        </mxCell>
        <mxCell id="jnM3Odv9A5hrVDS7QXXq-17" value="" style="html=1;dropTarget=0;whiteSpace=wrap;" parent="1" vertex="1">
          <mxGeometry x="342.5" y="1591.25" width="96" height="51" as="geometry" />
        </mxCell>
        <mxCell id="jnM3Odv9A5hrVDS7QXXq-18" value="&lt;div&gt;&lt;font color=&quot;#808080&quot;&gt;Easy A&lt;/font&gt;&lt;/div&gt;&lt;div&gt;&lt;font color=&quot;#808080&quot;&gt;Contract&lt;/font&gt;&lt;/div&gt;" style="text;html=1;align=center;verticalAlign=middle;resizable=0;points=[];autosize=1;strokeColor=none;fillColor=none;fontSize=14;strokeWidth=0.8;" parent="1" vertex="1">
          <mxGeometry x="345.5" y="1596.75" width="71" height="46" as="geometry" />
        </mxCell>
        <mxCell id="jnM3Odv9A5hrVDS7QXXq-19" value="" style="shape=module;jettyWidth=9;jettyHeight=2;" parent="1" vertex="1">
          <mxGeometry x="416.5" y="1593.75" width="20" height="11" as="geometry" />
        </mxCell>
        <mxCell id="jnM3Odv9A5hrVDS7QXXq-23" value="" style="html=1;dropTarget=0;whiteSpace=wrap;" parent="1" vertex="1">
          <mxGeometry x="738.5" y="1588" width="96" height="51" as="geometry" />
        </mxCell>
        <mxCell id="jnM3Odv9A5hrVDS7QXXq-24" value="&lt;div&gt;&lt;font style=&quot;color: rgb(128, 128, 128);&quot;&gt;Easy A&lt;/font&gt;&lt;/div&gt;&lt;div&gt;&lt;font style=&quot;color: rgb(128, 128, 128);&quot;&gt;Contract&lt;/font&gt;&lt;/div&gt;" style="text;html=1;align=center;verticalAlign=middle;resizable=0;points=[];autosize=1;strokeColor=none;fillColor=none;fontSize=14;strokeWidth=0.8;" parent="1" vertex="1">
          <mxGeometry x="743.5" y="1593.5" width="71" height="46" as="geometry" />
        </mxCell>
        <mxCell id="jnM3Odv9A5hrVDS7QXXq-25" value="" style="shape=module;jettyWidth=9;jettyHeight=2;" parent="1" vertex="1">
          <mxGeometry x="812.5" y="1590.5" width="20" height="11" as="geometry" />
        </mxCell>
        <mxCell id="tbTDw4Qnlvt_YqkS6SZX-1" style="edgeStyle=orthogonalEdgeStyle;rounded=0;orthogonalLoop=1;jettySize=auto;html=1;entryX=1.002;entryY=0.514;entryDx=0;entryDy=0;entryPerimeter=0;startArrow=classic;startFill=1;endArrow=none;fillColor=#0050ef;strokeColor=#001DBC;exitX=0.559;exitY=-0.022;exitDx=0;exitDy=0;exitPerimeter=0;" parent="1" source="FbceFAtt0BTnn5lP0vRs-16" target="FbceFAtt0BTnn5lP0vRs-19" edge="1">
          <mxGeometry relative="1" as="geometry">
            <mxPoint x="296" y="1202" as="targetPoint" />
            <Array as="points">
              <mxPoint x="750" y="1202" />
            </Array>
          </mxGeometry>
        </mxCell>
        <mxCell id="tbTDw4Qnlvt_YqkS6SZX-2" value="&lt;span style=&quot;color: rgb(230, 163, 101); font-size: 17px;&quot;&gt;forward request&lt;/span&gt;" style="edgeLabel;html=1;align=center;verticalAlign=middle;resizable=0;points=[];labelBackgroundColor=#FDF2E4;" parent="tbTDw4Qnlvt_YqkS6SZX-1" connectable="0" vertex="1">
          <mxGeometry x="-0.0373" relative="1" as="geometry">
            <mxPoint x="87" y="-1" as="offset" />
          </mxGeometry>
        </mxCell>
        <mxCell id="tbTDw4Qnlvt_YqkS6SZX-25" style="edgeStyle=orthogonalEdgeStyle;rounded=0;orthogonalLoop=1;jettySize=auto;html=1;entryX=-0.002;entryY=0.494;entryDx=0;entryDy=0;entryPerimeter=0;exitX=0.54;exitY=-0.002;exitDx=0;exitDy=0;exitPerimeter=0;fillColor=#0050ef;strokeColor=#001DBC;" parent="1" source="Dqvrw7kdMClWENYzbyNi-17" target="FbceFAtt0BTnn5lP0vRs-19" edge="1">
          <mxGeometry relative="1" as="geometry">
            <mxPoint x="284" y="950" as="sourcePoint" />
            <mxPoint x="192" y="1205" as="targetPoint" />
            <Array as="points">
              <mxPoint x="83" y="950" />
              <mxPoint x="83" y="1201" />
              <mxPoint x="192" y="1201" />
            </Array>
          </mxGeometry>
        </mxCell>
        <mxCell id="tbTDw4Qnlvt_YqkS6SZX-26" value="&lt;span style=&quot;color: rgb(230, 163, 101); font-size: 17px;&quot;&gt;submit&amp;nbsp;&lt;/span&gt;&lt;div&gt;&lt;span style=&quot;color: rgb(230, 163, 101); font-size: 17px;&quot;&gt;request&lt;/span&gt;&lt;/div&gt;" style="edgeLabel;html=1;align=center;verticalAlign=middle;resizable=0;points=[];labelBackgroundColor=#F5F5F5;" parent="tbTDw4Qnlvt_YqkS6SZX-25" connectable="0" vertex="1">
          <mxGeometry x="-0.6588" y="3" relative="1" as="geometry">
            <mxPoint as="offset" />
          </mxGeometry>
        </mxCell>
        <mxCell id="tbTDw4Qnlvt_YqkS6SZX-28" style="edgeStyle=orthogonalEdgeStyle;rounded=0;orthogonalLoop=1;jettySize=auto;html=1;entryX=0.982;entryY=0.857;entryDx=0;entryDy=0;entryPerimeter=0;fillColor=#008a00;strokeColor=#67AB9F;" parent="1" edge="1">
          <mxGeometry relative="1" as="geometry">
            <mxPoint x="732" y="1280" as="sourcePoint" />
            <mxPoint x="289.164" y="1217.9950000000001" as="targetPoint" />
            <Array as="points">
              <mxPoint x="732" y="1280" />
              <mxPoint x="732" y="1218" />
            </Array>
          </mxGeometry>
        </mxCell>
        <mxCell id="tbTDw4Qnlvt_YqkS6SZX-29" value="&lt;span style=&quot;color: rgb(230, 163, 101); font-size: 17px;&quot;&gt;forward response&lt;/span&gt;" style="edgeLabel;html=1;align=center;verticalAlign=middle;resizable=0;points=[];labelBackgroundColor=#FDF2E4;" parent="tbTDw4Qnlvt_YqkS6SZX-28" connectable="0" vertex="1">
          <mxGeometry x="-0.0732" relative="1" as="geometry">
            <mxPoint x="-104" y="1" as="offset" />
          </mxGeometry>
        </mxCell>
        <mxCell id="VkZnA2Yt4jREDin1xMmd-1" value="" style="endArrow=none;dashed=1;html=1;rounded=0;entryX=-0.012;entryY=0.122;entryDx=0;entryDy=0;entryPerimeter=0;strokeColor=#E6A365;" parent="1" edge="1">
          <mxGeometry width="50" height="50" relative="1" as="geometry">
            <mxPoint x="603" y="1194" as="sourcePoint" />
            <mxPoint x="603.2649662921347" y="1164.172" as="targetPoint" />
          </mxGeometry>
        </mxCell>
        <mxCell id="VkZnA2Yt4jREDin1xMmd-2" value="" style="endArrow=none;dashed=1;html=1;rounded=0;strokeColor=#E6A365;" parent="1" edge="1">
          <mxGeometry width="50" height="50" relative="1" as="geometry">
            <mxPoint x="605.52" y="1167" as="sourcePoint" />
            <mxPoint x="604.4899999999998" y="1136" as="targetPoint" />
          </mxGeometry>
        </mxCell>
        <mxCell id="VkZnA2Yt4jREDin1xMmd-3" value="&lt;font style=&quot;color: rgb(230, 163, 101); font-size: 13px;&quot;&gt;swap request&lt;/font&gt;" style="text;html=1;align=center;verticalAlign=middle;resizable=0;points=[];autosize=1;strokeColor=none;fillColor=none;" parent="1" vertex="1">
          <mxGeometry x="606.1199999999999" y="1113" width="95" height="28" as="geometry" />
        </mxCell>
        <mxCell id="VkZnA2Yt4jREDin1xMmd-4" value="&lt;font style=&quot;color: rgb(230, 163, 101); font-size: 13px;&quot;&gt;pay request&lt;/font&gt;" style="text;html=1;align=center;verticalAlign=middle;resizable=0;points=[];autosize=1;strokeColor=none;fillColor=none;" parent="1" vertex="1">
          <mxGeometry x="607.1199999999999" y="1126" width="86" height="28" as="geometry" />
        </mxCell>
        <mxCell id="VkZnA2Yt4jREDin1xMmd-5" value="&lt;font style=&quot;color: rgb(230, 163, 101); font-size: 13px;&quot;&gt;mint request&lt;/font&gt;" style="text;html=1;align=center;verticalAlign=middle;resizable=0;points=[];autosize=1;strokeColor=none;fillColor=none;" parent="1" vertex="1">
          <mxGeometry x="606.1199999999999" y="1140.5" width="90" height="28" as="geometry" />
        </mxCell>
        <mxCell id="VkZnA2Yt4jREDin1xMmd-6" value="" style="endArrow=none;dashed=1;html=1;rounded=0;strokeColor=#E6A365;" parent="1" edge="1">
          <mxGeometry width="50" height="50" relative="1" as="geometry">
            <mxPoint x="605.1199999999999" y="1166.5" as="sourcePoint" />
            <mxPoint x="615.52" y="1171" as="targetPoint" />
          </mxGeometry>
        </mxCell>
        <mxCell id="VkZnA2Yt4jREDin1xMmd-7" value="" style="endArrow=none;dashed=1;html=1;rounded=0;strokeColor=#E6A365;entryX=0.098;entryY=0.049;entryDx=0;entryDy=0;entryPerimeter=0;" parent="1" target="VkZnA2Yt4jREDin1xMmd-5" edge="1">
          <mxGeometry width="50" height="50" relative="1" as="geometry">
            <mxPoint x="605.1199999999999" y="1146" as="sourcePoint" />
            <mxPoint x="614.1733707865167" y="1146" as="targetPoint" />
            <Array as="points">
              <mxPoint x="609.52" y="1144" />
            </Array>
          </mxGeometry>
        </mxCell>
        <mxCell id="VkZnA2Yt4jREDin1xMmd-8" value="" style="endArrow=none;dashed=1;html=1;rounded=0;strokeColor=#E6A365;entryX=0.088;entryY=0.027;entryDx=0;entryDy=0;entryPerimeter=0;" parent="1" target="VkZnA2Yt4jREDin1xMmd-4" edge="1">
          <mxGeometry width="50" height="50" relative="1" as="geometry">
            <mxPoint x="605.1199999999999" y="1135" as="sourcePoint" />
            <mxPoint x="614.1733707865167" y="1135" as="targetPoint" />
          </mxGeometry>
        </mxCell>
        <mxCell id="VkZnA2Yt4jREDin1xMmd-9" value="" style="endArrow=none;dashed=1;html=1;rounded=0;strokeColor=#E6A365;" parent="1" edge="1">
          <mxGeometry width="50" height="50" relative="1" as="geometry">
            <mxPoint x="605.1199999999999" y="1156" as="sourcePoint" />
            <mxPoint x="614.1733707865167" y="1156" as="targetPoint" />
          </mxGeometry>
        </mxCell>
        <mxCell id="VkZnA2Yt4jREDin1xMmd-10" value="&lt;font style=&quot;color: rgb(230, 163, 101); font-size: 13px;&quot;&gt;burn request&lt;/font&gt;" style="text;html=1;align=center;verticalAlign=middle;resizable=0;points=[];autosize=1;strokeColor=none;fillColor=none;" parent="1" vertex="1">
          <mxGeometry x="605.1199999999999" y="1155.3" width="91" height="28" as="geometry" />
        </mxCell>
        <mxCell id="BzziAgpZW6kfEHSw53Zq-2" style="edgeStyle=orthogonalEdgeStyle;rounded=0;orthogonalLoop=1;jettySize=auto;html=1;entryX=0.012;entryY=0.577;entryDx=0;entryDy=0;entryPerimeter=0;strokeColor=#67AB9F;" parent="1" source="FbceFAtt0BTnn5lP0vRs-19" target="Dqvrw7kdMClWENYzbyNi-17" edge="1">
          <mxGeometry relative="1" as="geometry">
            <Array as="points">
              <mxPoint x="240" y="1166" />
              <mxPoint x="537" y="1166" />
            </Array>
          </mxGeometry>
        </mxCell>
        <mxCell id="E0ujJKgdkvEGMKUUsvwA-1" value="&lt;span style=&quot;color: rgb(230, 163, 101); font-size: 17px;&quot;&gt;send&amp;nbsp;&lt;/span&gt;&lt;div&gt;&lt;span style=&quot;color: rgb(230, 163, 101); font-size: 17px;&quot;&gt;response&lt;/span&gt;&lt;/div&gt;" style="edgeLabel;html=1;align=center;verticalAlign=middle;resizable=0;points=[];labelBackgroundColor=#EEEEEE;" parent="BzziAgpZW6kfEHSw53Zq-2" vertex="1" connectable="0">
          <mxGeometry x="0.6656" y="-1" relative="1" as="geometry">
            <mxPoint as="offset" />
          </mxGeometry>
        </mxCell>
        <mxCell id="Km0c7RFuPB_TWY40hp3P-1" value="" style="shape=folder;fontStyle=1;spacingTop=10;tabWidth=0;tabHeight=0;tabPosition=left;html=1;whiteSpace=wrap;fillColor=#F5F5F5;strokeColor=none;strokeWidth=0;" vertex="1" parent="1">
          <mxGeometry x="72" y="728" width="863" height="1019" as="geometry" />
        </mxCell>
        <mxCell id="Km0c7RFuPB_TWY40hp3P-2" value="" style="shape=folder;fontStyle=1;spacingTop=10;tabWidth=21;tabHeight=0;tabPosition=left;html=1;whiteSpace=wrap;fillColor=#eeeeee;strokeColor=none;strokeWidth=0;" vertex="1" parent="1">
          <mxGeometry x="94" y="1020" width="818" height="711" as="geometry" />
        </mxCell>
        <mxCell id="Km0c7RFuPB_TWY40hp3P-3" value="" style="shape=folder;fontStyle=1;spacingTop=10;tabWidth=228;tabHeight=0;tabPosition=left;html=1;whiteSpace=wrap;fillColor=#FDF2E4;strokeColor=none;strokeWidth=0;" vertex="1" parent="1">
          <mxGeometry x="114" y="1125" width="774" height="166" as="geometry" />
        </mxCell>
        <mxCell id="Km0c7RFuPB_TWY40hp3P-4" value="&lt;font style=&quot;font-size: 28px; color: rgb(128, 128, 128);&quot;&gt;&lt;b&gt;EASY A ECOSYSTEM&lt;/b&gt;&lt;/font&gt;" style="text;html=1;align=center;verticalAlign=middle;resizable=0;points=[];autosize=1;strokeColor=none;fillColor=none;fontSize=19;" vertex="1" parent="1">
          <mxGeometry x="73" y="734" width="303" height="46" as="geometry" />
        </mxCell>
        <mxCell id="Km0c7RFuPB_TWY40hp3P-5" value="" style="shape=folder;fontStyle=1;spacingTop=10;tabWidth=225;tabHeight=1;tabPosition=left;html=1;whiteSpace=wrap;fillColor=#FBE3E2;strokeColor=none;strokeWidth=0;" vertex="1" parent="1">
          <mxGeometry x="113" y="1251" width="776" height="231" as="geometry" />
        </mxCell>
        <mxCell id="Km0c7RFuPB_TWY40hp3P-6" value="" style="shape=folder;fontStyle=1;spacingTop=10;tabWidth=289;tabHeight=2;tabPosition=left;html=1;whiteSpace=wrap;strokeWidth=0;fillColor=#dae8fc;strokeColor=none;" vertex="1" parent="1">
          <mxGeometry x="113" y="1475" width="776" height="240" as="geometry" />
        </mxCell>
        <mxCell id="Km0c7RFuPB_TWY40hp3P-7" value="" style="shape=folder;fontStyle=1;spacingTop=10;tabWidth=90;tabHeight=1;tabPosition=left;html=1;whiteSpace=wrap;strokeWidth=0;fillColor=#FFF2CC;strokeColor=none;" vertex="1" parent="1">
          <mxGeometry x="142" y="1557" width="128" height="140" as="geometry" />
        </mxCell>
        <mxCell id="Km0c7RFuPB_TWY40hp3P-8" value="" style="shape=folder;fontStyle=1;spacingTop=10;tabWidth=80;tabHeight=0;tabPosition=left;html=1;whiteSpace=wrap;strokeWidth=0;fillColor=#FFF2CC;strokeColor=none;" vertex="1" parent="1">
          <mxGeometry x="333" y="1556" width="129" height="142" as="geometry" />
        </mxCell>
        <mxCell id="Km0c7RFuPB_TWY40hp3P-9" value="&lt;span style=&quot;color: rgba(0, 0, 0, 0); font-family: monospace; font-size: 0px; font-weight: 400; text-align: start; text-wrap-mode: nowrap;&quot;&gt;%3CmxGraphModel%3E%3Croot%3E%3CmxCell%20id%3D%220%22%2F%3E%3CmxCell%20id%3D%221%22%20parent%3D%220%22%2F%3E%3CmxCell%20id%3D%222%22%20value%3D%22%22%20style%3D%22shape%3Dfolder%3BfontStyle%3D1%3BspacingTop%3D10%3BtabWidth%3D84%3BtabHeight%3D21%3BtabPosition%3Dleft%3Bhtml%3D1%3BwhiteSpace%3Dwrap%3B%22%20vertex%3D%221%22%20parent%3D%221%22%3E%3CmxGeometry%20x%3D%22-701%22%20y%3D%22824%22%20width%3D%22135%22%20height%3D%22139%22%20as%3D%22geometry%22%2F%3E%3C%2FmxCell%3E%3C%2Froot%3E%3C%2FmxGraphModel%3E&lt;/span&gt;" style="shape=folder;fontStyle=1;spacingTop=10;tabWidth=80;tabHeight=0;tabPosition=left;html=1;whiteSpace=wrap;strokeWidth=0;fillColor=#FFF2CC;strokeColor=none;" vertex="1" parent="1">
          <mxGeometry x="536" y="1553" width="130" height="144" as="geometry" />
        </mxCell>
        <mxCell id="Km0c7RFuPB_TWY40hp3P-10" value="&lt;font style=&quot;color: rgb(128, 128, 128);&quot;&gt;&lt;b&gt;BLOCKCHAIN NETWORKS LAYER&lt;/b&gt;&lt;/font&gt;" style="text;html=1;align=center;verticalAlign=middle;resizable=0;points=[];autosize=1;strokeColor=none;fillColor=none;fontSize=17;strokeWidth=0.8;" vertex="1" parent="1">
          <mxGeometry x="121" y="1476" width="297" height="32" as="geometry" />
        </mxCell>
        <mxCell id="Km0c7RFuPB_TWY40hp3P-11" value="&lt;font style=&quot;color: rgb(128, 128, 128);&quot;&gt;&lt;b&gt;AGGREGATION LAYER&lt;/b&gt;&lt;/font&gt;" style="text;html=1;align=center;verticalAlign=middle;resizable=0;points=[];autosize=1;strokeColor=none;fillColor=none;fontSize=17;strokeWidth=0.8;" vertex="1" parent="1">
          <mxGeometry x="122.5" y="1254.5" width="206" height="32" as="geometry" />
        </mxCell>
        <mxCell id="Km0c7RFuPB_TWY40hp3P-12" value="&lt;font style=&quot;color: rgb(128, 128, 128); font-size: 17px;&quot;&gt;&lt;b&gt;APPLICATION LAYER&lt;/b&gt;&lt;/font&gt;" style="text;html=1;align=center;verticalAlign=middle;resizable=0;points=[];autosize=1;strokeColor=none;fillColor=none;fontSize=19;strokeWidth=0.8;" vertex="1" parent="1">
          <mxGeometry x="121" y="1127.8" width="193" height="35" as="geometry" />
        </mxCell>
        <mxCell id="Km0c7RFuPB_TWY40hp3P-13" value="&lt;font style=&quot;color: rgb(128, 128, 128); font-size: 23px;&quot;&gt;&lt;b&gt;EASY A SYSTEM&lt;/b&gt;&lt;/font&gt;" style="text;html=1;align=center;verticalAlign=middle;resizable=0;points=[];autosize=1;strokeColor=none;fillColor=none;fontSize=19;strokeWidth=0.8;" vertex="1" parent="1">
          <mxGeometry x="126" y="1027" width="203" height="40" as="geometry" />
        </mxCell>
        <mxCell id="Km0c7RFuPB_TWY40hp3P-14" value="" style="outlineConnect=0;dashed=0;verticalLabelPosition=bottom;verticalAlign=top;align=center;html=1;shape=mxgraph.aws3.user;fillColor=#ffe6cc;rotation=0;strokeColor=#d79b00;" vertex="1" parent="1">
          <mxGeometry x="560.3699999999999" y="889" width="70.5" height="91.11" as="geometry" />
        </mxCell>
        <mxCell id="Km0c7RFuPB_TWY40hp3P-15" value="" style="points=[[0.13,0.02,0],[0.5,0,0],[0.87,0.02,0],[0.885,0.4,0],[0.985,0.985,0],[0.5,1,0],[0.015,0.985,0],[0.115,0.4,0]];verticalLabelPosition=bottom;sketch=0;html=1;verticalAlign=top;aspect=fixed;align=center;pointerEvents=1;shape=mxgraph.cisco19.laptop;fillColor=#005073;strokeColor=none;" vertex="1" parent="1">
          <mxGeometry x="560.8699999999999" y="935.35" width="69.5" height="48.65" as="geometry" />
        </mxCell>
        <mxCell id="Km0c7RFuPB_TWY40hp3P-16" value="" style="outlineConnect=0;dashed=0;verticalLabelPosition=bottom;verticalAlign=top;align=center;html=1;shape=mxgraph.aws3.user;fillColor=#ffe6cc;rotation=0;strokeColor=#d79b00;" vertex="1" parent="1">
          <mxGeometry x="648.1199999999999" y="889" width="70.5" height="91.11" as="geometry" />
        </mxCell>
        <mxCell id="Km0c7RFuPB_TWY40hp3P-17" value="" style="points=[[0.13,0.02,0],[0.5,0,0],[0.87,0.02,0],[0.885,0.4,0],[0.985,0.985,0],[0.5,1,0],[0.015,0.985,0],[0.115,0.4,0]];verticalLabelPosition=bottom;sketch=0;html=1;verticalAlign=top;aspect=fixed;align=center;pointerEvents=1;shape=mxgraph.cisco19.laptop;fillColor=#005073;strokeColor=none;" vertex="1" parent="1">
          <mxGeometry x="648.6199999999999" y="935.35" width="69.5" height="48.65" as="geometry" />
        </mxCell>
        <mxCell id="Km0c7RFuPB_TWY40hp3P-18" value="" style="outlineConnect=0;dashed=0;verticalLabelPosition=bottom;verticalAlign=top;align=center;html=1;shape=mxgraph.aws3.user;fillColor=#ffe6cc;rotation=0;strokeColor=#d79b00;" vertex="1" parent="1">
          <mxGeometry x="560.3699999999999" y="786" width="70.5" height="91.11" as="geometry" />
        </mxCell>
        <mxCell id="Km0c7RFuPB_TWY40hp3P-19" value="" style="points=[[0.13,0.02,0],[0.5,0,0],[0.87,0.02,0],[0.885,0.4,0],[0.985,0.985,0],[0.5,1,0],[0.015,0.985,0],[0.115,0.4,0]];verticalLabelPosition=bottom;sketch=0;html=1;verticalAlign=top;aspect=fixed;align=center;pointerEvents=1;shape=mxgraph.cisco19.laptop;fillColor=#005073;strokeColor=none;" vertex="1" parent="1">
          <mxGeometry x="560.8699999999999" y="830.35" width="69.5" height="48.65" as="geometry" />
        </mxCell>
        <mxCell id="Km0c7RFuPB_TWY40hp3P-20" value="" style="outlineConnect=0;dashed=0;verticalLabelPosition=bottom;verticalAlign=top;align=center;html=1;shape=mxgraph.aws3.user;fillColor=#ffe6cc;rotation=0;strokeColor=#d79b00;" vertex="1" parent="1">
          <mxGeometry x="647.6199999999999" y="786" width="70.5" height="91.11" as="geometry" />
        </mxCell>
        <mxCell id="Km0c7RFuPB_TWY40hp3P-21" value="" style="points=[[0.13,0.02,0],[0.5,0,0],[0.87,0.02,0],[0.885,0.4,0],[0.985,0.985,0],[0.5,1,0],[0.015,0.985,0],[0.115,0.4,0]];verticalLabelPosition=bottom;sketch=0;html=1;verticalAlign=top;aspect=fixed;align=center;pointerEvents=1;shape=mxgraph.cisco19.laptop;fillColor=#005073;strokeColor=none;" vertex="1" parent="1">
          <mxGeometry x="648.1199999999999" y="830.35" width="69.5" height="48.65" as="geometry" />
        </mxCell>
        <mxCell id="Km0c7RFuPB_TWY40hp3P-22" value="" style="strokeWidth=1.5;html=1;shape=mxgraph.flowchart.annotation_1;align=left;pointerEvents=1;rotation=-90;strokeColor=#D79B00;" vertex="1" parent="1">
          <mxGeometry x="481.5" y="748.27" width="65.3" height="428.03" as="geometry" />
        </mxCell>
        <mxCell id="Km0c7RFuPB_TWY40hp3P-23" style="edgeStyle=orthogonalEdgeStyle;rounded=0;orthogonalLoop=1;jettySize=auto;html=1;exitX=0.784;exitY=0.982;exitDx=0;exitDy=0;exitPerimeter=0;entryX=0.003;entryY=0.54;entryDx=0;entryDy=0;entryPerimeter=0;fillColor=#0050ef;strokeColor=#001DBC;" edge="1" parent="1" source="Km0c7RFuPB_TWY40hp3P-25" target="Km0c7RFuPB_TWY40hp3P-73">
          <mxGeometry relative="1" as="geometry">
            <mxPoint x="139" y="1429" as="sourcePoint" />
            <mxPoint x="158" y="1624" as="targetPoint" />
            <Array as="points">
              <mxPoint x="462" y="1469" />
              <mxPoint x="462" y="1516" />
              <mxPoint x="80" y="1516" />
              <mxPoint x="80" y="1626" />
            </Array>
          </mxGeometry>
        </mxCell>
        <mxCell id="Km0c7RFuPB_TWY40hp3P-24" value="&lt;span style=&quot;color: rgb(230, 163, 101); font-size: 17px;&quot;&gt;translate request&lt;/span&gt;" style="edgeLabel;html=1;align=center;verticalAlign=middle;resizable=0;points=[];labelBackgroundColor=#DAE8FC;" connectable="0" vertex="1" parent="Km0c7RFuPB_TWY40hp3P-23">
          <mxGeometry x="-0.0687" y="-1" relative="1" as="geometry">
            <mxPoint as="offset" />
          </mxGeometry>
        </mxCell>
        <mxCell id="Km0c7RFuPB_TWY40hp3P-25" value="" style="html=1;dropTarget=0;whiteSpace=wrap;" vertex="1" parent="1">
          <mxGeometry x="441" y="1413" width="125" height="57" as="geometry" />
        </mxCell>
        <mxCell id="Km0c7RFuPB_TWY40hp3P-26" value="" style="html=1;dropTarget=0;whiteSpace=wrap;" vertex="1" parent="1">
          <mxGeometry x="200" y="1293" width="98" height="52" as="geometry" />
        </mxCell>
        <mxCell id="Km0c7RFuPB_TWY40hp3P-27" value="&lt;font style=&quot;color: rgb(128, 128, 128);&quot;&gt;Chain-Agnostic&lt;/font&gt;&lt;div&gt;&lt;font style=&quot;color: rgb(128, 128, 128);&quot;&gt;Aggregator&lt;/font&gt;&lt;/div&gt;" style="text;html=1;align=center;verticalAlign=middle;resizable=0;points=[];autosize=1;strokeColor=none;fillColor=none;fontSize=17;strokeWidth=0.8;" vertex="1" parent="1">
          <mxGeometry x="434.5" y="1415" width="133" height="53" as="geometry" />
        </mxCell>
        <mxCell id="Km0c7RFuPB_TWY40hp3P-28" value="&lt;font color=&quot;#808080&quot;&gt;Unified&lt;/font&gt;&lt;div&gt;&lt;font color=&quot;#808080&quot;&gt;API&lt;/font&gt;&lt;/div&gt;" style="text;html=1;align=center;verticalAlign=middle;resizable=0;points=[];autosize=1;strokeColor=none;fillColor=none;fontSize=17;strokeWidth=0.8;" vertex="1" parent="1">
          <mxGeometry x="213.5" y="1293" width="71" height="53" as="geometry" />
        </mxCell>
        <mxCell id="Km0c7RFuPB_TWY40hp3P-29" value="&lt;font style=&quot;color: rgb(128, 128, 128);&quot;&gt;Solana&lt;/font&gt;" style="text;html=1;align=center;verticalAlign=middle;resizable=0;points=[];autosize=1;strokeColor=none;fillColor=none;fontSize=17;strokeWidth=0.8;" vertex="1" parent="1">
          <mxGeometry x="142" y="1557.5" width="71" height="32" as="geometry" />
        </mxCell>
        <mxCell id="Km0c7RFuPB_TWY40hp3P-30" value="&lt;font style=&quot;color: rgb(128, 128, 128);&quot;&gt;Stacks&lt;/font&gt;" style="text;html=1;align=center;verticalAlign=middle;resizable=0;points=[];autosize=1;strokeColor=none;fillColor=none;fontSize=17;strokeWidth=0.8;" vertex="1" parent="1">
          <mxGeometry x="333.9999999999999" y="1556" width="69" height="32" as="geometry" />
        </mxCell>
        <mxCell id="Km0c7RFuPB_TWY40hp3P-31" value="&lt;font style=&quot;color: rgb(128, 128, 128);&quot;&gt;XRPL&lt;/font&gt;" style="text;html=1;align=center;verticalAlign=middle;resizable=0;points=[];autosize=1;strokeColor=none;fillColor=none;fontSize=17;strokeWidth=0.8;" vertex="1" parent="1">
          <mxGeometry x="533.9999999999999" y="1553.5" width="62" height="32" as="geometry" />
        </mxCell>
        <mxCell id="Km0c7RFuPB_TWY40hp3P-32" style="edgeStyle=orthogonalEdgeStyle;rounded=0;orthogonalLoop=1;jettySize=auto;html=1;entryX=0;entryY=0;entryDx=130;entryDy=72;exitX=0.496;exitY=0.996;exitDx=0;exitDy=0;exitPerimeter=0;entryPerimeter=0;fillColor=#0050ef;strokeColor=#001DBC;" edge="1" parent="1" source="Km0c7RFuPB_TWY40hp3P-25" target="Km0c7RFuPB_TWY40hp3P-9">
          <mxGeometry relative="1" as="geometry">
            <mxPoint x="550.5" y="1670.5" as="targetPoint" />
            <Array as="points">
              <mxPoint x="503" y="1531" />
              <mxPoint x="705" y="1531" />
              <mxPoint x="705" y="1625" />
            </Array>
          </mxGeometry>
        </mxCell>
        <mxCell id="Km0c7RFuPB_TWY40hp3P-33" value="&lt;span style=&quot;color: rgb(230, 163, 101); font-size: 17px;&quot;&gt;translate request directly&lt;/span&gt;" style="edgeLabel;html=1;align=center;verticalAlign=middle;resizable=0;points=[];labelBackgroundColor=#DAE8FC;" connectable="0" vertex="1" parent="Km0c7RFuPB_TWY40hp3P-32">
          <mxGeometry x="-0.0701" y="-1" relative="1" as="geometry">
            <mxPoint x="-24" as="offset" />
          </mxGeometry>
        </mxCell>
        <mxCell id="Km0c7RFuPB_TWY40hp3P-34" value="" style="outlineConnect=0;dashed=0;verticalLabelPosition=bottom;verticalAlign=top;align=center;html=1;shape=mxgraph.aws3.user;fillColor=#ffe6cc;rotation=0;strokeColor=#d79b00;" vertex="1" parent="1">
          <mxGeometry x="390.9999999999999" y="889" width="70.5" height="91.11" as="geometry" />
        </mxCell>
        <mxCell id="Km0c7RFuPB_TWY40hp3P-35" value="" style="points=[[0.13,0.02,0],[0.5,0,0],[0.87,0.02,0],[0.885,0.4,0],[0.985,0.985,0],[0.5,1,0],[0.015,0.985,0],[0.115,0.4,0]];verticalLabelPosition=bottom;sketch=0;html=1;verticalAlign=top;aspect=fixed;align=center;pointerEvents=1;shape=mxgraph.cisco19.laptop;fillColor=#005073;strokeColor=none;" vertex="1" parent="1">
          <mxGeometry x="391.4999999999999" y="935.35" width="69.5" height="48.65" as="geometry" />
        </mxCell>
        <mxCell id="Km0c7RFuPB_TWY40hp3P-36" value="" style="outlineConnect=0;dashed=0;verticalLabelPosition=bottom;verticalAlign=top;align=center;html=1;shape=mxgraph.aws3.user;fillColor=#ffe6cc;rotation=0;strokeColor=#d79b00;" vertex="1" parent="1">
          <mxGeometry x="478.7499999999999" y="889" width="70.5" height="91.11" as="geometry" />
        </mxCell>
        <mxCell id="Km0c7RFuPB_TWY40hp3P-37" value="" style="points=[[0.13,0.02,0],[0.5,0,0],[0.87,0.02,0],[0.885,0.4,0],[0.985,0.985,0],[0.5,1,0],[0.015,0.985,0],[0.115,0.4,0]];verticalLabelPosition=bottom;sketch=0;html=1;verticalAlign=top;aspect=fixed;align=center;pointerEvents=1;shape=mxgraph.cisco19.laptop;fillColor=#005073;strokeColor=none;" vertex="1" parent="1">
          <mxGeometry x="479.2499999999999" y="935.35" width="69.5" height="48.65" as="geometry" />
        </mxCell>
        <mxCell id="Km0c7RFuPB_TWY40hp3P-38" value="" style="outlineConnect=0;dashed=0;verticalLabelPosition=bottom;verticalAlign=top;align=center;html=1;shape=mxgraph.aws3.user;fillColor=#ffe6cc;rotation=0;strokeColor=#d79b00;" vertex="1" parent="1">
          <mxGeometry x="390.9999999999999" y="786" width="70.5" height="91.11" as="geometry" />
        </mxCell>
        <mxCell id="Km0c7RFuPB_TWY40hp3P-39" value="" style="points=[[0.13,0.02,0],[0.5,0,0],[0.87,0.02,0],[0.885,0.4,0],[0.985,0.985,0],[0.5,1,0],[0.015,0.985,0],[0.115,0.4,0]];verticalLabelPosition=bottom;sketch=0;html=1;verticalAlign=top;aspect=fixed;align=center;pointerEvents=1;shape=mxgraph.cisco19.laptop;fillColor=#005073;strokeColor=none;" vertex="1" parent="1">
          <mxGeometry x="391.4999999999999" y="830.35" width="69.5" height="48.65" as="geometry" />
        </mxCell>
        <mxCell id="Km0c7RFuPB_TWY40hp3P-40" value="" style="outlineConnect=0;dashed=0;verticalLabelPosition=bottom;verticalAlign=top;align=center;html=1;shape=mxgraph.aws3.user;fillColor=#ffe6cc;rotation=0;strokeColor=#d79b00;" vertex="1" parent="1">
          <mxGeometry x="478.2499999999999" y="786" width="70.5" height="91.11" as="geometry" />
        </mxCell>
        <mxCell id="Km0c7RFuPB_TWY40hp3P-41" value="" style="points=[[0.13,0.02,0],[0.5,0,0],[0.87,0.02,0],[0.885,0.4,0],[0.985,0.985,0],[0.5,1,0],[0.015,0.985,0],[0.115,0.4,0]];verticalLabelPosition=bottom;sketch=0;html=1;verticalAlign=top;aspect=fixed;align=center;pointerEvents=1;shape=mxgraph.cisco19.laptop;fillColor=#005073;strokeColor=none;" vertex="1" parent="1">
          <mxGeometry x="478.7499999999999" y="830.35" width="69.5" height="48.65" as="geometry" />
        </mxCell>
        <mxCell id="Km0c7RFuPB_TWY40hp3P-42" value="" style="outlineConnect=0;dashed=0;verticalLabelPosition=bottom;verticalAlign=top;align=center;html=1;shape=mxgraph.aws3.user;fillColor=#ffe6cc;rotation=0;strokeColor=#d79b00;" vertex="1" parent="1">
          <mxGeometry x="307.75" y="889" width="70.5" height="91.11" as="geometry" />
        </mxCell>
        <mxCell id="Km0c7RFuPB_TWY40hp3P-43" value="" style="points=[[0.13,0.02,0],[0.5,0,0],[0.87,0.02,0],[0.885,0.4,0],[0.985,0.985,0],[0.5,1,0],[0.015,0.985,0],[0.115,0.4,0]];verticalLabelPosition=bottom;sketch=0;html=1;verticalAlign=top;aspect=fixed;align=center;pointerEvents=1;shape=mxgraph.cisco19.laptop;fillColor=#005073;strokeColor=none;" vertex="1" parent="1">
          <mxGeometry x="308.25" y="935.35" width="69.5" height="48.65" as="geometry" />
        </mxCell>
        <mxCell id="Km0c7RFuPB_TWY40hp3P-44" value="" style="outlineConnect=0;dashed=0;verticalLabelPosition=bottom;verticalAlign=top;align=center;html=1;shape=mxgraph.aws3.user;fillColor=#ffe6cc;rotation=0;strokeColor=#d79b00;" vertex="1" parent="1">
          <mxGeometry x="307.75" y="786" width="70.5" height="91.11" as="geometry" />
        </mxCell>
        <mxCell id="Km0c7RFuPB_TWY40hp3P-45" value="" style="points=[[0.13,0.02,0],[0.5,0,0],[0.87,0.02,0],[0.885,0.4,0],[0.985,0.985,0],[0.5,1,0],[0.015,0.985,0],[0.115,0.4,0]];verticalLabelPosition=bottom;sketch=0;html=1;verticalAlign=top;aspect=fixed;align=center;pointerEvents=1;shape=mxgraph.cisco19.laptop;fillColor=#005073;strokeColor=none;" vertex="1" parent="1">
          <mxGeometry x="308.25" y="830.35" width="69.5" height="48.65" as="geometry" />
        </mxCell>
        <mxCell id="Km0c7RFuPB_TWY40hp3P-46" value="" style="shape=module;jettyWidth=9;jettyHeight=2;" vertex="1" parent="1">
          <mxGeometry x="543.37" y="1415" width="20" height="11" as="geometry" />
        </mxCell>
        <mxCell id="Km0c7RFuPB_TWY40hp3P-47" value="&lt;font style=&quot;font-size: 24px;&quot;&gt;Developers&lt;/font&gt;" style="text;html=1;align=center;verticalAlign=middle;resizable=0;points=[];autosize=1;strokeColor=none;fillColor=none;" vertex="1" parent="1">
          <mxGeometry x="441" y="754.2699999999999" width="139" height="41" as="geometry" />
        </mxCell>
        <mxCell id="Km0c7RFuPB_TWY40hp3P-48" style="edgeStyle=orthogonalEdgeStyle;rounded=0;orthogonalLoop=1;jettySize=auto;html=1;entryX=0.997;entryY=0.33;entryDx=0;entryDy=0;entryPerimeter=0;fillColor=#0050ef;strokeColor=#001DBC;exitX=-0.007;exitY=0.445;exitDx=0;exitDy=0;exitPerimeter=0;" edge="1" parent="1" source="Km0c7RFuPB_TWY40hp3P-50" target="Km0c7RFuPB_TWY40hp3P-26">
          <mxGeometry relative="1" as="geometry">
            <Array as="points">
              <mxPoint x="702" y="1311" />
              <mxPoint x="598" y="1311" />
            </Array>
          </mxGeometry>
        </mxCell>
        <mxCell id="Km0c7RFuPB_TWY40hp3P-49" value="&lt;span style=&quot;color: rgb(230, 163, 101); font-size: 17px;&quot;&gt;standardise request&lt;/span&gt;" style="edgeLabel;html=1;align=center;verticalAlign=middle;resizable=0;points=[];labelBackgroundColor=#FBE3E2;" connectable="0" vertex="1" parent="Km0c7RFuPB_TWY40hp3P-48">
          <mxGeometry x="0.3786" y="1" relative="1" as="geometry">
            <mxPoint x="38" as="offset" />
          </mxGeometry>
        </mxCell>
        <mxCell id="Km0c7RFuPB_TWY40hp3P-50" value="" style="html=1;dropTarget=0;whiteSpace=wrap;" vertex="1" parent="1">
          <mxGeometry x="703.12" y="1291" width="102.5" height="49" as="geometry" />
        </mxCell>
        <mxCell id="Km0c7RFuPB_TWY40hp3P-51" value="&lt;div&gt;&lt;span style=&quot;color: light-dark(rgb(128, 128, 128), rgb(127, 127, 127)); background-color: transparent;&quot;&gt;Easy A&lt;/span&gt;&lt;/div&gt;&lt;div&gt;&lt;span style=&quot;color: light-dark(rgb(128, 128, 128), rgb(127, 127, 127)); background-color: transparent;&quot;&gt;Protocol&lt;/span&gt;&lt;/div&gt;" style="text;html=1;align=center;verticalAlign=middle;resizable=0;points=[];autosize=1;strokeColor=none;fillColor=none;fontSize=19;strokeWidth=0.8;" vertex="1" parent="1">
          <mxGeometry x="706.12" y="1287" width="88" height="58" as="geometry" />
        </mxCell>
        <mxCell id="Km0c7RFuPB_TWY40hp3P-52" value="" style="shape=module;jettyWidth=9;jettyHeight=2;" vertex="1" parent="1">
          <mxGeometry x="783.1199999999995" y="1293" width="20" height="11" as="geometry" />
        </mxCell>
        <mxCell id="Km0c7RFuPB_TWY40hp3P-53" value="" style="html=1;dropTarget=0;whiteSpace=wrap;" vertex="1" parent="1">
          <mxGeometry x="202" y="1188" width="96" height="47" as="geometry" />
        </mxCell>
        <mxCell id="Km0c7RFuPB_TWY40hp3P-54" value="&lt;font style=&quot;color: rgb(128, 128, 128);&quot;&gt;Web2 API&lt;/font&gt;" style="text;html=1;align=center;verticalAlign=middle;resizable=0;points=[];autosize=1;strokeColor=none;fillColor=none;fontSize=19;strokeWidth=0.8;" vertex="1" parent="1">
          <mxGeometry x="199" y="1195" width="102" height="35" as="geometry" />
        </mxCell>
        <mxCell id="Km0c7RFuPB_TWY40hp3P-55" value="" style="shape=module;jettyWidth=9;jettyHeight=2;" vertex="1" parent="1">
          <mxGeometry x="275.99999999999955" y="1190" width="20" height="11" as="geometry" />
        </mxCell>
        <mxCell id="Km0c7RFuPB_TWY40hp3P-56" value="" style="shape=module;jettyWidth=9;jettyHeight=2;" vertex="1" parent="1">
          <mxGeometry x="275.99999999999955" y="1295" width="20" height="11" as="geometry" />
        </mxCell>
        <mxCell id="Km0c7RFuPB_TWY40hp3P-57" style="edgeStyle=orthogonalEdgeStyle;rounded=0;orthogonalLoop=1;jettySize=auto;html=1;entryX=-0.002;entryY=0.869;entryDx=0;entryDy=0;entryPerimeter=0;fillColor=#008a00;strokeColor=#67AB9F;exitX=0.997;exitY=0.761;exitDx=0;exitDy=0;exitPerimeter=0;" edge="1" parent="1" source="Km0c7RFuPB_TWY40hp3P-26" target="Km0c7RFuPB_TWY40hp3P-50">
          <mxGeometry relative="1" as="geometry">
            <mxPoint x="564" y="1324" as="sourcePoint" />
            <Array as="points">
              <mxPoint x="696" y="1334" />
              <mxPoint x="703" y="1334" />
            </Array>
          </mxGeometry>
        </mxCell>
        <mxCell id="Km0c7RFuPB_TWY40hp3P-58" value="&lt;span style=&quot;color: rgb(230, 163, 101); font-size: 17px;&quot;&gt;send response&lt;/span&gt;" style="edgeLabel;html=1;align=center;verticalAlign=middle;resizable=0;points=[];labelBackgroundColor=#FBE3E2;" connectable="0" vertex="1" parent="Km0c7RFuPB_TWY40hp3P-57">
          <mxGeometry x="0.3956" relative="1" as="geometry">
            <mxPoint x="-36" y="1" as="offset" />
          </mxGeometry>
        </mxCell>
        <mxCell id="Km0c7RFuPB_TWY40hp3P-59" value="" style="shape=folder;fontStyle=1;spacingTop=10;tabWidth=82;tabHeight=0;tabPosition=left;html=1;whiteSpace=wrap;strokeWidth=0;gradientColor=none;fillColor=#FFF2CC;strokeColor=none;" vertex="1" parent="1">
          <mxGeometry x="751" y="1519" width="135" height="137" as="geometry" />
        </mxCell>
        <mxCell id="Km0c7RFuPB_TWY40hp3P-60" value="" style="shape=folder;fontStyle=1;spacingTop=10;tabWidth=81;tabHeight=1;tabPosition=left;html=1;whiteSpace=wrap;strokeWidth=0;fillColor=#FFF2CC;strokeColor=none;" vertex="1" parent="1">
          <mxGeometry x="739.5" y="1538" width="135" height="142" as="geometry" />
        </mxCell>
        <mxCell id="Km0c7RFuPB_TWY40hp3P-61" value="&lt;span style=&quot;color: rgba(0, 0, 0, 0); font-family: monospace; font-size: 0px; font-weight: 400; text-align: start; text-wrap-mode: nowrap;&quot;&gt;%3CmxGraphModel%3E%3Croot%3E%3CmxCell%20id%3D%220%22%2F%3E%3CmxCell%20id%3D%221%22%20parent%3D%220%22%2F%3E%3CmxCell%20id%3D%222%22%20value%3D%22%22%20style%3D%22shape%3Dfolder%3BfontStyle%3D1%3BspacingTop%3D10%3BtabWidth%3D84%3BtabHeight%3D21%3BtabPosition%3Dleft%3Bhtml%3D1%3BwhiteSpace%3Dwrap%3B%22%20vertex%3D%221%22%20parent%3D%221%22%3E%3CmxGeometry%20x%3D%22-701%22%20y%3D%22824%22%20width%3D%22135%22%20height%3D%22139%22%20as%3D%22geometry%22%2F%3E%3C%2FmxCell%3E%3C%2Froot%3E%3C%2FmxGraphModel%3E&lt;/span&gt;" style="shape=folder;fontStyle=1;spacingTop=10;tabWidth=82;tabHeight=0;tabPosition=left;html=1;whiteSpace=wrap;strokeWidth=0;fillColor=#FFF2CC;strokeColor=none;" vertex="1" parent="1">
          <mxGeometry x="727" y="1551" width="135" height="146" as="geometry" />
        </mxCell>
        <mxCell id="Km0c7RFuPB_TWY40hp3P-62" value="&lt;font style=&quot;color: rgb(128, 128, 128);&quot;&gt;Polkadot&lt;/font&gt;" style="text;html=1;align=center;verticalAlign=middle;resizable=0;points=[];autosize=1;strokeColor=none;fillColor=none;fontSize=17;strokeWidth=0.8;" vertex="1" parent="1">
          <mxGeometry x="728.9999999999999" y="1545" width="84" height="32" as="geometry" />
        </mxCell>
        <mxCell id="Km0c7RFuPB_TWY40hp3P-63" value="&lt;font style=&quot;color: rgb(128, 128, 128);&quot;&gt;.......&lt;/font&gt;" style="text;html=1;align=center;verticalAlign=middle;resizable=0;points=[];autosize=1;strokeColor=none;fillColor=none;fontSize=17;strokeWidth=0.8;" vertex="1" parent="1">
          <mxGeometry x="752.9999999999999" y="1523" width="51" height="32" as="geometry" />
        </mxCell>
        <mxCell id="Km0c7RFuPB_TWY40hp3P-64" value="&lt;font style=&quot;color: rgb(128, 128, 128);&quot;&gt;Chain X&lt;/font&gt;" style="text;html=1;align=center;verticalAlign=middle;resizable=0;points=[];autosize=1;strokeColor=none;fillColor=none;fontSize=17;strokeWidth=0.8;" vertex="1" parent="1">
          <mxGeometry x="762.9999999999999" y="1508" width="78" height="32" as="geometry" />
        </mxCell>
        <mxCell id="Km0c7RFuPB_TWY40hp3P-65" style="edgeStyle=orthogonalEdgeStyle;rounded=0;orthogonalLoop=1;jettySize=auto;html=1;entryX=0;entryY=0.5;entryDx=0;entryDy=0;exitX=0.381;exitY=0.999;exitDx=0;exitDy=0;exitPerimeter=0;fillColor=#0050ef;strokeColor=#001DBC;" edge="1" parent="1" source="Km0c7RFuPB_TWY40hp3P-25" target="Km0c7RFuPB_TWY40hp3P-76">
          <mxGeometry relative="1" as="geometry">
            <mxPoint x="488" y="1494" as="sourcePoint" />
            <mxPoint x="448.10199999999986" y="1677.4360000000001" as="targetPoint" />
            <Array as="points">
              <mxPoint x="489" y="1531" />
              <mxPoint x="298" y="1531" />
              <mxPoint x="298" y="1627" />
              <mxPoint x="353" y="1627" />
            </Array>
          </mxGeometry>
        </mxCell>
        <mxCell id="Km0c7RFuPB_TWY40hp3P-66" value="&lt;span style=&quot;color: rgb(230, 163, 101); font-size: 17px;&quot;&gt;translate request&lt;/span&gt;" style="edgeLabel;html=1;align=center;verticalAlign=middle;resizable=0;points=[];labelBackgroundColor=#DAE8FC;" connectable="0" vertex="1" parent="Km0c7RFuPB_TWY40hp3P-65">
          <mxGeometry x="-0.1943" y="2" relative="1" as="geometry">
            <mxPoint x="25" y="-1" as="offset" />
          </mxGeometry>
        </mxCell>
        <mxCell id="Km0c7RFuPB_TWY40hp3P-67" style="edgeStyle=orthogonalEdgeStyle;rounded=0;orthogonalLoop=1;jettySize=auto;html=1;exitX=0.783;exitY=1.001;exitDx=0;exitDy=0;exitPerimeter=0;entryX=0.998;entryY=0.569;entryDx=0;entryDy=0;entryPerimeter=0;fillColor=#0050ef;strokeColor=#001DBC;" edge="1" parent="1" source="Km0c7RFuPB_TWY40hp3P-25" target="Km0c7RFuPB_TWY40hp3P-79">
          <mxGeometry relative="1" as="geometry">
            <mxPoint x="503.0180000000005" y="1479.3279999999997" as="sourcePoint" />
            <mxPoint x="733.998" y="1618.5019999999997" as="targetPoint" />
            <Array as="points">
              <mxPoint x="539" y="1514" />
              <mxPoint x="923" y="1514" />
              <mxPoint x="923" y="1627" />
            </Array>
          </mxGeometry>
        </mxCell>
        <mxCell id="Km0c7RFuPB_TWY40hp3P-68" value="&lt;span style=&quot;color: rgb(230, 163, 101); font-size: 17px;&quot;&gt;translate request&lt;/span&gt;" style="edgeLabel;html=1;align=center;verticalAlign=middle;resizable=0;points=[];labelBackgroundColor=#DAE8FC;" connectable="0" vertex="1" parent="Km0c7RFuPB_TWY40hp3P-67">
          <mxGeometry x="-0.3828" y="1" relative="1" as="geometry">
            <mxPoint x="16" as="offset" />
          </mxGeometry>
        </mxCell>
        <mxCell id="Km0c7RFuPB_TWY40hp3P-69" style="edgeStyle=orthogonalEdgeStyle;rounded=0;orthogonalLoop=1;jettySize=auto;html=1;entryX=0;entryY=0.75;entryDx=0;entryDy=0;fillColor=#008a00;strokeColor=#67AB9F;exitX=0.604;exitY=-0.001;exitDx=0;exitDy=0;exitPerimeter=0;" edge="1" parent="1" source="Km0c7RFuPB_TWY40hp3P-25" target="Km0c7RFuPB_TWY40hp3P-26">
          <mxGeometry relative="1" as="geometry">
            <mxPoint x="441" y="1414" as="sourcePoint" />
            <Array as="points">
              <mxPoint x="517" y="1362" />
              <mxPoint x="180" y="1362" />
              <mxPoint x="180" y="1332" />
            </Array>
          </mxGeometry>
        </mxCell>
        <mxCell id="Km0c7RFuPB_TWY40hp3P-70" value="&lt;span style=&quot;color: rgb(230, 163, 101); font-size: 17px;&quot;&gt;send reponse&lt;/span&gt;" style="edgeLabel;html=1;align=center;verticalAlign=middle;resizable=0;points=[];labelBackgroundColor=#FBE3E2;" connectable="0" vertex="1" parent="Km0c7RFuPB_TWY40hp3P-69">
          <mxGeometry x="0.4116" y="1" relative="1" as="geometry">
            <mxPoint x="-17" y="-1" as="offset" />
          </mxGeometry>
        </mxCell>
        <mxCell id="Km0c7RFuPB_TWY40hp3P-71" style="edgeStyle=orthogonalEdgeStyle;rounded=0;orthogonalLoop=1;jettySize=auto;html=1;exitX=-0.008;exitY=0.325;exitDx=0;exitDy=0;entryX=0.317;entryY=0;entryDx=0;entryDy=0;entryPerimeter=0;fillColor=#0050ef;strokeColor=#001DBC;exitPerimeter=0;" edge="1" parent="1" source="Km0c7RFuPB_TWY40hp3P-26" target="Km0c7RFuPB_TWY40hp3P-25">
          <mxGeometry relative="1" as="geometry">
            <Array as="points">
              <mxPoint x="156" y="1310" />
              <mxPoint x="156" y="1379" />
              <mxPoint x="481" y="1379" />
            </Array>
          </mxGeometry>
        </mxCell>
        <mxCell id="Km0c7RFuPB_TWY40hp3P-72" value="&lt;span style=&quot;color: rgb(230, 163, 101); font-size: 17px;&quot;&gt;call function&lt;/span&gt;" style="edgeLabel;html=1;align=center;verticalAlign=middle;resizable=0;points=[];labelBackgroundColor=#FBE3E2;" connectable="0" vertex="1" parent="Km0c7RFuPB_TWY40hp3P-71">
          <mxGeometry x="-0.1979" y="-1" relative="1" as="geometry">
            <mxPoint x="191" y="1" as="offset" />
          </mxGeometry>
        </mxCell>
        <mxCell id="Km0c7RFuPB_TWY40hp3P-73" value="" style="html=1;dropTarget=0;whiteSpace=wrap;" vertex="1" parent="1">
          <mxGeometry x="158" y="1598.5" width="96" height="51" as="geometry" />
        </mxCell>
        <mxCell id="Km0c7RFuPB_TWY40hp3P-74" value="&lt;div&gt;&lt;font color=&quot;#808080&quot;&gt;Easy A&lt;/font&gt;&lt;/div&gt;&lt;div&gt;&lt;font color=&quot;#808080&quot;&gt;Contract&lt;/font&gt;&lt;/div&gt;" style="text;html=1;align=center;verticalAlign=middle;resizable=0;points=[];autosize=1;strokeColor=none;fillColor=none;fontSize=14;strokeWidth=0.8;" vertex="1" parent="1">
          <mxGeometry x="161" y="1604" width="71" height="46" as="geometry" />
        </mxCell>
        <mxCell id="Km0c7RFuPB_TWY40hp3P-75" value="" style="shape=module;jettyWidth=9;jettyHeight=2;" vertex="1" parent="1">
          <mxGeometry x="232" y="1601" width="20" height="11" as="geometry" />
        </mxCell>
        <mxCell id="Km0c7RFuPB_TWY40hp3P-76" value="" style="html=1;dropTarget=0;whiteSpace=wrap;" vertex="1" parent="1">
          <mxGeometry x="352.5" y="1601.25" width="96" height="51" as="geometry" />
        </mxCell>
        <mxCell id="Km0c7RFuPB_TWY40hp3P-77" value="&lt;div&gt;&lt;font color=&quot;#808080&quot;&gt;Easy A&lt;/font&gt;&lt;/div&gt;&lt;div&gt;&lt;font color=&quot;#808080&quot;&gt;Contract&lt;/font&gt;&lt;/div&gt;" style="text;html=1;align=center;verticalAlign=middle;resizable=0;points=[];autosize=1;strokeColor=none;fillColor=none;fontSize=14;strokeWidth=0.8;" vertex="1" parent="1">
          <mxGeometry x="355.5" y="1606.75" width="71" height="46" as="geometry" />
        </mxCell>
        <mxCell id="Km0c7RFuPB_TWY40hp3P-78" value="" style="shape=module;jettyWidth=9;jettyHeight=2;" vertex="1" parent="1">
          <mxGeometry x="426.5" y="1603.75" width="20" height="11" as="geometry" />
        </mxCell>
        <mxCell id="Km0c7RFuPB_TWY40hp3P-79" value="" style="html=1;dropTarget=0;whiteSpace=wrap;" vertex="1" parent="1">
          <mxGeometry x="748.5" y="1598" width="96" height="51" as="geometry" />
        </mxCell>
        <mxCell id="Km0c7RFuPB_TWY40hp3P-80" value="&lt;div&gt;&lt;font style=&quot;color: rgb(128, 128, 128);&quot;&gt;Easy A&lt;/font&gt;&lt;/div&gt;&lt;div&gt;&lt;font style=&quot;color: rgb(128, 128, 128);&quot;&gt;Contract&lt;/font&gt;&lt;/div&gt;" style="text;html=1;align=center;verticalAlign=middle;resizable=0;points=[];autosize=1;strokeColor=none;fillColor=none;fontSize=14;strokeWidth=0.8;" vertex="1" parent="1">
          <mxGeometry x="753.5" y="1603.5" width="71" height="46" as="geometry" />
        </mxCell>
        <mxCell id="Km0c7RFuPB_TWY40hp3P-81" value="" style="shape=module;jettyWidth=9;jettyHeight=2;" vertex="1" parent="1">
          <mxGeometry x="822.5" y="1600.5" width="20" height="11" as="geometry" />
        </mxCell>
        <mxCell id="Km0c7RFuPB_TWY40hp3P-82" style="edgeStyle=orthogonalEdgeStyle;rounded=0;orthogonalLoop=1;jettySize=auto;html=1;entryX=1.002;entryY=0.514;entryDx=0;entryDy=0;entryPerimeter=0;startArrow=classic;startFill=1;endArrow=none;fillColor=#0050ef;strokeColor=#001DBC;exitX=0.559;exitY=-0.022;exitDx=0;exitDy=0;exitPerimeter=0;" edge="1" parent="1" source="Km0c7RFuPB_TWY40hp3P-50" target="Km0c7RFuPB_TWY40hp3P-53">
          <mxGeometry relative="1" as="geometry">
            <mxPoint x="306" y="1212" as="targetPoint" />
            <Array as="points">
              <mxPoint x="760" y="1212" />
            </Array>
          </mxGeometry>
        </mxCell>
        <mxCell id="Km0c7RFuPB_TWY40hp3P-83" value="&lt;span style=&quot;color: rgb(230, 163, 101); font-size: 17px;&quot;&gt;forward request&lt;/span&gt;" style="edgeLabel;html=1;align=center;verticalAlign=middle;resizable=0;points=[];labelBackgroundColor=#FDF2E4;" connectable="0" vertex="1" parent="Km0c7RFuPB_TWY40hp3P-82">
          <mxGeometry x="-0.0373" relative="1" as="geometry">
            <mxPoint x="87" y="-1" as="offset" />
          </mxGeometry>
        </mxCell>
        <mxCell id="Km0c7RFuPB_TWY40hp3P-84" style="edgeStyle=orthogonalEdgeStyle;rounded=0;orthogonalLoop=1;jettySize=auto;html=1;entryX=-0.002;entryY=0.494;entryDx=0;entryDy=0;entryPerimeter=0;exitX=0.54;exitY=-0.002;exitDx=0;exitDy=0;exitPerimeter=0;fillColor=#0050ef;strokeColor=#001DBC;" edge="1" parent="1" source="Km0c7RFuPB_TWY40hp3P-22" target="Km0c7RFuPB_TWY40hp3P-53">
          <mxGeometry relative="1" as="geometry">
            <mxPoint x="294" y="960" as="sourcePoint" />
            <mxPoint x="202" y="1215" as="targetPoint" />
            <Array as="points">
              <mxPoint x="93" y="960" />
              <mxPoint x="93" y="1211" />
              <mxPoint x="202" y="1211" />
            </Array>
          </mxGeometry>
        </mxCell>
        <mxCell id="Km0c7RFuPB_TWY40hp3P-85" value="&lt;span style=&quot;color: rgb(230, 163, 101); font-size: 17px;&quot;&gt;submit&amp;nbsp;&lt;/span&gt;&lt;div&gt;&lt;span style=&quot;color: rgb(230, 163, 101); font-size: 17px;&quot;&gt;request&lt;/span&gt;&lt;/div&gt;" style="edgeLabel;html=1;align=center;verticalAlign=middle;resizable=0;points=[];labelBackgroundColor=#F5F5F5;" connectable="0" vertex="1" parent="Km0c7RFuPB_TWY40hp3P-84">
          <mxGeometry x="-0.6588" y="3" relative="1" as="geometry">
            <mxPoint as="offset" />
          </mxGeometry>
        </mxCell>
        <mxCell id="Km0c7RFuPB_TWY40hp3P-86" style="edgeStyle=orthogonalEdgeStyle;rounded=0;orthogonalLoop=1;jettySize=auto;html=1;entryX=0.982;entryY=0.857;entryDx=0;entryDy=0;entryPerimeter=0;fillColor=#008a00;strokeColor=#67AB9F;" edge="1" parent="1">
          <mxGeometry relative="1" as="geometry">
            <mxPoint x="742" y="1290" as="sourcePoint" />
            <mxPoint x="299.164" y="1227.9950000000001" as="targetPoint" />
            <Array as="points">
              <mxPoint x="742" y="1290" />
              <mxPoint x="742" y="1228" />
            </Array>
          </mxGeometry>
        </mxCell>
        <mxCell id="Km0c7RFuPB_TWY40hp3P-87" value="&lt;span style=&quot;color: rgb(230, 163, 101); font-size: 17px;&quot;&gt;forward response&lt;/span&gt;" style="edgeLabel;html=1;align=center;verticalAlign=middle;resizable=0;points=[];labelBackgroundColor=#FDF2E4;" connectable="0" vertex="1" parent="Km0c7RFuPB_TWY40hp3P-86">
          <mxGeometry x="-0.0732" relative="1" as="geometry">
            <mxPoint x="-104" y="1" as="offset" />
          </mxGeometry>
        </mxCell>
        <mxCell id="Km0c7RFuPB_TWY40hp3P-88" value="" style="endArrow=none;dashed=1;html=1;rounded=0;entryX=-0.012;entryY=0.122;entryDx=0;entryDy=0;entryPerimeter=0;strokeColor=#E6A365;" edge="1" parent="1">
          <mxGeometry width="50" height="50" relative="1" as="geometry">
            <mxPoint x="613" y="1204" as="sourcePoint" />
            <mxPoint x="613.2649662921347" y="1174.172" as="targetPoint" />
          </mxGeometry>
        </mxCell>
        <mxCell id="Km0c7RFuPB_TWY40hp3P-89" value="" style="endArrow=none;dashed=1;html=1;rounded=0;strokeColor=#E6A365;" edge="1" parent="1">
          <mxGeometry width="50" height="50" relative="1" as="geometry">
            <mxPoint x="615.52" y="1177" as="sourcePoint" />
            <mxPoint x="614.4899999999998" y="1146" as="targetPoint" />
          </mxGeometry>
        </mxCell>
        <mxCell id="Km0c7RFuPB_TWY40hp3P-90" value="&lt;font style=&quot;color: rgb(230, 163, 101); font-size: 13px;&quot;&gt;swap request&lt;/font&gt;" style="text;html=1;align=center;verticalAlign=middle;resizable=0;points=[];autosize=1;strokeColor=none;fillColor=none;" vertex="1" parent="1">
          <mxGeometry x="616.1199999999999" y="1123" width="95" height="28" as="geometry" />
        </mxCell>
        <mxCell id="Km0c7RFuPB_TWY40hp3P-91" value="&lt;font style=&quot;color: rgb(230, 163, 101); font-size: 13px;&quot;&gt;pay request&lt;/font&gt;" style="text;html=1;align=center;verticalAlign=middle;resizable=0;points=[];autosize=1;strokeColor=none;fillColor=none;" vertex="1" parent="1">
          <mxGeometry x="617.1199999999999" y="1136" width="86" height="28" as="geometry" />
        </mxCell>
        <mxCell id="Km0c7RFuPB_TWY40hp3P-92" value="&lt;font style=&quot;color: rgb(230, 163, 101); font-size: 13px;&quot;&gt;mint request&lt;/font&gt;" style="text;html=1;align=center;verticalAlign=middle;resizable=0;points=[];autosize=1;strokeColor=none;fillColor=none;" vertex="1" parent="1">
          <mxGeometry x="616.1199999999999" y="1150.5" width="90" height="28" as="geometry" />
        </mxCell>
        <mxCell id="Km0c7RFuPB_TWY40hp3P-93" value="" style="endArrow=none;dashed=1;html=1;rounded=0;strokeColor=#E6A365;" edge="1" parent="1">
          <mxGeometry width="50" height="50" relative="1" as="geometry">
            <mxPoint x="615.1199999999999" y="1176.5" as="sourcePoint" />
            <mxPoint x="625.52" y="1181" as="targetPoint" />
          </mxGeometry>
        </mxCell>
        <mxCell id="Km0c7RFuPB_TWY40hp3P-94" value="" style="endArrow=none;dashed=1;html=1;rounded=0;strokeColor=#E6A365;entryX=0.098;entryY=0.049;entryDx=0;entryDy=0;entryPerimeter=0;" edge="1" parent="1" target="Km0c7RFuPB_TWY40hp3P-92">
          <mxGeometry width="50" height="50" relative="1" as="geometry">
            <mxPoint x="615.1199999999999" y="1156" as="sourcePoint" />
            <mxPoint x="624.1733707865167" y="1156" as="targetPoint" />
            <Array as="points">
              <mxPoint x="619.52" y="1154" />
            </Array>
          </mxGeometry>
        </mxCell>
        <mxCell id="Km0c7RFuPB_TWY40hp3P-95" value="" style="endArrow=none;dashed=1;html=1;rounded=0;strokeColor=#E6A365;entryX=0.088;entryY=0.027;entryDx=0;entryDy=0;entryPerimeter=0;" edge="1" parent="1" target="Km0c7RFuPB_TWY40hp3P-91">
          <mxGeometry width="50" height="50" relative="1" as="geometry">
            <mxPoint x="615.1199999999999" y="1145" as="sourcePoint" />
            <mxPoint x="624.1733707865167" y="1145" as="targetPoint" />
          </mxGeometry>
        </mxCell>
        <mxCell id="Km0c7RFuPB_TWY40hp3P-96" value="" style="endArrow=none;dashed=1;html=1;rounded=0;strokeColor=#E6A365;" edge="1" parent="1">
          <mxGeometry width="50" height="50" relative="1" as="geometry">
            <mxPoint x="615.1199999999999" y="1166" as="sourcePoint" />
            <mxPoint x="624.1733707865167" y="1166" as="targetPoint" />
          </mxGeometry>
        </mxCell>
        <mxCell id="Km0c7RFuPB_TWY40hp3P-97" value="&lt;font style=&quot;color: rgb(230, 163, 101); font-size: 13px;&quot;&gt;burn request&lt;/font&gt;" style="text;html=1;align=center;verticalAlign=middle;resizable=0;points=[];autosize=1;strokeColor=none;fillColor=none;" vertex="1" parent="1">
          <mxGeometry x="615.1199999999999" y="1165.3" width="91" height="28" as="geometry" />
        </mxCell>
        <mxCell id="Km0c7RFuPB_TWY40hp3P-98" style="edgeStyle=orthogonalEdgeStyle;rounded=0;orthogonalLoop=1;jettySize=auto;html=1;entryX=0.012;entryY=0.577;entryDx=0;entryDy=0;entryPerimeter=0;strokeColor=#67AB9F;" edge="1" parent="1" source="Km0c7RFuPB_TWY40hp3P-53" target="Km0c7RFuPB_TWY40hp3P-22">
          <mxGeometry relative="1" as="geometry">
            <Array as="points">
              <mxPoint x="250" y="1176" />
              <mxPoint x="547" y="1176" />
            </Array>
          </mxGeometry>
        </mxCell>
        <mxCell id="Km0c7RFuPB_TWY40hp3P-99" value="&lt;span style=&quot;color: rgb(230, 163, 101); font-size: 17px;&quot;&gt;send&amp;nbsp;&lt;/span&gt;&lt;div&gt;&lt;span style=&quot;color: rgb(230, 163, 101); font-size: 17px;&quot;&gt;response&lt;/span&gt;&lt;/div&gt;" style="edgeLabel;html=1;align=center;verticalAlign=middle;resizable=0;points=[];labelBackgroundColor=#EEEEEE;" vertex="1" connectable="0" parent="Km0c7RFuPB_TWY40hp3P-98">
          <mxGeometry x="0.6656" y="-1" relative="1" as="geometry">
            <mxPoint as="offset" />
          </mxGeometry>
        </mxCell>
      </root>
    </mxGraphModel>
  </diagram>
  <diagram id="8NQbzxWDOkvfS47fOvNR" name="tokenomics">
    <mxGraphModel grid="0" page="1" gridSize="10" guides="1" tooltips="1" connect="1" arrows="1" fold="1" pageScale="1" pageWidth="827" pageHeight="1169" math="0" shadow="0">
      <root>
        <mxCell id="0" />
        <mxCell id="1" parent="0" />
        <mxCell id="6FpRVTVLV7hesDdhC65f-138" style="edgeStyle=orthogonalEdgeStyle;rounded=0;orthogonalLoop=1;jettySize=auto;html=1;entryX=0;entryY=0.5;entryDx=0;entryDy=0;exitX=1;exitY=0.25;exitDx=0;exitDy=0;strokeColor=#82B366;endArrow=none;startFill=1;startArrow=classic;" edge="1" parent="1" target="6FpRVTVLV7hesDdhC65f-158">
          <mxGeometry relative="1" as="geometry">
            <mxPoint x="1677" y="1134.75" as="sourcePoint" />
            <mxPoint x="1774" y="1134.75" as="targetPoint" />
          </mxGeometry>
        </mxCell>
        <mxCell id="6FpRVTVLV7hesDdhC65f-139" value="&lt;font style=&quot;font-size: 14px;&quot;&gt;send profits&lt;/font&gt;" style="edgeLabel;html=1;align=center;verticalAlign=middle;resizable=0;points=[];fontColor=#82B366;" vertex="1" connectable="0" parent="6FpRVTVLV7hesDdhC65f-138">
          <mxGeometry x="-0.1" y="1" relative="1" as="geometry">
            <mxPoint x="8" as="offset" />
          </mxGeometry>
        </mxCell>
        <mxCell id="6FpRVTVLV7hesDdhC65f-144" style="edgeStyle=orthogonalEdgeStyle;rounded=0;orthogonalLoop=1;jettySize=auto;html=1;entryX=1.003;entryY=0.759;entryDx=0;entryDy=0;entryPerimeter=0;exitX=-0.001;exitY=0.468;exitDx=0;exitDy=0;strokeColor=#82B366;exitPerimeter=0;" edge="1" parent="1" source="6FpRVTVLV7hesDdhC65f-167">
          <mxGeometry relative="1" as="geometry">
            <mxPoint x="1786.9" y="946.085" as="sourcePoint" />
            <mxPoint x="1677.3600000000001" y="945.5039999999999" as="targetPoint" />
            <Array as="points">
              <mxPoint x="1772" y="945" />
            </Array>
          </mxGeometry>
        </mxCell>
        <mxCell id="6FpRVTVLV7hesDdhC65f-145" value="&lt;font style=&quot;font-size: 14px;&quot;&gt;launch projects&lt;/font&gt;" style="edgeLabel;html=1;align=center;verticalAlign=middle;resizable=0;points=[];fontColor=#82B366;" vertex="1" connectable="0" parent="6FpRVTVLV7hesDdhC65f-144">
          <mxGeometry x="-0.1404" relative="1" as="geometry">
            <mxPoint x="1" y="1" as="offset" />
          </mxGeometry>
        </mxCell>
        <mxCell id="6FpRVTVLV7hesDdhC65f-146" style="edgeStyle=orthogonalEdgeStyle;rounded=0;orthogonalLoop=1;jettySize=auto;html=1;entryX=0.002;entryY=0.324;entryDx=0;entryDy=0;entryPerimeter=0;exitX=0.97;exitY=0.312;exitDx=0;exitDy=0;strokeColor=#82B366;exitPerimeter=0;" edge="1" parent="1" source="6FpRVTVLV7hesDdhC65f-168" target="6FpRVTVLV7hesDdhC65f-164">
          <mxGeometry relative="1" as="geometry">
            <mxPoint x="1454.9999999999955" y="939.5" as="sourcePoint" />
            <mxPoint x="1579.1879999999996" y="940.375" as="targetPoint" />
          </mxGeometry>
        </mxCell>
        <mxCell id="6FpRVTVLV7hesDdhC65f-147" value="&lt;font style=&quot;font-size: 14px;&quot;&gt;provide funding&lt;/font&gt;" style="edgeLabel;html=1;align=center;verticalAlign=middle;resizable=0;points=[];fontColor=#82B366;" vertex="1" connectable="0" parent="6FpRVTVLV7hesDdhC65f-146">
          <mxGeometry x="-0.1668" relative="1" as="geometry">
            <mxPoint x="13" y="-2" as="offset" />
          </mxGeometry>
        </mxCell>
        <mxCell id="6FpRVTVLV7hesDdhC65f-148" style="edgeStyle=orthogonalEdgeStyle;rounded=0;orthogonalLoop=1;jettySize=auto;html=1;entryX=0.491;entryY=0.999;entryDx=0;entryDy=0;exitX=0.486;exitY=0.013;exitDx=0;exitDy=0;exitPerimeter=0;entryPerimeter=0;strokeColor=#82B366;" edge="1" parent="1" source="6FpRVTVLV7hesDdhC65f-162" target="6FpRVTVLV7hesDdhC65f-163">
          <mxGeometry relative="1" as="geometry">
            <mxPoint x="1345" y="1292" as="sourcePoint" />
            <mxPoint x="1345.76" y="1154.56" as="targetPoint" />
            <Array as="points">
              <mxPoint x="1354" y="1153" />
            </Array>
          </mxGeometry>
        </mxCell>
        <mxCell id="6FpRVTVLV7hesDdhC65f-149" value="&lt;font style=&quot;font-size: 14px;&quot;&gt;fund&lt;/font&gt;&lt;div&gt;&lt;font style=&quot;font-size: 14px;&quot;&gt;pool&lt;/font&gt;&lt;/div&gt;" style="edgeLabel;html=1;align=center;verticalAlign=middle;resizable=0;points=[];fontColor=#82B366;" vertex="1" connectable="0" parent="6FpRVTVLV7hesDdhC65f-148">
          <mxGeometry x="-0.0417" y="2" relative="1" as="geometry">
            <mxPoint as="offset" />
          </mxGeometry>
        </mxCell>
        <mxCell id="6FpRVTVLV7hesDdhC65f-150" style="edgeStyle=orthogonalEdgeStyle;rounded=0;orthogonalLoop=1;jettySize=auto;html=1;entryX=0.5;entryY=1;entryDx=0;entryDy=0;exitX=0.505;exitY=0;exitDx=0;exitDy=0;exitPerimeter=0;fillColor=#d5e8d4;strokeColor=#82b366;" edge="1" parent="1" source="6FpRVTVLV7hesDdhC65f-165" target="6FpRVTVLV7hesDdhC65f-158">
          <mxGeometry relative="1" as="geometry">
            <mxPoint x="1671" y="1292.8400000000001" as="sourcePoint" />
            <mxPoint x="1672" y="1155.8400000000001" as="targetPoint" />
            <Array as="points">
              <mxPoint x="1872" y="1287" />
              <mxPoint x="1871" y="1287" />
            </Array>
          </mxGeometry>
        </mxCell>
        <mxCell id="6FpRVTVLV7hesDdhC65f-151" value="&lt;font style=&quot;color: rgb(130, 179, 102); font-size: 14px;&quot;&gt;pay transaction&lt;/font&gt;&lt;div&gt;&lt;font style=&quot;color: rgb(130, 179, 102); font-size: 14px;&quot;&gt;management fees,&amp;nbsp;&lt;/font&gt;&lt;/div&gt;&lt;div&gt;&lt;font style=&quot;color: rgb(130, 179, 102); font-size: 14px;&quot;&gt;performance fees&lt;/font&gt;&lt;/div&gt;&lt;div&gt;&lt;font style=&quot;color: rgb(130, 179, 102); font-size: 14px;&quot;&gt;&amp;amp; lock tokens&lt;/font&gt;&lt;/div&gt;" style="edgeLabel;html=1;align=center;verticalAlign=middle;resizable=0;points=[];" vertex="1" connectable="0" parent="6FpRVTVLV7hesDdhC65f-150">
          <mxGeometry x="-0.0138" y="-1" relative="1" as="geometry">
            <mxPoint x="-1" y="4" as="offset" />
          </mxGeometry>
        </mxCell>
        <mxCell id="6FpRVTVLV7hesDdhC65f-152" style="edgeStyle=orthogonalEdgeStyle;rounded=0;orthogonalLoop=1;jettySize=auto;html=1;exitX=0.459;exitY=1.007;exitDx=0;exitDy=0;exitPerimeter=0;entryX=0.471;entryY=-0.008;entryDx=0;entryDy=0;entryPerimeter=0;strokeColor=#82B366;" edge="1" parent="1" source="6FpRVTVLV7hesDdhC65f-164" target="6FpRVTVLV7hesDdhC65f-161">
          <mxGeometry relative="1" as="geometry">
            <mxPoint x="1623.5200000000002" y="971" as="sourcePoint" />
            <mxPoint x="1624" y="1109.8400000000001" as="targetPoint" />
            <Array as="points">
              <mxPoint x="1623" y="1041" />
              <mxPoint x="1625" y="1041" />
            </Array>
          </mxGeometry>
        </mxCell>
        <mxCell id="6FpRVTVLV7hesDdhC65f-153" value="&lt;font style=&quot;font-size: 14px;&quot;&gt;build&amp;nbsp;&lt;/font&gt;&lt;div&gt;&lt;font style=&quot;font-size: 14px;&quot;&gt;reserve&lt;/font&gt;&lt;/div&gt;" style="edgeLabel;html=1;align=center;verticalAlign=middle;resizable=0;points=[];fontColor=#82B366;" vertex="1" connectable="0" parent="6FpRVTVLV7hesDdhC65f-152">
          <mxGeometry x="0.0591" relative="1" as="geometry">
            <mxPoint as="offset" />
          </mxGeometry>
        </mxCell>
        <mxCell id="6FpRVTVLV7hesDdhC65f-154" style="edgeStyle=orthogonalEdgeStyle;rounded=0;orthogonalLoop=1;jettySize=auto;html=1;entryX=0.495;entryY=1.003;entryDx=0;entryDy=0;entryPerimeter=0;exitX=0.458;exitY=-0.006;exitDx=0;exitDy=0;exitPerimeter=0;strokeColor=#B85450;" edge="1" parent="1" source="6FpRVTVLV7hesDdhC65f-163" target="6FpRVTVLV7hesDdhC65f-168">
          <mxGeometry relative="1" as="geometry">
            <mxPoint x="1350.734" y="1118.28" as="sourcePoint" />
            <mxPoint x="1350.996" y="963.23" as="targetPoint" />
            <Array as="points">
              <mxPoint x="1351" y="1118" />
            </Array>
          </mxGeometry>
        </mxCell>
        <mxCell id="6FpRVTVLV7hesDdhC65f-155" value="send&amp;nbsp;&lt;div&gt;rewards&lt;/div&gt;" style="edgeLabel;html=1;align=center;verticalAlign=middle;resizable=0;points=[];fontColor=#B85450;" vertex="1" connectable="0" parent="6FpRVTVLV7hesDdhC65f-154">
          <mxGeometry x="0.001" relative="1" as="geometry">
            <mxPoint x="1" y="4" as="offset" />
          </mxGeometry>
        </mxCell>
        <mxCell id="6FpRVTVLV7hesDdhC65f-156" style="edgeStyle=orthogonalEdgeStyle;rounded=0;orthogonalLoop=1;jettySize=auto;html=1;entryX=0.163;entryY=0.028;entryDx=0;entryDy=0;entryPerimeter=0;exitX=0.79;exitY=0.916;exitDx=0;exitDy=0;exitPerimeter=0;strokeColor=#82B366;" edge="1" parent="1" source="6FpRVTVLV7hesDdhC65f-168" target="6FpRVTVLV7hesDdhC65f-161">
          <mxGeometry relative="1" as="geometry">
            <mxPoint x="1444.1599999999999" y="971.4479999999999" as="sourcePoint" />
            <mxPoint x="1590.8400000000001" y="1109.792" as="targetPoint" />
            <Array as="points">
              <mxPoint x="1380" y="971" />
              <mxPoint x="1380" y="1046" />
              <mxPoint x="1594" y="1046" />
            </Array>
          </mxGeometry>
        </mxCell>
        <mxCell id="6FpRVTVLV7hesDdhC65f-157" value="&lt;span style=&quot;color: rgb(130, 179, 102);&quot;&gt;&lt;font style=&quot;font-size: 14px;&quot;&gt;pay&amp;nbsp;&lt;/font&gt;&lt;/span&gt;&lt;div style=&quot;color: rgb(130, 179, 102);&quot;&gt;&lt;font style=&quot;font-size: 14px;&quot;&gt;performance&amp;nbsp;&lt;span style=&quot;background-color: light-dark(#ffffff, var(--ge-dark-color, #121212)); color: light-dark(rgb(130, 179, 102), rgb(68, 110, 44));&quot;&gt;fees&lt;/span&gt;&lt;/font&gt;&lt;/div&gt;" style="edgeLabel;html=1;align=center;verticalAlign=middle;resizable=0;points=[];fontColor=#82B366;" vertex="1" connectable="0" parent="6FpRVTVLV7hesDdhC65f-156">
          <mxGeometry x="-0.3064" relative="1" as="geometry">
            <mxPoint x="52" y="-1" as="offset" />
          </mxGeometry>
        </mxCell>
        <mxCell id="6FpRVTVLV7hesDdhC65f-220" style="edgeStyle=orthogonalEdgeStyle;rounded=0;orthogonalLoop=1;jettySize=auto;html=1;entryX=0.813;entryY=0.992;entryDx=0;entryDy=0;strokeColor=#82B366;entryPerimeter=0;exitX=0.202;exitY=-0.004;exitDx=0;exitDy=0;exitPerimeter=0;" edge="1" parent="1" source="6FpRVTVLV7hesDdhC65f-158" target="6FpRVTVLV7hesDdhC65f-164">
          <mxGeometry relative="1" as="geometry">
            <mxPoint x="1922" y="1127" as="sourcePoint" />
            <Array as="points">
              <mxPoint x="1842" y="1075" />
              <mxPoint x="1659" y="1075" />
              <mxPoint x="1659" y="964" />
            </Array>
          </mxGeometry>
        </mxCell>
        <mxCell id="6FpRVTVLV7hesDdhC65f-221" value="&lt;font style=&quot;font-size: 14px;&quot;&gt;&lt;font style=&quot;color: rgb(130, 179, 102);&quot;&gt;mint&amp;nbsp;&lt;/font&gt;&lt;span style=&quot;color: light-dark(rgb(130, 179, 102), rgb(68, 110, 44)); background-color: light-dark(#ffffff, var(--ge-dark-color, #121212));&quot;&gt;tokens&lt;/span&gt;&lt;/font&gt;" style="edgeLabel;html=1;align=center;verticalAlign=middle;resizable=0;points=[];" vertex="1" connectable="0" parent="6FpRVTVLV7hesDdhC65f-220">
          <mxGeometry x="-0.1764" y="-3" relative="1" as="geometry">
            <mxPoint x="-2" y="4" as="offset" />
          </mxGeometry>
        </mxCell>
        <mxCell id="6FpRVTVLV7hesDdhC65f-223" style="edgeStyle=orthogonalEdgeStyle;rounded=0;orthogonalLoop=1;jettySize=auto;html=1;exitX=0.997;exitY=0.808;exitDx=0;exitDy=0;entryX=0.987;entryY=0.5;entryDx=0;entryDy=0;exitPerimeter=0;strokeColor=#B85450;entryPerimeter=0;" edge="1" parent="1" source="6FpRVTVLV7hesDdhC65f-158" target="6FpRVTVLV7hesDdhC65f-162">
          <mxGeometry relative="1" as="geometry">
            <Array as="points">
              <mxPoint x="1959" y="1146" />
              <mxPoint x="1959" y="1429" />
            </Array>
          </mxGeometry>
        </mxCell>
        <mxCell id="6FpRVTVLV7hesDdhC65f-224" value="&lt;span style=&quot;color: rgb(184, 84, 80);&quot;&gt;&lt;font style=&quot;font-size: 14px;&quot;&gt;pay protocol fees&lt;/font&gt;&lt;/span&gt;" style="edgeLabel;html=1;align=center;verticalAlign=middle;resizable=0;points=[];" vertex="1" connectable="0" parent="6FpRVTVLV7hesDdhC65f-223">
          <mxGeometry x="0.5051" y="-1" relative="1" as="geometry">
            <mxPoint as="offset" />
          </mxGeometry>
        </mxCell>
        <mxCell id="6FpRVTVLV7hesDdhC65f-158" value="&lt;div style=&quot;text-wrap-mode: nowrap;&quot;&gt;&lt;font style=&quot;font-size: 15px;&quot; face=&quot;Helvetica&quot;&gt;Protocol&lt;/font&gt;&lt;/div&gt;" style="html=1;dropTarget=0;whiteSpace=wrap;strokeWidth=0.5;" vertex="1" parent="1">
          <mxGeometry x="1822" y="1118" width="99" height="35" as="geometry" />
        </mxCell>
        <mxCell id="6FpRVTVLV7hesDdhC65f-159" style="edgeStyle=orthogonalEdgeStyle;rounded=0;orthogonalLoop=1;jettySize=auto;html=1;entryX=0.995;entryY=0.314;entryDx=0;entryDy=0;strokeColor=#b85450;fillColor=#f8cecc;entryPerimeter=0;" edge="1" parent="1" target="6FpRVTVLV7hesDdhC65f-163">
          <mxGeometry relative="1" as="geometry">
            <mxPoint x="1578" y="1126.5" as="sourcePoint" />
            <mxPoint x="1458.5" y="1126.5" as="targetPoint" />
            <Array as="points">
              <mxPoint x="1578" y="1129" />
            </Array>
          </mxGeometry>
        </mxCell>
        <mxCell id="6FpRVTVLV7hesDdhC65f-160" value="&lt;font style=&quot;font-size: 14px;&quot;&gt;&lt;span style=&quot;&quot;&gt;fund&amp;nbsp;&lt;/span&gt;&lt;span style=&quot;background-color: light-dark(#ffffff, var(--ge-dark-color, #121212)); color: light-dark(rgb(184, 84, 80), rgb(215, 129, 126));&quot;&gt;pool&lt;/span&gt;&lt;/font&gt;" style="edgeLabel;html=1;align=center;verticalAlign=middle;resizable=0;points=[];fontColor=#B85450;" vertex="1" connectable="0" parent="6FpRVTVLV7hesDdhC65f-159">
          <mxGeometry x="-0.0604" relative="1" as="geometry">
            <mxPoint x="-8" as="offset" />
          </mxGeometry>
        </mxCell>
        <mxCell id="6FpRVTVLV7hesDdhC65f-161" value="&lt;div style=&quot;text-wrap-mode: nowrap;&quot;&gt;&lt;font style=&quot;font-size: 15px;&quot; face=&quot;Helvetica&quot;&gt;Treasury&lt;/font&gt;&lt;/div&gt;" style="html=1;dropTarget=0;whiteSpace=wrap;strokeWidth=0.5;" vertex="1" parent="1">
          <mxGeometry x="1578" y="1118" width="99" height="35" as="geometry" />
        </mxCell>
        <mxCell id="6FpRVTVLV7hesDdhC65f-162" value="&lt;span style=&quot;text-wrap-mode: nowrap;&quot;&gt;&lt;font style=&quot;font-size: 15px;&quot; face=&quot;Helvetica&quot;&gt;L1 Protocol&lt;/font&gt;&lt;/span&gt;" style="html=1;dropTarget=0;whiteSpace=wrap;strokeWidth=0.5;" vertex="1" parent="1">
          <mxGeometry x="1305.5" y="1411.5" width="99" height="35" as="geometry" />
        </mxCell>
        <mxCell id="6FpRVTVLV7hesDdhC65f-208" style="edgeStyle=orthogonalEdgeStyle;rounded=0;orthogonalLoop=1;jettySize=auto;html=1;exitX=1;exitY=0.75;exitDx=0;exitDy=0;entryX=0;entryY=0.5;entryDx=0;entryDy=0;strokeColor=#82B366;" edge="1" parent="1" source="6FpRVTVLV7hesDdhC65f-163">
          <mxGeometry relative="1" as="geometry">
            <mxPoint x="1458.5" y="1145.5" as="sourcePoint" />
            <mxPoint x="1578" y="1145.5" as="targetPoint" />
          </mxGeometry>
        </mxCell>
        <mxCell id="6FpRVTVLV7hesDdhC65f-209" value="&lt;span style=&quot;color: rgb(130, 179, 102);&quot;&gt;&lt;font style=&quot;font-size: 14px;&quot;&gt;build reserve&lt;/font&gt;&lt;/span&gt;" style="edgeLabel;html=1;align=center;verticalAlign=middle;resizable=0;points=[];" vertex="1" connectable="0" parent="6FpRVTVLV7hesDdhC65f-208">
          <mxGeometry x="-0.1464" relative="1" as="geometry">
            <mxPoint x="10" y="1" as="offset" />
          </mxGeometry>
        </mxCell>
        <mxCell id="6FpRVTVLV7hesDdhC65f-212" style="edgeStyle=orthogonalEdgeStyle;rounded=0;orthogonalLoop=1;jettySize=auto;html=1;exitX=0.75;exitY=1;exitDx=0;exitDy=0;entryX=0;entryY=0.5;entryDx=0;entryDy=0;strokeColor=#B85450;" edge="1" parent="1" source="6FpRVTVLV7hesDdhC65f-163" target="6FpRVTVLV7hesDdhC65f-165">
          <mxGeometry relative="1" as="geometry">
            <Array as="points">
              <mxPoint x="1380" y="1368" />
              <mxPoint x="1822" y="1368" />
            </Array>
          </mxGeometry>
        </mxCell>
        <mxCell id="6FpRVTVLV7hesDdhC65f-214" value="&lt;font style=&quot;font-size: 14px;&quot; color=&quot;#b85450&quot;&gt;send rewards&lt;/font&gt;" style="edgeLabel;html=1;align=center;verticalAlign=middle;resizable=0;points=[];" vertex="1" connectable="0" parent="6FpRVTVLV7hesDdhC65f-212">
          <mxGeometry x="0.1611" y="1" relative="1" as="geometry">
            <mxPoint x="71" as="offset" />
          </mxGeometry>
        </mxCell>
        <mxCell id="6FpRVTVLV7hesDdhC65f-163" value="&lt;div style=&quot;text-wrap-mode: nowrap;&quot;&gt;&lt;font style=&quot;font-size: 15px;&quot; face=&quot;Helvetica&quot;&gt;Rewards Pool&lt;/font&gt;&lt;/div&gt;" style="html=1;dropTarget=0;whiteSpace=wrap;strokeWidth=0.5;" vertex="1" parent="1">
          <mxGeometry x="1305.5" y="1118" width="99" height="35" as="geometry" />
        </mxCell>
        <mxCell id="6FpRVTVLV7hesDdhC65f-164" value="&lt;div style=&quot;text-wrap-mode: nowrap;&quot;&gt;&lt;font style=&quot;font-size: 15px;&quot;&gt;Launchpad&lt;/font&gt;&lt;/div&gt;" style="html=1;dropTarget=0;whiteSpace=wrap;strokeWidth=0.5;" vertex="1" parent="1">
          <mxGeometry x="1578" y="929" width="99" height="35" as="geometry" />
        </mxCell>
        <mxCell id="6FpRVTVLV7hesDdhC65f-165" value="&lt;span style=&quot;font-size: 15px; text-wrap-mode: nowrap; background-color: transparent; color: light-dark(rgb(0, 0, 0), rgb(255, 255, 255));&quot;&gt;Users&lt;/span&gt;" style="ellipse;whiteSpace=wrap;html=1;strokeWidth=0.5;" vertex="1" parent="1">
          <mxGeometry x="1822" y="1350" width="99" height="35" as="geometry" />
        </mxCell>
        <mxCell id="6FpRVTVLV7hesDdhC65f-166" value="&lt;div style=&quot;text-wrap-mode: nowrap;&quot;&gt;&lt;font style=&quot;font-size: 15px;&quot; face=&quot;Helvetica&quot;&gt;Learner&lt;/font&gt;&lt;/div&gt;" style="ellipse;whiteSpace=wrap;html=1;strokeWidth=0.5;" vertex="1" parent="1">
          <mxGeometry x="1114" y="1118" width="99" height="35" as="geometry" />
        </mxCell>
        <mxCell id="6FpRVTVLV7hesDdhC65f-167" value="&lt;span style=&quot;text-wrap-mode: nowrap;&quot;&gt;&lt;font style=&quot;font-size: 15px;&quot;&gt;Developers&lt;/font&gt;&lt;/span&gt;" style="ellipse;whiteSpace=wrap;html=1;strokeWidth=0.5;" vertex="1" parent="1">
          <mxGeometry x="1825" y="929" width="99" height="35" as="geometry" />
        </mxCell>
        <mxCell id="6FpRVTVLV7hesDdhC65f-168" value="&lt;span style=&quot;text-wrap-mode: nowrap;&quot;&gt;&lt;font style=&quot;font-size: 15px;&quot;&gt;Investors&lt;/font&gt;&lt;/span&gt;" style="ellipse;whiteSpace=wrap;html=1;strokeWidth=0.5;" vertex="1" parent="1">
          <mxGeometry x="1302" y="929" width="99" height="35" as="geometry" />
        </mxCell>
        <mxCell id="6FpRVTVLV7hesDdhC65f-169" style="edgeStyle=orthogonalEdgeStyle;rounded=0;orthogonalLoop=1;jettySize=auto;html=1;strokeColor=#82B366;entryX=0.545;entryY=-0.006;entryDx=0;entryDy=0;entryPerimeter=0;" edge="1" parent="1" source="6FpRVTVLV7hesDdhC65f-167" target="6FpRVTVLV7hesDdhC65f-158">
          <mxGeometry relative="1" as="geometry">
            <Array as="points">
              <mxPoint x="1874" y="1048" />
              <mxPoint x="1875" y="1048" />
              <mxPoint x="1875" y="1118" />
            </Array>
            <mxPoint x="1876" y="1115" as="targetPoint" />
          </mxGeometry>
        </mxCell>
        <mxCell id="6FpRVTVLV7hesDdhC65f-170" value="&lt;span style=&quot;color: rgb(130, 179, 102);&quot;&gt;&lt;font style=&quot;font-size: 14px;&quot;&gt;pay&amp;nbsp;&lt;/font&gt;&lt;/span&gt;&lt;div style=&quot;color: rgb(130, 179, 102);&quot;&gt;&lt;font style=&quot;font-size: 14px;&quot;&gt;deployment&amp;nbsp;&lt;span style=&quot;background-color: light-dark(#ffffff, var(--ge-dark-color, #121212)); color: light-dark(rgb(130, 179, 102), rgb(68, 110, 44));&quot;&gt;fees&lt;/span&gt;&lt;/font&gt;&lt;/div&gt;" style="edgeLabel;html=1;align=center;verticalAlign=middle;resizable=0;points=[];" vertex="1" connectable="0" parent="6FpRVTVLV7hesDdhC65f-169">
          <mxGeometry x="-0.0713" y="1" relative="1" as="geometry">
            <mxPoint x="-3" y="5" as="offset" />
          </mxGeometry>
        </mxCell>
        <mxCell id="6FpRVTVLV7hesDdhC65f-171" value="&lt;font style=&quot;color: rgb(130, 179, 102); font-weight: normal;&quot;&gt;Inflow&lt;/font&gt;" style="text;html=1;align=left;verticalAlign=middle;whiteSpace=wrap;rounded=0;strokeColor=none;fontSize=14;container=0;fontStyle=1" vertex="1" parent="1">
          <mxGeometry x="1255.0500000000002" y="1330.5" width="28.9" height="12" as="geometry" />
        </mxCell>
        <mxCell id="6FpRVTVLV7hesDdhC65f-172" style="edgeStyle=orthogonalEdgeStyle;rounded=0;orthogonalLoop=1;jettySize=auto;html=1;entryX=0.699;entryY=-0.003;entryDx=0;entryDy=0;entryPerimeter=0;strokeColor=#B85450;strokeWidth=0.5;" edge="1" parent="1">
          <mxGeometry relative="1" as="geometry">
            <mxPoint x="1243" y="1371.58" as="sourcePoint" />
            <mxPoint x="1229" y="1359.2799999999997" as="targetPoint" />
            <Array as="points">
              <mxPoint x="1243" y="1359.58" />
            </Array>
          </mxGeometry>
        </mxCell>
        <mxCell id="6FpRVTVLV7hesDdhC65f-173" value="&lt;font style=&quot;color: rgb(184, 84, 80);&quot;&gt;Outflow&lt;/font&gt;" style="text;html=1;align=left;verticalAlign=middle;whiteSpace=wrap;rounded=0;strokeColor=none;fontSize=14;container=0;fontColor=#FFB570;" vertex="1" parent="1">
          <mxGeometry x="1252" y="1356.93" width="35" height="14" as="geometry" />
        </mxCell>
        <mxCell id="6FpRVTVLV7hesDdhC65f-174" value="" style="ellipse;whiteSpace=wrap;html=1;strokeWidth=0.5;" vertex="1" parent="1">
          <mxGeometry x="1121" y="1356.9300000000003" width="22" height="13" as="geometry" />
        </mxCell>
        <mxCell id="6FpRVTVLV7hesDdhC65f-175" value="" style="html=1;dropTarget=0;whiteSpace=wrap;strokeWidth=0.5;" vertex="1" parent="1">
          <mxGeometry x="1121.21" y="1330.5" width="21.58" height="11" as="geometry" />
        </mxCell>
        <mxCell id="6FpRVTVLV7hesDdhC65f-176" value="&lt;span style=&quot;text-wrap-mode: wrap;&quot;&gt;&lt;font&gt;Component&lt;/font&gt;&lt;/span&gt;" style="text;html=1;align=center;verticalAlign=middle;resizable=0;points=[];autosize=1;strokeColor=none;fillColor=none;fontSize=14;" vertex="1" parent="1">
          <mxGeometry x="1140.13" y="1322" width="90" height="29" as="geometry" />
        </mxCell>
        <mxCell id="6FpRVTVLV7hesDdhC65f-177" value="&lt;span style=&quot;text-wrap-mode: wrap;&quot;&gt;&lt;font&gt;Entity&lt;/font&gt;&lt;/span&gt;" style="text;html=1;align=center;verticalAlign=middle;resizable=0;points=[];autosize=1;strokeColor=none;fillColor=none;fontSize=14;" vertex="1" parent="1">
          <mxGeometry x="1142.58" y="1349.4300000000003" width="53" height="29" as="geometry" />
        </mxCell>
        <mxCell id="6FpRVTVLV7hesDdhC65f-178" style="edgeStyle=orthogonalEdgeStyle;rounded=0;orthogonalLoop=1;jettySize=auto;html=1;entryX=0.699;entryY=-0.003;entryDx=0;entryDy=0;entryPerimeter=0;strokeColor=#82B366;strokeWidth=0.5;" edge="1" parent="1">
          <mxGeometry relative="1" as="geometry">
            <mxPoint x="1242" y="1344.17" as="sourcePoint" />
            <mxPoint x="1228" y="1331.87" as="targetPoint" />
            <Array as="points">
              <mxPoint x="1242" y="1332.17" />
            </Array>
          </mxGeometry>
        </mxCell>
        <mxCell id="6FpRVTVLV7hesDdhC65f-225" style="edgeStyle=orthogonalEdgeStyle;rounded=0;orthogonalLoop=1;jettySize=auto;html=1;entryX=0.25;entryY=0;entryDx=0;entryDy=0;strokeColor=#82B366;exitX=1;exitY=0.539;exitDx=0;exitDy=0;exitPerimeter=0;" edge="1" parent="1" source="6FpRVTVLV7hesDdhC65f-202" target="6FpRVTVLV7hesDdhC65f-164">
          <mxGeometry relative="1" as="geometry">
            <Array as="points">
              <mxPoint x="1493" y="885" />
              <mxPoint x="1603" y="884" />
            </Array>
          </mxGeometry>
        </mxCell>
        <mxCell id="6FpRVTVLV7hesDdhC65f-226" value="&lt;span style=&quot;color: rgb(130, 179, 102);&quot;&gt;&lt;font style=&quot;font-size: 14px;&quot;&gt;provide liduidity&lt;/font&gt;&lt;/span&gt;" style="edgeLabel;html=1;align=center;verticalAlign=middle;resizable=0;points=[];" vertex="1" connectable="0" parent="6FpRVTVLV7hesDdhC65f-225">
          <mxGeometry x="-0.1816" y="2" relative="1" as="geometry">
            <mxPoint x="-3" y="1" as="offset" />
          </mxGeometry>
        </mxCell>
        <mxCell id="6FpRVTVLV7hesDdhC65f-202" value="&lt;div style=&quot;text-wrap-mode: nowrap;&quot;&gt;&lt;font style=&quot;font-size: 15px;&quot; face=&quot;Helvetica&quot;&gt;Liquidity&lt;/font&gt;&lt;/div&gt;&lt;div style=&quot;text-wrap-mode: nowrap;&quot;&gt;&lt;font style=&quot;font-size: 15px;&quot; face=&quot;Helvetica&quot;&gt;Provider&lt;/font&gt;&lt;/div&gt;" style="ellipse;whiteSpace=wrap;html=1;strokeWidth=0.5;" vertex="1" parent="1">
          <mxGeometry x="1355" y="866" width="99" height="35" as="geometry" />
        </mxCell>
        <mxCell id="6FpRVTVLV7hesDdhC65f-203" style="edgeStyle=orthogonalEdgeStyle;rounded=0;orthogonalLoop=1;jettySize=auto;html=1;entryX=0;entryY=0.75;entryDx=0;entryDy=0;exitX=0.954;exitY=0.732;exitDx=0;exitDy=0;exitPerimeter=0;strokeColor=#B85450;endArrow=none;startFill=1;startArrow=classic;" edge="1" parent="1" source="6FpRVTVLV7hesDdhC65f-168" target="6FpRVTVLV7hesDdhC65f-164">
          <mxGeometry relative="1" as="geometry">
            <mxPoint x="1465.0000000000002" y="955.0019999999998" as="sourcePoint" />
            <mxPoint x="1566.52" y="955.13" as="targetPoint" />
          </mxGeometry>
        </mxCell>
        <mxCell id="6FpRVTVLV7hesDdhC65f-204" value="&lt;font style=&quot;font-size: 14px;&quot;&gt;send&amp;nbsp;&lt;span style=&quot;background-color: light-dark(#ffffff, var(--ge-dark-color, #121212)); color: light-dark(rgb(184, 84, 80), rgb(215, 129, 126));&quot;&gt;allocation&lt;/span&gt;&lt;/font&gt;" style="edgeLabel;html=1;align=center;verticalAlign=middle;resizable=0;points=[];fontColor=#B85450;" vertex="1" connectable="0" parent="6FpRVTVLV7hesDdhC65f-203">
          <mxGeometry x="0.0721" relative="1" as="geometry">
            <mxPoint x="-4" y="-1" as="offset" />
          </mxGeometry>
        </mxCell>
        <mxCell id="6FpRVTVLV7hesDdhC65f-205" value="&lt;div style=&quot;text-wrap-mode: nowrap;&quot;&gt;&lt;font style=&quot;font-size: 15px;&quot; face=&quot;Helvetica&quot;&gt;Burn Contract&lt;/font&gt;&lt;/div&gt;" style="html=1;dropTarget=0;whiteSpace=wrap;strokeWidth=0.5;" vertex="1" parent="1">
          <mxGeometry x="2023" y="1116" width="99" height="35" as="geometry" />
        </mxCell>
        <mxCell id="6FpRVTVLV7hesDdhC65f-217" style="edgeStyle=orthogonalEdgeStyle;rounded=0;orthogonalLoop=1;jettySize=auto;html=1;entryX=0.5;entryY=1;entryDx=0;entryDy=0;strokeColor=#82B366;" edge="1" parent="1" source="6FpRVTVLV7hesDdhC65f-207" target="6FpRVTVLV7hesDdhC65f-161">
          <mxGeometry relative="1" as="geometry" />
        </mxCell>
        <mxCell id="6FpRVTVLV7hesDdhC65f-218" value="&lt;font style=&quot;font-size: 14px;&quot; color=&quot;#82b366&quot;&gt;periodically&amp;nbsp;&lt;/font&gt;&lt;div&gt;&lt;font style=&quot;font-size: 14px;&quot; color=&quot;#82b366&quot;&gt;release tokens&lt;/font&gt;&lt;/div&gt;" style="edgeLabel;html=1;align=center;verticalAlign=middle;resizable=0;points=[];" vertex="1" connectable="0" parent="6FpRVTVLV7hesDdhC65f-217">
          <mxGeometry x="0.0879" y="3" relative="1" as="geometry">
            <mxPoint as="offset" />
          </mxGeometry>
        </mxCell>
        <mxCell id="6FpRVTVLV7hesDdhC65f-207" value="&lt;div style=&quot;text-wrap-mode: nowrap;&quot;&gt;&lt;font style=&quot;font-size: 15px;&quot;&gt;Token Unlock&lt;/font&gt;&lt;/div&gt;" style="html=1;dropTarget=0;whiteSpace=wrap;strokeWidth=0.5;" vertex="1" parent="1">
          <mxGeometry x="1578" y="1244" width="99" height="35" as="geometry" />
        </mxCell>
        <mxCell id="6FpRVTVLV7hesDdhC65f-215" style="edgeStyle=orthogonalEdgeStyle;rounded=0;orthogonalLoop=1;jettySize=auto;html=1;strokeColor=#B85450;entryX=0;entryY=0.75;entryDx=0;entryDy=0;" edge="1" parent="1">
          <mxGeometry relative="1" as="geometry">
            <mxPoint x="1921" y="1136.9999999999998" as="sourcePoint" />
            <mxPoint x="2023" y="1137.25" as="targetPoint" />
            <Array as="points">
              <mxPoint x="1947" y="1137" />
            </Array>
          </mxGeometry>
        </mxCell>
        <mxCell id="6FpRVTVLV7hesDdhC65f-216" value="&lt;font style=&quot;font-size: 14px;&quot;&gt;&lt;span&gt;&lt;font style=&quot;color: rgb(184, 84, 80);&quot;&gt;burn&amp;nbsp;&lt;/font&gt;&lt;/span&gt;&lt;span style=&quot;color: light-dark(rgb(184, 84, 80), rgb(215, 129, 126)); background-color: light-dark(#ffffff, var(--ge-dark-color, #121212));&quot;&gt;tokens&lt;/span&gt;&lt;/font&gt;" style="edgeLabel;html=1;align=center;verticalAlign=middle;resizable=0;points=[];" vertex="1" connectable="0" parent="6FpRVTVLV7hesDdhC65f-215">
          <mxGeometry x="-0.1504" y="1" relative="1" as="geometry">
            <mxPoint x="4" y="1" as="offset" />
          </mxGeometry>
        </mxCell>
        <mxCell id="6FpRVTVLV7hesDdhC65f-227" style="edgeStyle=orthogonalEdgeStyle;rounded=0;orthogonalLoop=1;jettySize=auto;html=1;exitX=0;exitY=0.25;exitDx=0;exitDy=0;entryX=0.548;entryY=-0.014;entryDx=0;entryDy=0;entryPerimeter=0;strokeColor=#B85450;" edge="1" parent="1" source="6FpRVTVLV7hesDdhC65f-163" target="6FpRVTVLV7hesDdhC65f-167">
          <mxGeometry relative="1" as="geometry">
            <Array as="points">
              <mxPoint x="1266" y="1127" />
              <mxPoint x="1266" y="845" />
              <mxPoint x="1879" y="845" />
            </Array>
          </mxGeometry>
        </mxCell>
        <mxCell id="6FpRVTVLV7hesDdhC65f-228" value="&lt;span style=&quot;color: rgb(184, 84, 80);&quot;&gt;&lt;font style=&quot;font-size: 14px;&quot;&gt;send rewards&lt;/font&gt;&lt;/span&gt;" style="edgeLabel;html=1;align=center;verticalAlign=middle;resizable=0;points=[];" vertex="1" connectable="0" parent="6FpRVTVLV7hesDdhC65f-227">
          <mxGeometry x="0.2431" y="-4" relative="1" as="geometry">
            <mxPoint x="-2" y="-3" as="offset" />
          </mxGeometry>
        </mxCell>
        <mxCell id="6FpRVTVLV7hesDdhC65f-136" style="edgeStyle=orthogonalEdgeStyle;rounded=0;orthogonalLoop=1;jettySize=auto;html=1;entryX=0.993;entryY=0.491;entryDx=0;entryDy=0;entryPerimeter=0;exitX=-0.005;exitY=0.492;exitDx=0;exitDy=0;exitPerimeter=0;strokeColor=#B85450;" edge="1" parent="1" source="6FpRVTVLV7hesDdhC65f-163" target="6FpRVTVLV7hesDdhC65f-166">
          <mxGeometry relative="1" as="geometry">
            <mxPoint x="1311" y="1142" as="sourcePoint" />
            <mxPoint x="1213.48" y="1143.136" as="targetPoint" />
            <Array as="points" />
          </mxGeometry>
        </mxCell>
        <mxCell id="6FpRVTVLV7hesDdhC65f-137" value="&lt;font style=&quot;font-size: 14px;&quot;&gt;send&amp;nbsp;&lt;/font&gt;&lt;div&gt;&lt;font style=&quot;font-size: 14px;&quot;&gt;rewards&lt;/font&gt;&lt;/div&gt;" style="edgeLabel;html=1;align=center;verticalAlign=middle;resizable=0;points=[];fontColor=#B85450;" vertex="1" connectable="0" parent="6FpRVTVLV7hesDdhC65f-136">
          <mxGeometry x="0.2558" relative="1" as="geometry">
            <mxPoint x="16" as="offset" />
          </mxGeometry>
        </mxCell>
      </root>
    </mxGraphModel>
  </diagram>
  <diagram id="Ty_6-a5Gsz8yp4X0niPp" name="revenue">
    <mxGraphModel dx="3912" dy="1298" grid="0" gridSize="10" guides="1" tooltips="1" connect="1" arrows="1" fold="1" page="1" pageScale="1" pageWidth="827" pageHeight="1169" math="0" shadow="0">
      <root>
        <mxCell id="0" />
        <mxCell id="1" parent="0" />
        <mxCell id="QOQ_LcpOZV_vqaiKd6so-1" value="" style="rounded=0;whiteSpace=wrap;html=1;" parent="1" vertex="1">
          <mxGeometry x="278" y="235" width="44" height="206" as="geometry" />
        </mxCell>
        <mxCell id="OYrlaH3CAUdbBgBRBPtn-3" value="" style="group" parent="1" vertex="1" connectable="0">
          <mxGeometry x="267" y="308" width="63" height="66" as="geometry" />
        </mxCell>
        <mxCell id="OYrlaH3CAUdbBgBRBPtn-1" value="&lt;font face=&quot;Garamond&quot;&gt;EASYA&lt;/font&gt;&lt;div&gt;&lt;font face=&quot;Garamond&quot;&gt;Protocol&lt;/font&gt;&lt;/div&gt;" style="outlineConnect=0;dashed=0;verticalLabelPosition=bottom;verticalAlign=top;align=center;html=1;shape=mxgraph.aws3.http_protocol;fillColor=#FBE3E2;gradientColor=none;" parent="OYrlaH3CAUdbBgBRBPtn-3" vertex="1">
          <mxGeometry width="63" height="66" as="geometry" />
        </mxCell>
        <mxCell id="OYrlaH3CAUdbBgBRBPtn-2" value="&lt;font face=&quot;Garamond&quot;&gt;EASYA&lt;/font&gt;" style="rounded=0;whiteSpace=wrap;html=1;fillColor=#FBE3E2;strokeColor=none;" parent="OYrlaH3CAUdbBgBRBPtn-3" vertex="1">
          <mxGeometry x="22" y="44" width="41" height="22" as="geometry" />
        </mxCell>
        <mxCell id="Yes8OjJHuxwn8IQmejZY-1" value="" style="outlineConnect=0;dashed=0;verticalLabelPosition=bottom;verticalAlign=top;align=center;html=1;shape=mxgraph.aws3.user;fillColor=#ffe6cc;rotation=0;strokeColor=#d79b00;container=0;" parent="1" vertex="1">
          <mxGeometry x="339.09131743102114" y="140.6464426735588" width="54.165899586477586" height="65.41029506784409" as="geometry" />
        </mxCell>
        <mxCell id="Yes8OjJHuxwn8IQmejZY-2" value="" style="points=[[0.13,0.02,0],[0.5,0,0],[0.87,0.02,0],[0.885,0.4,0],[0.985,0.985,0],[0.5,1,0],[0.015,0.985,0],[0.115,0.4,0]];verticalLabelPosition=bottom;sketch=0;html=1;verticalAlign=top;aspect=fixed;align=center;pointerEvents=1;shape=mxgraph.cisco19.laptop;fillColor=#005073;strokeColor=none;container=0;" parent="1" vertex="1">
          <mxGeometry x="339.4754727472373" y="173.9223418766603" width="49.895900638954714" height="34.927130447268304" as="geometry" />
        </mxCell>
        <mxCell id="Yes8OjJHuxwn8IQmejZY-3" value="" style="outlineConnect=0;dashed=0;verticalLabelPosition=bottom;verticalAlign=top;align=center;html=1;shape=mxgraph.aws3.user;fillColor=#ffe6cc;rotation=0;strokeColor=#d79b00;container=0;" parent="1" vertex="1">
          <mxGeometry x="406.51057542695594" y="140.6464426735588" width="54.165899586477586" height="65.41029506784409" as="geometry" />
        </mxCell>
        <mxCell id="Yes8OjJHuxwn8IQmejZY-4" value="" style="points=[[0.13,0.02,0],[0.5,0,0],[0.87,0.02,0],[0.885,0.4,0],[0.985,0.985,0],[0.5,1,0],[0.015,0.985,0],[0.115,0.4,0]];verticalLabelPosition=bottom;sketch=0;html=1;verticalAlign=top;aspect=fixed;align=center;pointerEvents=1;shape=mxgraph.cisco19.laptop;fillColor=#005073;strokeColor=none;container=0;" parent="1" vertex="1">
          <mxGeometry x="406.8947307431722" y="173.9223418766603" width="49.895900638954714" height="34.927130447268304" as="geometry" />
        </mxCell>
        <mxCell id="Yes8OjJHuxwn8IQmejZY-5" value="" style="outlineConnect=0;dashed=0;verticalLabelPosition=bottom;verticalAlign=top;align=center;html=1;shape=mxgraph.aws3.user;fillColor=#ffe6cc;rotation=0;strokeColor=#d79b00;container=0;" parent="1" vertex="1">
          <mxGeometry x="339.09131743102114" y="66.70000000000005" width="54.165899586477586" height="65.41029506784409" as="geometry" />
        </mxCell>
        <mxCell id="Yes8OjJHuxwn8IQmejZY-6" value="" style="points=[[0.13,0.02,0],[0.5,0,0],[0.87,0.02,0],[0.885,0.4,0],[0.985,0.985,0],[0.5,1,0],[0.015,0.985,0],[0.115,0.4,0]];verticalLabelPosition=bottom;sketch=0;html=1;verticalAlign=top;aspect=fixed;align=center;pointerEvents=1;shape=mxgraph.cisco19.laptop;fillColor=#005073;strokeColor=none;container=0;" parent="1" vertex="1">
          <mxGeometry x="339.4754727472373" y="98.5400459473043" width="49.895900638954714" height="34.927130447268304" as="geometry" />
        </mxCell>
        <mxCell id="Yes8OjJHuxwn8IQmejZY-7" value="" style="outlineConnect=0;dashed=0;verticalLabelPosition=bottom;verticalAlign=top;align=center;html=1;shape=mxgraph.aws3.user;fillColor=#ffe6cc;rotation=0;strokeColor=#d79b00;container=0;" parent="1" vertex="1">
          <mxGeometry x="406.1264201107398" y="66.70000000000005" width="54.165899586477586" height="65.41029506784409" as="geometry" />
        </mxCell>
        <mxCell id="Yes8OjJHuxwn8IQmejZY-8" value="" style="points=[[0.13,0.02,0],[0.5,0,0],[0.87,0.02,0],[0.885,0.4,0],[0.985,0.985,0],[0.5,1,0],[0.015,0.985,0],[0.115,0.4,0]];verticalLabelPosition=bottom;sketch=0;html=1;verticalAlign=top;aspect=fixed;align=center;pointerEvents=1;shape=mxgraph.cisco19.laptop;fillColor=#005073;strokeColor=none;container=0;" parent="1" vertex="1">
          <mxGeometry x="406.51057542695594" y="98.5400459473043" width="49.895900638954714" height="34.927130447268304" as="geometry" />
        </mxCell>
        <mxCell id="Yes8OjJHuxwn8IQmejZY-9" value="" style="strokeWidth=1.5;html=1;shape=mxgraph.flowchart.annotation_1;align=left;pointerEvents=1;rotation=-90;strokeColor=#D79B00;container=0;" parent="1" vertex="1">
          <mxGeometry x="277.2" y="26" width="50.17" height="334.54" as="geometry" />
        </mxCell>
        <mxCell id="Yes8OjJHuxwn8IQmejZY-10" value="" style="outlineConnect=0;dashed=0;verticalLabelPosition=bottom;verticalAlign=top;align=center;html=1;shape=mxgraph.aws3.user;fillColor=#ffe6cc;rotation=0;strokeColor=#d79b00;container=0;" parent="1" vertex="1">
          <mxGeometry x="208.9625456159614" y="140.6464426735588" width="54.165899586477586" height="65.41029506784409" as="geometry" />
        </mxCell>
        <mxCell id="Yes8OjJHuxwn8IQmejZY-11" value="" style="points=[[0.13,0.02,0],[0.5,0,0],[0.87,0.02,0],[0.885,0.4,0],[0.985,0.985,0],[0.5,1,0],[0.015,0.985,0],[0.115,0.4,0]];verticalLabelPosition=bottom;sketch=0;html=1;verticalAlign=top;aspect=fixed;align=center;pointerEvents=1;shape=mxgraph.cisco19.laptop;fillColor=#005073;strokeColor=none;container=0;" parent="1" vertex="1">
          <mxGeometry x="209.34670093217755" y="173.9223418766603" width="49.895900638954714" height="34.927130447268304" as="geometry" />
        </mxCell>
        <mxCell id="Yes8OjJHuxwn8IQmejZY-12" value="" style="outlineConnect=0;dashed=0;verticalLabelPosition=bottom;verticalAlign=top;align=center;html=1;shape=mxgraph.aws3.user;fillColor=#ffe6cc;rotation=0;strokeColor=#d79b00;container=0;" parent="1" vertex="1">
          <mxGeometry x="276.3818036118963" y="140.6464426735588" width="54.165899586477586" height="65.41029506784409" as="geometry" />
        </mxCell>
        <mxCell id="Yes8OjJHuxwn8IQmejZY-13" value="" style="points=[[0.13,0.02,0],[0.5,0,0],[0.87,0.02,0],[0.885,0.4,0],[0.985,0.985,0],[0.5,1,0],[0.015,0.985,0],[0.115,0.4,0]];verticalLabelPosition=bottom;sketch=0;html=1;verticalAlign=top;aspect=fixed;align=center;pointerEvents=1;shape=mxgraph.cisco19.laptop;fillColor=#005073;strokeColor=none;container=0;" parent="1" vertex="1">
          <mxGeometry x="276.76595892811247" y="173.9223418766603" width="49.895900638954714" height="34.927130447268304" as="geometry" />
        </mxCell>
        <mxCell id="Yes8OjJHuxwn8IQmejZY-14" value="" style="outlineConnect=0;dashed=0;verticalLabelPosition=bottom;verticalAlign=top;align=center;html=1;shape=mxgraph.aws3.user;fillColor=#ffe6cc;rotation=0;strokeColor=#d79b00;container=0;" parent="1" vertex="1">
          <mxGeometry x="208.9625456159614" y="66.70000000000005" width="54.165899586477586" height="65.41029506784409" as="geometry" />
        </mxCell>
        <mxCell id="Yes8OjJHuxwn8IQmejZY-15" value="" style="points=[[0.13,0.02,0],[0.5,0,0],[0.87,0.02,0],[0.885,0.4,0],[0.985,0.985,0],[0.5,1,0],[0.015,0.985,0],[0.115,0.4,0]];verticalLabelPosition=bottom;sketch=0;html=1;verticalAlign=top;aspect=fixed;align=center;pointerEvents=1;shape=mxgraph.cisco19.laptop;fillColor=#005073;strokeColor=none;container=0;" parent="1" vertex="1">
          <mxGeometry x="209.34670093217755" y="98.5400459473043" width="49.895900638954714" height="34.927130447268304" as="geometry" />
        </mxCell>
        <mxCell id="Yes8OjJHuxwn8IQmejZY-16" value="" style="outlineConnect=0;dashed=0;verticalLabelPosition=bottom;verticalAlign=top;align=center;html=1;shape=mxgraph.aws3.user;fillColor=#ffe6cc;rotation=0;strokeColor=#d79b00;container=0;" parent="1" vertex="1">
          <mxGeometry x="275.99764829568016" y="66.70000000000005" width="54.165899586477586" height="65.41029506784409" as="geometry" />
        </mxCell>
        <mxCell id="Yes8OjJHuxwn8IQmejZY-17" value="" style="points=[[0.13,0.02,0],[0.5,0,0],[0.87,0.02,0],[0.885,0.4,0],[0.985,0.985,0],[0.5,1,0],[0.015,0.985,0],[0.115,0.4,0]];verticalLabelPosition=bottom;sketch=0;html=1;verticalAlign=top;aspect=fixed;align=center;pointerEvents=1;shape=mxgraph.cisco19.laptop;fillColor=#005073;strokeColor=none;container=0;" parent="1" vertex="1">
          <mxGeometry x="276.3818036118963" y="98.5400459473043" width="49.895900638954714" height="34.927130447268304" as="geometry" />
        </mxCell>
        <mxCell id="Yes8OjJHuxwn8IQmejZY-18" value="" style="outlineConnect=0;dashed=0;verticalLabelPosition=bottom;verticalAlign=top;align=center;html=1;shape=mxgraph.aws3.user;fillColor=#ffe6cc;rotation=0;strokeColor=#d79b00;container=0;" parent="1" vertex="1">
          <mxGeometry x="145.00068546597197" y="140.6464426735588" width="54.165899586477586" height="65.41029506784409" as="geometry" />
        </mxCell>
        <mxCell id="Yes8OjJHuxwn8IQmejZY-19" value="" style="points=[[0.13,0.02,0],[0.5,0,0],[0.87,0.02,0],[0.885,0.4,0],[0.985,0.985,0],[0.5,1,0],[0.015,0.985,0],[0.115,0.4,0]];verticalLabelPosition=bottom;sketch=0;html=1;verticalAlign=top;aspect=fixed;align=center;pointerEvents=1;shape=mxgraph.cisco19.laptop;fillColor=#005073;strokeColor=none;container=0;" parent="1" vertex="1">
          <mxGeometry x="145.38484078218812" y="173.9223418766603" width="49.895900638954714" height="34.927130447268304" as="geometry" />
        </mxCell>
        <mxCell id="Yes8OjJHuxwn8IQmejZY-20" value="" style="outlineConnect=0;dashed=0;verticalLabelPosition=bottom;verticalAlign=top;align=center;html=1;shape=mxgraph.aws3.user;fillColor=#ffe6cc;rotation=0;strokeColor=#d79b00;container=0;" parent="1" vertex="1">
          <mxGeometry x="145.00068546597197" y="66.70000000000005" width="54.165899586477586" height="65.41029506784409" as="geometry" />
        </mxCell>
        <mxCell id="Yes8OjJHuxwn8IQmejZY-21" value="" style="points=[[0.13,0.02,0],[0.5,0,0],[0.87,0.02,0],[0.885,0.4,0],[0.985,0.985,0],[0.5,1,0],[0.015,0.985,0],[0.115,0.4,0]];verticalLabelPosition=bottom;sketch=0;html=1;verticalAlign=top;aspect=fixed;align=center;pointerEvents=1;shape=mxgraph.cisco19.laptop;fillColor=#005073;strokeColor=none;container=0;" parent="1" vertex="1">
          <mxGeometry x="145.38484078218812" y="98.5400459473043" width="49.895900638954714" height="34.927130447268304" as="geometry" />
        </mxCell>
        <mxCell id="eX5YmmcUsp54zmVjiWnX-1" value="" style="group;fillColor=#A88C8B;strokeColor=#A88C8B;" parent="1" vertex="1" connectable="0">
          <mxGeometry x="263" y="315" width="63" height="66" as="geometry" />
        </mxCell>
        <mxCell id="eX5YmmcUsp54zmVjiWnX-2" value="" style="outlineConnect=0;dashed=0;verticalLabelPosition=bottom;verticalAlign=top;align=center;html=1;shape=mxgraph.aws3.http_protocol;fillColor=#A88C8B;gradientColor=none;" parent="eX5YmmcUsp54zmVjiWnX-1" vertex="1">
          <mxGeometry x="-12" width="63" height="66" as="geometry" />
        </mxCell>
        <mxCell id="eX5YmmcUsp54zmVjiWnX-3" value="" style="group" parent="1" vertex="1" connectable="0">
          <mxGeometry x="267" y="308" width="63" height="75" as="geometry" />
        </mxCell>
        <mxCell id="eX5YmmcUsp54zmVjiWnX-4" value="&lt;font face=&quot;Garamond&quot;&gt;EASYA&lt;/font&gt;&lt;div&gt;&lt;font face=&quot;Garamond&quot;&gt;Protocol&lt;/font&gt;&lt;/div&gt;" style="outlineConnect=0;dashed=0;verticalLabelPosition=bottom;verticalAlign=top;align=center;html=1;shape=mxgraph.aws3.http_protocol;fillColor=#FBE3E2;gradientColor=none;" parent="eX5YmmcUsp54zmVjiWnX-3" vertex="1">
          <mxGeometry width="63" height="66" as="geometry" />
        </mxCell>
        <mxCell id="eX5YmmcUsp54zmVjiWnX-5" value="&lt;font face=&quot;Garamond&quot;&gt;EASYA&lt;/font&gt;" style="rounded=0;whiteSpace=wrap;html=1;fillColor=#FBE3E2;strokeColor=none;" parent="eX5YmmcUsp54zmVjiWnX-3" vertex="1">
          <mxGeometry x="11" y="44" width="52" height="31" as="geometry" />
        </mxCell>
        <mxCell id="eX5YmmcUsp54zmVjiWnX-6" value="&lt;font style=&quot;text-wrap-mode: nowrap;&quot; face=&quot;Garamond&quot;&gt;EASYA&lt;/font&gt;&lt;div style=&quot;text-wrap-mode: nowrap;&quot;&gt;&lt;font face=&quot;Garamond&quot;&gt;Protocol&lt;/font&gt;&lt;/div&gt;" style="shape=cube;whiteSpace=wrap;html=1;boundedLbl=1;backgroundOutline=1;darkOpacity=0.05;darkOpacity2=0.1;" parent="1" vertex="1">
          <mxGeometry x="495" y="322" width="120" height="56" as="geometry" />
        </mxCell>
        <mxCell id="s_7uNWrEDpn2mi_4LuEL-87" value="&lt;span style=&quot;color: rgba(0, 0, 0, 0); font-family: monospace; font-size: 0px; text-align: start;&quot;&gt;%3CmxGraphModel%3E%3Croot%3E%3CmxCell%20id%3D%220%22%2F%3E%3CmxCell%20id%3D%221%22%20parent%3D%220%22%2F%3E%3CmxCell%20id%3D%222%22%20style%3D%22edgeStyle%3DorthogonalEdgeStyle%3Brounded%3D0%3BorthogonalLoop%3D1%3BjettySize%3Dauto%3Bhtml%3D1%3BentryX%3D0.993%3BentryY%3D0.491%3BentryDx%3D0%3BentryDy%3D0%3BentryPerimeter%3D0%3BexitX%3D-0.005%3BexitY%3D0.492%3BexitDx%3D0%3BexitDy%3D0%3BexitPerimeter%3D0%3BstrokeColor%3D%23B85450%3B%22%20edge%3D%221%22%20source%3D%2229%22%20target%3D%2232%22%20parent%3D%221%22%3E%3CmxGeometry%20relative%3D%221%22%20as%3D%22geometry%22%3E%3CmxPoint%20x%3D%22259%22%20y%3D%22549%22%20as%3D%22sourcePoint%22%2F%3E%3CmxPoint%20x%3D%22161.48000000000002%22%20y%3D%22550.1360000000001%22%20as%3D%22targetPoint%22%2F%3E%3CArray%20as%3D%22points%22%2F%3E%3C%2FmxGeometry%3E%3C%2FmxCell%3E%3CmxCell%20id%3D%223%22%20value%3D%22send%20rewards%22%20style%3D%22edgeLabel%3Bhtml%3D1%3Balign%3Dcenter%3BverticalAlign%3Dmiddle%3Bresizable%3D0%3Bpoints%3D%5B%5D%3BfontColor%3D%23B85450%3B%22%20vertex%3D%221%22%20connectable%3D%220%22%20parent%3D%222%22%3E%3CmxGeometry%20x%3D%220.2558%22%20relative%3D%221%22%20as%3D%22geometry%22%3E%3CmxPoint%20x%3D%2216%22%20as%3D%22offset%22%2F%3E%3C%2FmxGeometry%3E%3C%2FmxCell%3E%3CmxCell%20id%3D%224%22%20style%3D%22edgeStyle%3DorthogonalEdgeStyle%3Brounded%3D0%3BorthogonalLoop%3D1%3BjettySize%3Dauto%3Bhtml%3D1%3BentryX%3D0%3BentryY%3D0.25%3BentryDx%3D0%3BentryDy%3D0%3BexitX%3D1%3BexitY%3D0.25%3BexitDx%3D0%3BexitDy%3D0%3BstrokeColor%3D%2382B366%3B%22%20edge%3D%221%22%20source%3D%2227%22%20target%3D%2224%22%20parent%3D%221%22%3E%3CmxGeometry%20relative%3D%221%22%20as%3D%22geometry%22%3E%3CmxPoint%20x%3D%22565.1200000000001%22%20y%3D%22533.504%22%20as%3D%22sourcePoint%22%2F%3E%3CmxPoint%20x%3D%22660%22%20y%3D%22534%22%20as%3D%22targetPoint%22%2F%3E%3C%2FmxGeometry%3E%3C%2FmxCell%3E%3CmxCell%20id%3D%225%22%20value%3D%22build%20reserve%22%20style%3D%22edgeLabel%3Bhtml%3D1%3Balign%3Dcenter%3BverticalAlign%3Dmiddle%3Bresizable%3D0%3Bpoints%3D%5B%5D%3BfontColor%3D%2382B366%3B%22%20vertex%3D%221%22%20connectable%3D%220%22%20parent%3D%224%22%3E%3CmxGeometry%20x%3D%22-0.1%22%20y%3D%221%22%20relative%3D%221%22%20as%3D%22geometry%22%3E%3CmxPoint%20x%3D%224%22%20as%3D%22offset%22%2F%3E%3C%2FmxGeometry%3E%3C%2FmxCell%3E%3CmxCell%20id%3D%226%22%20style%3D%22edgeStyle%3DorthogonalEdgeStyle%3Brounded%3D0%3BorthogonalLoop%3D1%3BjettySize%3Dauto%3Bhtml%3D1%3BentryX%3D1.009%3BentryY%3D0.701%3BentryDx%3D0%3BentryDy%3D0%3BentryPerimeter%3D0%3BexitX%3D-0.004%3BexitY%3D0.722%3BexitDx%3D0%3BexitDy%3D0%3BexitPerimeter%3D0%3BstrokeColor%3D%23B85450%3B%22%20edge%3D%221%22%20source%3D%2224%22%20target%3D%2227%22%20parent%3D%221%22%3E%3CmxGeometry%20relative%3D%221%22%20as%3D%22geometry%22%3E%3CmxPoint%20x%3D%22665%22%20y%3D%22550%22%20as%3D%22sourcePoint%22%2F%3E%3CmxPoint%20x%3D%22565.24%22%20y%3D%22549.968%22%20as%3D%22targetPoint%22%2F%3E%3CArray%20as%3D%22points%22%3E%3CmxPoint%20x%3D%22616%22%20y%3D%22550%22%2F%3E%3C%2FArray%3E%3C%2FmxGeometry%3E%3C%2FmxCell%3E%3CmxCell%20id%3D%227%22%20value%3D%22liquid%20injection%22%20style%3D%22edgeLabel%3Bhtml%3D1%3Balign%3Dcenter%3BverticalAlign%3Dmiddle%3Bresizable%3D0%3Bpoints%3D%5B%5D%3BfontColor%3D%23B85450%3B%22%20vertex%3D%221%22%20connectable%3D%220%22%20parent%3D%226%22%3E%3CmxGeometry%20x%3D%220.1845%22%20relative%3D%221%22%20as%3D%22geometry%22%3E%3CmxPoint%20x%3D%2212%22%20as%3D%22offset%22%2F%3E%3C%2FmxGeometry%3E%3C%2FmxCell%3E%3CmxCell%20id%3D%228%22%20style%3D%22edgeStyle%3DorthogonalEdgeStyle%3Brounded%3D0%3BorthogonalLoop%3D1%3BjettySize%3Dauto%3Bhtml%3D1%3BentryX%3D0.022%3BentryY%3D0.342%3BentryDx%3D0%3BentryDy%3D0%3BentryPerimeter%3D0%3BexitX%3D1.004%3BexitY%3D0.462%3BexitDx%3D0%3BexitDy%3D0%3BexitPerimeter%3D0%3BstrokeColor%3D%23B85450%3B%22%20edge%3D%221%22%20target%3D%2233%22%20parent%3D%221%22%3E%3CmxGeometry%20relative%3D%221%22%20as%3D%22geometry%22%3E%3CmxPoint%20x%3D%22571.4800000000002%22%20y%3D%22347.87199999999996%22%20as%3D%22sourcePoint%22%2F%3E%3CmxPoint%20x%3D%22667%22%20y%3D%22348%22%20as%3D%22targetPoint%22%2F%3E%3C%2FmxGeometry%3E%3C%2FmxCell%3E%3CmxCell%20id%3D%229%22%20value%3D%22send%26lt%3Bdiv%26gt%3Ballocation%26lt%3B%2Fdiv%26gt%3B%22%20style%3D%22edgeLabel%3Bhtml%3D1%3Balign%3Dcenter%3BverticalAlign%3Dmiddle%3Bresizable%3D0%3Bpoints%3D%5B%5D%3BfontColor%3D%23B85450%3B%22%20vertex%3D%221%22%20connectable%3D%220%22%20parent%3D%228%22%3E%3CmxGeometry%20x%3D%220.0721%22%20relative%3D%221%22%20as%3D%22geometry%22%3E%3CmxPoint%20x%3D%22-3%22%20y%3D%22-6%22%20as%3D%22offset%22%2F%3E%3C%2FmxGeometry%3E%3C%2FmxCell%3E%3CmxCell%20id%3D%2210%22%20style%3D%22edgeStyle%3DorthogonalEdgeStyle%3Brounded%3D0%3BorthogonalLoop%3D1%3BjettySize%3Dauto%3Bhtml%3D1%3BentryX%3D1.003%3BentryY%3D0.759%3BentryDx%3D0%3BentryDy%3D0%3BentryPerimeter%3D0%3BexitX%3D0.1%3BexitY%3D0.831%3BexitDx%3D0%3BexitDy%3D0%3BexitPerimeter%3D0%3BstrokeColor%3D%2382B366%3B%22%20edge%3D%221%22%20source%3D%2233%22%20parent%3D%221%22%3E%3CmxGeometry%20relative%3D%221%22%20as%3D%22geometry%22%3E%3CmxPoint%20x%3D%22666%22%20y%3D%22365%22%20as%3D%22sourcePoint%22%2F%3E%3CmxPoint%20x%3D%22571.3600000000001%22%20y%3D%22364.504%22%20as%3D%22targetPoint%22%2F%3E%3CArray%20as%3D%22points%22%3E%3CmxPoint%20x%3D%22666%22%20y%3D%22365%22%2F%3E%3C%2FArray%3E%3C%2FmxGeometry%3E%3C%2FmxCell%3E%3CmxCell%20id%3D%2211%22%20value%3D%22provide%26lt%3Bdiv%26gt%3Bfunds%26lt%3B%2Fdiv%26gt%3B%22%20style%3D%22edgeLabel%3Bhtml%3D1%3Balign%3Dcenter%3BverticalAlign%3Dmiddle%3Bresizable%3D0%3Bpoints%3D%5B%5D%3BfontColor%3D%2382B366%3B%22%20vertex%3D%221%22%20connectable%3D%220%22%20parent%3D%2210%22%3E%3CmxGeometry%20x%3D%22-0.1404%22%20relative%3D%221%22%20as%3D%22geometry%22%3E%3CmxPoint%20x%3D%22-7%22%20y%3D%226%22%20as%3D%22offset%22%2F%3E%3C%2FmxGeometry%3E%3C%2FmxCell%3E%3CmxCell%20id%3D%2212%22%20style%3D%22edgeStyle%3DorthogonalEdgeStyle%3Brounded%3D0%3BorthogonalLoop%3D1%3BjettySize%3Dauto%3Bhtml%3D1%3BentryX%3D0.012%3BentryY%3D0.525%3BentryDx%3D0%3BentryDy%3D0%3BentryPerimeter%3D0%3BexitX%3D1%3BexitY%3D0.5%3BexitDx%3D0%3BexitDy%3D0%3BstrokeColor%3D%2382B366%3B%22%20edge%3D%221%22%20source%3D%2234%22%20target%3D%2230%22%20parent%3D%221%22%3E%3CmxGeometry%20relative%3D%221%22%20as%3D%22geometry%22%3E%3CmxPoint%20x%3D%22352.59900000000005%22%20y%3D%22354.54999999999995%22%20as%3D%22sourcePoint%22%2F%3E%3CmxPoint%20x%3D%22458%22%20y%3D%22354%22%20as%3D%22targetPoint%22%2F%3E%3C%2FmxGeometry%3E%3C%2FmxCell%3E%3CmxCell%20id%3D%2213%22%20value%3D%22launch%20projects%22%20style%3D%22edgeLabel%3Bhtml%3D1%3Balign%3Dcenter%3BverticalAlign%3Dmiddle%3Bresizable%3D0%3Bpoints%3D%5B%5D%3BfontColor%3D%2382B366%3B%22%20vertex%3D%221%22%20connectable%3D%220%22%20parent%3D%2212%22%3E%3CmxGeometry%20x%3D%22-0.1668%22%20relative%3D%221%22%20as%3D%22geometry%22%3E%3CmxPoint%20x%3D%224%22%20y%3D%22-2%22%20as%3D%22offset%22%2F%3E%3C%2FmxGeometry%3E%3C%2FmxCell%3E%3CmxCell%20id%3D%2214%22%20style%3D%22edgeStyle%3DorthogonalEdgeStyle%3Brounded%3D0%3BorthogonalLoop%3D1%3BjettySize%3Dauto%3Bhtml%3D1%3BentryX%3D0.491%3BentryY%3D0.999%3BentryDx%3D0%3BentryDy%3D0%3BexitX%3D0.486%3BexitY%3D0.013%3BexitDx%3D0%3BexitDy%3D0%3BexitPerimeter%3D0%3BentryPerimeter%3D0%3BstrokeColor%3D%2382B366%3B%22%20edge%3D%221%22%20source%3D%2228%22%20target%3D%2229%22%20parent%3D%221%22%3E%3CmxGeometry%20relative%3D%221%22%20as%3D%22geometry%22%3E%3CmxPoint%20x%3D%22293%22%20y%3D%22699%22%20as%3D%22sourcePoint%22%2F%3E%3CmxPoint%20x%3D%22293.76%22%20y%3D%22561.56%22%20as%3D%22targetPoint%22%2F%3E%3CArray%20as%3D%22points%22%3E%3CmxPoint%20x%3D%22302%22%20y%3D%22560%22%2F%3E%3C%2FArray%3E%3C%2FmxGeometry%3E%3C%2FmxCell%3E%3CmxCell%20id%3D%2215%22%20value%3D%22fund%26lt%3Bdiv%26gt%3Bpool%26lt%3B%2Fdiv%26gt%3B%22%20style%3D%22edgeLabel%3Bhtml%3D1%3Balign%3Dcenter%3BverticalAlign%3Dmiddle%3Bresizable%3D0%3Bpoints%3D%5B%5D%3BfontColor%3D%2382B366%3B%22%20vertex%3D%221%22%20connectable%3D%220%22%20parent%3D%2214%22%3E%3CmxGeometry%20x%3D%22-0.0417%22%20y%3D%222%22%20relative%3D%221%22%20as%3D%22geometry%22%3E%3CmxPoint%20as%3D%22offset%22%2F%3E%3C%2FmxGeometry%3E%3C%2FmxCell%3E%3CmxCell%20id%3D%2216%22%20style%3D%22edgeStyle%3DorthogonalEdgeStyle%3Brounded%3D0%3BorthogonalLoop%3D1%3BjettySize%3Dauto%3Bhtml%3D1%3BentryX%3D0.468%3BentryY%3D0.985%3BentryDx%3D0%3BentryDy%3D0%3BentryPerimeter%3D0%3BexitX%3D0.534%3BexitY%3D-0.001%3BexitDx%3D0%3BexitDy%3D0%3BexitPerimeter%3D0%3BfillColor%3D%23d5e8d4%3BstrokeColor%3D%2382b366%3B%22%20edge%3D%221%22%20source%3D%2231%22%20target%3D%2227%22%20parent%3D%221%22%3E%3CmxGeometry%20relative%3D%221%22%20as%3D%22geometry%22%3E%3CmxPoint%20x%3D%22517%22%20y%3D%22699.84%22%20as%3D%22sourcePoint%22%2F%3E%3CmxPoint%20x%3D%22518%22%20y%3D%22562.84%22%20as%3D%22targetPoint%22%2F%3E%3CArray%20as%3D%22points%22%3E%3CmxPoint%20x%3D%22518%22%20y%3D%22573%22%2F%3E%3CmxPoint%20x%3D%22518%22%20y%3D%22573%22%2F%3E%3C%2FArray%3E%3C%2FmxGeometry%3E%3C%2FmxCell%3E%3CmxCell%20id%3D%2217%22%20value%3D%22%26lt%3Bfont%20style%3D%26quot%3Bcolor%3A%20rgb(130%2C%20179%2C%20102)%3B%26quot%3B%26gt%3Bpay%20transaction%26lt%3B%2Ffont%26gt%3B%26lt%3Bdiv%26gt%3B%26lt%3Bfont%20style%3D%26quot%3Bcolor%3A%20rgb(130%2C%20179%2C%20102)%3B%26quot%3B%26gt%3Bmanagement%20%26amp%3Bamp%3B%20performance%20fees%26lt%3B%2Ffont%26gt%3B%26lt%3B%2Fdiv%26gt%3B%22%20style%3D%22edgeLabel%3Bhtml%3D1%3Balign%3Dcenter%3BverticalAlign%3Dmiddle%3Bresizable%3D0%3Bpoints%3D%5B%5D%3B%22%20vertex%3D%221%22%20connectable%3D%220%22%20parent%3D%2216%22%3E%3CmxGeometry%20x%3D%22-0.0138%22%20y%3D%22-1%22%20relative%3D%221%22%20as%3D%22geometry%22%3E%3CmxPoint%20x%3D%223%22%20y%3D%224%22%20as%3D%22offset%22%2F%3E%3C%2FmxGeometry%3E%3C%2FmxCell%3E%3CmxCell%20id%3D%2218%22%20style%3D%22edgeStyle%3DorthogonalEdgeStyle%3Brounded%3D0%3BorthogonalLoop%3D1%3BjettySize%3Dauto%3Bhtml%3D1%3BexitX%3D0.459%3BexitY%3D1.007%3BexitDx%3D0%3BexitDy%3D0%3BexitPerimeter%3D0%3BentryX%3D0.471%3BentryY%3D-0.008%3BentryDx%3D0%3BentryDy%3D0%3BentryPerimeter%3D0%3BstrokeColor%3D%2382B366%3B%22%20edge%3D%221%22%20source%3D%2230%22%20target%3D%2227%22%20parent%3D%221%22%3E%3CmxGeometry%20relative%3D%221%22%20as%3D%22geometry%22%3E%3CmxPoint%20x%3D%22517.5200000000002%22%20y%3D%22377.9999999999999%22%20as%3D%22sourcePoint%22%2F%3E%3CmxPoint%20x%3D%22518%22%20y%3D%22516.84%22%20as%3D%22targetPoint%22%2F%3E%3CArray%20as%3D%22points%22%3E%3CmxPoint%20x%3D%22517%22%20y%3D%22448%22%2F%3E%3CmxPoint%20x%3D%22519%22%20y%3D%22448%22%2F%3E%3C%2FArray%3E%3C%2FmxGeometry%3E%3C%2FmxCell%3E%3CmxCell%20id%3D%2219%22%20value%3D%22send%26amp%3Bnbsp%3B%26lt%3Bdiv%26gt%3Ballocation%26lt%3B%2Fdiv%26gt%3B%22%20style%3D%22edgeLabel%3Bhtml%3D1%3Balign%3Dcenter%3BverticalAlign%3Dmiddle%3Bresizable%3D0%3Bpoints%3D%5B%5D%3BfontColor%3D%2382B366%3B%22%20vertex%3D%221%22%20connectable%3D%220%22%20parent%3D%2218%22%3E%3CmxGeometry%20x%3D%220.0591%22%20relative%3D%221%22%20as%3D%22geometry%22%3E%3CmxPoint%20as%3D%22offset%22%2F%3E%3C%2FmxGeometry%3E%3C%2FmxCell%3E%3CmxCell%20id%3D%2220%22%20style%3D%22edgeStyle%3DorthogonalEdgeStyle%3Brounded%3D0%3BorthogonalLoop%3D1%3BjettySize%3Dauto%3Bhtml%3D1%3BentryX%3D0.495%3BentryY%3D1.003%3BentryDx%3D0%3BentryDy%3D0%3BentryPerimeter%3D0%3BexitX%3D0.458%3BexitY%3D-0.006%3BexitDx%3D0%3BexitDy%3D0%3BexitPerimeter%3D0%3BstrokeColor%3D%23B85450%3B%22%20edge%3D%221%22%20source%3D%2229%22%20target%3D%2234%22%20parent%3D%221%22%3E%3CmxGeometry%20relative%3D%221%22%20as%3D%22geometry%22%3E%3CmxPoint%20x%3D%22298.73400000000004%22%20y%3D%22525.28%22%20as%3D%22sourcePoint%22%2F%3E%3CmxPoint%20x%3D%22298.996%22%20y%3D%22370.23%22%20as%3D%22targetPoint%22%2F%3E%3CArray%20as%3D%22points%22%3E%3CmxPoint%20x%3D%22299%22%20y%3D%22525%22%2F%3E%3C%2FArray%3E%3C%2FmxGeometry%3E%3C%2FmxCell%3E%3CmxCell%20id%3D%2221%22%20value%3D%22send%26amp%3Bnbsp%3B%26lt%3Bdiv%26gt%3Brewards%26lt%3B%2Fdiv%26gt%3B%22%20style%3D%22edgeLabel%3Bhtml%3D1%3Balign%3Dcenter%3BverticalAlign%3Dmiddle%3Bresizable%3D0%3Bpoints%3D%5B%5D%3BfontColor%3D%23B85450%3B%22%20vertex%3D%221%22%20connectable%3D%220%22%20parent%3D%2220%22%3E%3CmxGeometry%20x%3D%220.001%22%20relative%3D%221%22%20as%3D%22geometry%22%3E%3CmxPoint%20x%3D%221%22%20y%3D%224%22%20as%3D%22offset%22%2F%3E%3C%2FmxGeometry%3E%3C%2FmxCell%3E%3CmxCell%20id%3D%2222%22%20style%3D%22edgeStyle%3DorthogonalEdgeStyle%3Brounded%3D0%3BorthogonalLoop%3D1%3BjettySize%3Dauto%3Bhtml%3D1%3BentryX%3D0.163%3BentryY%3D0.028%3BentryDx%3D0%3BentryDy%3D0%3BentryPerimeter%3D0%3BexitX%3D0.79%3BexitY%3D0.916%3BexitDx%3D0%3BexitDy%3D0%3BexitPerimeter%3D0%3BstrokeColor%3D%2382B366%3B%22%20edge%3D%221%22%20source%3D%2234%22%20target%3D%2227%22%20parent%3D%221%22%3E%3CmxGeometry%20relative%3D%221%22%20as%3D%22geometry%22%3E%3CmxPoint%20x%3D%22338.15999999999985%22%20y%3D%22378.448%22%20as%3D%22sourcePoint%22%2F%3E%3CmxPoint%20x%3D%22484.84000000000015%22%20y%3D%22516.792%22%20as%3D%22targetPoint%22%2F%3E%3CArray%20as%3D%22points%22%3E%3CmxPoint%20x%3D%22328%22%20y%3D%22378%22%2F%3E%3CmxPoint%20x%3D%22328%22%20y%3D%22378%22%2F%3E%3CmxPoint%20x%3D%22328%22%20y%3D%22453%22%2F%3E%3CmxPoint%20x%3D%22488%22%20y%3D%22453%22%2F%3E%3C%2FArray%3E%3C%2FmxGeometry%3E%3C%2FmxCell%3E%3CmxCell%20id%3D%2223%22%20value%3D%22pay%26amp%3Bnbsp%3B%26lt%3Bdiv%26gt%3Bdeployment%26amp%3Bnbsp%3B%26lt%3Bspan%20style%3D%26quot%3Bbackground-color%3A%20light-dark(%23ffffff%2C%20var(--ge-dark-color%2C%20%23121212))%3B%20color%3A%20light-dark(rgb(130%2C%20179%2C%20102)%2C%20rgb(68%2C%20110%2C%2044))%3B%26quot%3B%26gt%3Bfees%26lt%3B%2Fspan%26gt%3B%26lt%3B%2Fdiv%26gt%3B%22%20style%3D%22edgeLabel%3Bhtml%3D1%3Balign%3Dcenter%3BverticalAlign%3Dmiddle%3Bresizable%3D0%3Bpoints%3D%5B%5D%3BfontColor%3D%2382B366%3B%22%20vertex%3D%221%22%20connectable%3D%220%22%20parent%3D%2222%22%3E%3CmxGeometry%20x%3D%22-0.3064%22%20relative%3D%221%22%20as%3D%22geometry%22%3E%3CmxPoint%20x%3D%2252%22%20y%3D%22-1%22%20as%3D%22offset%22%2F%3E%3C%2FmxGeometry%3E%3C%2FmxCell%3E%3CmxCell%20id%3D%2224%22%20value%3D%22%26lt%3Bfont%20face%3D%26quot%3BHelvetica%26quot%3B%20style%3D%26quot%3Btext-wrap-mode%3A%20nowrap%3B%26quot%3B%26gt%3BEASYA%26lt%3B%2Ffont%26gt%3B%26lt%3Bdiv%20style%3D%26quot%3Btext-wrap-mode%3A%20nowrap%3B%26quot%3B%26gt%3B%26lt%3Bfont%20face%3D%26quot%3BHelvetica%26quot%3B%26gt%3BTreasury%26lt%3B%2Ffont%26gt%3B%26lt%3B%2Fdiv%26gt%3B%22%20style%3D%22html%3D1%3BdropTarget%3D0%3BwhiteSpace%3Dwrap%3BstrokeWidth%3D0.5%3B%22%20vertex%3D%221%22%20parent%3D%221%22%3E%3CmxGeometry%20x%3D%22668%22%20y%3D%22525%22%20width%3D%2299%22%20height%3D%2235%22%20as%3D%22geometry%22%2F%3E%3C%2FmxCell%3E%3CmxCell%20id%3D%2225%22%20style%3D%22edgeStyle%3DorthogonalEdgeStyle%3Brounded%3D0%3BorthogonalLoop%3D1%3BjettySize%3Dauto%3Bhtml%3D1%3BentryX%3D1%3BentryY%3D0.5%3BentryDx%3D0%3BentryDy%3D0%3BstrokeColor%3D%23b85450%3BfillColor%3D%23f8cecc%3B%22%20edge%3D%221%22%20source%3D%2227%22%20target%3D%2229%22%20parent%3D%221%22%3E%3CmxGeometry%20relative%3D%221%22%20as%3D%22geometry%22%2F%3E%3C%2FmxCell%3E%3CmxCell%20id%3D%2226%22%20value%3D%22%26lt%3Bspan%20style%3D%26quot%3B%26quot%3B%26gt%3Bfund%26lt%3B%2Fspan%26gt%3B%26lt%3Bdiv%20style%3D%26quot%3B%26quot%3B%26gt%3Bpool%26lt%3B%2Fdiv%26gt%3B%22%20style%3D%22edgeLabel%3Bhtml%3D1%3Balign%3Dcenter%3BverticalAlign%3Dmiddle%3Bresizable%3D0%3Bpoints%3D%5B%5D%3BfontColor%3D%23B85450%3B%22%20vertex%3D%221%22%20connectable%3D%220%22%20parent%3D%2225%22%3E%3CmxGeometry%20x%3D%22-0.0604%22%20relative%3D%221%22%20as%3D%22geometry%22%3E%3CmxPoint%20as%3D%22offset%22%2F%3E%3C%2FmxGeometry%3E%3C%2FmxCell%3E%3CmxCell%20id%3D%2227%22%20value%3D%22%26lt%3Bfont%20face%3D%26quot%3BHelvetica%26quot%3B%20style%3D%26quot%3Btext-wrap-mode%3A%20nowrap%3B%26quot%3B%26gt%3BEASYA%26lt%3B%2Ffont%26gt%3B%26lt%3Bdiv%20style%3D%26quot%3Btext-wrap-mode%3A%20nowrap%3B%26quot%3B%26gt%3B%26lt%3Bfont%20face%3D%26quot%3BHelvetica%26quot%3B%26gt%3BProtocol%26lt%3B%2Ffont%26gt%3B%26lt%3B%2Fdiv%26gt%3B%22%20style%3D%22html%3D1%3BdropTarget%3D0%3BwhiteSpace%3Dwrap%3BstrokeWidth%3D0.5%3B%22%20vertex%3D%221%22%20parent%3D%221%22%3E%3CmxGeometry%20x%3D%22472%22%20y%3D%22525%22%20width%3D%2299%22%20height%3D%2235%22%20as%3D%22geometry%22%2F%3E%3C%2FmxCell%3E%3CmxCell%20id%3D%2228%22%20value%3D%22%26lt%3Bspan%20style%3D%26quot%3Btext-wrap-mode%3A%20nowrap%3B%26quot%3B%26gt%3B%26lt%3Bfont%20face%3D%26quot%3BHelvetica%26quot%3B%26gt%3BL1%20Protocol%26lt%3B%2Ffont%26gt%3B%26lt%3B%2Fspan%26gt%3B%22%20style%3D%22html%3D1%3BdropTarget%3D0%3BwhiteSpace%3Dwrap%3BstrokeWidth%3D0.5%3B%22%20vertex%3D%221%22%20parent%3D%221%22%3E%3CmxGeometry%20x%3D%22253.5%22%20y%3D%22698.5%22%20width%3D%2299%22%20height%3D%2235%22%20as%3D%22geometry%22%2F%3E%3C%2FmxCell%3E%3CmxCell%20id%3D%2229%22%20value%3D%22%26lt%3Bfont%20face%3D%26quot%3BHelvetica%26quot%3B%20style%3D%26quot%3Btext-wrap-mode%3A%20nowrap%3B%26quot%3B%26gt%3BEASYA%26lt%3B%2Ffont%26gt%3B%26lt%3Bdiv%20style%3D%26quot%3Btext-wrap-mode%3A%20nowrap%3B%26quot%3B%26gt%3B%26lt%3Bfont%20face%3D%26quot%3BHelvetica%26quot%3B%26gt%3BRewards%20Pool%26lt%3B%2Ffont%26gt%3B%26lt%3B%2Fdiv%26gt%3B%22%20style%3D%22html%3D1%3BdropTarget%3D0%3BwhiteSpace%3Dwrap%3BstrokeWidth%3D0.5%3B%22%20vertex%3D%221%22%20parent%3D%221%22%3E%3CmxGeometry%20x%3D%22253.5%22%20y%3D%22525%22%20width%3D%2299%22%20height%3D%2235%22%20as%3D%22geometry%22%2F%3E%3C%2FmxCell%3E%3CmxCell%20id%3D%2230%22%20value%3D%22%26lt%3Bfont%20style%3D%26quot%3Btext-wrap-mode%3A%20nowrap%3B%26quot%3B%26gt%3BEASYA%26lt%3B%2Ffont%26gt%3B%26lt%3Bdiv%20style%3D%26quot%3Btext-wrap-mode%3A%20nowrap%3B%26quot%3B%26gt%3BLaunchpad%26lt%3B%2Fdiv%26gt%3B%22%20style%3D%22html%3D1%3BdropTarget%3D0%3BwhiteSpace%3Dwrap%3BstrokeWidth%3D0.5%3B%22%20vertex%3D%221%22%20parent%3D%221%22%3E%3CmxGeometry%20x%3D%22472%22%20y%3D%22336%22%20width%3D%2299%22%20height%3D%2235%22%20as%3D%22geometry%22%2F%3E%3C%2FmxCell%3E%3CmxCell%20id%3D%2231%22%20value%3D%22%26lt%3Bfont%20face%3D%26quot%3BHelvetica%26quot%3B%20style%3D%26quot%3Btext-wrap-mode%3A%20nowrap%3B%26quot%3B%26gt%3BEASYA%26lt%3B%2Ffont%26gt%3B%26lt%3Bdiv%20style%3D%26quot%3Btext-wrap-mode%3A%20nowrap%3B%26quot%3B%26gt%3B%26lt%3Bfont%20face%3D%26quot%3BHelvetica%26quot%3B%26gt%3BUsers%26lt%3B%2Ffont%26gt%3B%26lt%3B%2Fdiv%26gt%3B%22%20style%3D%22ellipse%3BwhiteSpace%3Dwrap%3Bhtml%3D1%3BstrokeWidth%3D0.5%3B%22%20vertex%3D%221%22%20parent%3D%221%22%3E%3CmxGeometry%20x%3D%22465%22%20y%3D%22698.5%22%20width%3D%2299%22%20height%3D%2235%22%20as%3D%22geometry%22%2F%3E%3C%2FmxCell%3E%3CmxCell%20id%3D%2232%22%20value%3D%22%26lt%3Bfont%20face%3D%26quot%3BHelvetica%26quot%3B%20style%3D%26quot%3Btext-wrap-mode%3A%20nowrap%3B%26quot%3B%26gt%3BEASYA%26lt%3B%2Ffont%26gt%3B%26lt%3Bdiv%20style%3D%26quot%3Btext-wrap-mode%3A%20nowrap%3B%26quot%3B%26gt%3B%26lt%3Bfont%20face%3D%26quot%3BHelvetica%26quot%3B%26gt%3BLearner%26lt%3B%2Ffont%26gt%3B%26lt%3B%2Fdiv%26gt%3B%22%20style%3D%22ellipse%3BwhiteSpace%3Dwrap%3Bhtml%3D1%3BstrokeWidth%3D0.5%3B%22%20vertex%3D%221%22%20parent%3D%221%22%3E%3CmxGeometry%20x%3D%2262%22%20y%3D%22525%22%20width%3D%2299%22%20height%3D%2235%22%20as%3D%22geometry%22%2F%3E%3C%2FmxCell%3E%3CmxCell%20id%3D%2233%22%20value%3D%22%26lt%3Bfont%20face%3D%26quot%3BHelvetica%26quot%3B%20style%3D%26quot%3Btext-wrap-mode%3A%20nowrap%3B%26quot%3B%26gt%3BEASYA%26lt%3B%2Ffont%26gt%3B%26lt%3Bdiv%20style%3D%26quot%3Btext-wrap-mode%3A%20nowrap%3B%26quot%3B%26gt%3B%26lt%3Bfont%20face%3D%26quot%3BHelvetica%26quot%3B%26gt%3BInvestors%26lt%3B%2Ffont%26gt%3B%26lt%3B%2Fdiv%26gt%3B%22%20style%3D%22ellipse%3BwhiteSpace%3Dwrap%3Bhtml%3D1%3BstrokeWidth%3D0.5%3B%22%20vertex%3D%221%22%20parent%3D%221%22%3E%3CmxGeometry%20x%3D%22671%22%20y%3D%22336%22%20width%3D%2299%22%20height%3D%2235%22%20as%3D%22geometry%22%2F%3E%3C%2FmxCell%3E%3CmxCell%20id%3D%2234%22%20value%3D%22%26lt%3Bfont%20face%3D%26quot%3BHelvetica%26quot%3B%20style%3D%26quot%3Btext-wrap-mode%3A%20nowrap%3B%26quot%3B%26gt%3BEASYA%26lt%3B%2Ffont%26gt%3B%26lt%3Bdiv%20style%3D%26quot%3Btext-wrap-mode%3A%20nowrap%3B%26quot%3B%26gt%3B%26lt%3Bfont%20face%3D%26quot%3BHelvetica%26quot%3B%26gt%3BDevelopers%26lt%3B%2Ffont%26gt%3B%26lt%3B%2Fdiv%26gt%3B%22%20style%3D%22ellipse%3BwhiteSpace%3Dwrap%3Bhtml%3D1%3BstrokeWidth%3D0.5%3B%22%20vertex%3D%221%22%20parent%3D%221%22%3E%3CmxGeometry%20x%3D%22250%22%20y%3D%22336%22%20width%3D%2299%22%20height%3D%2235%22%20as%3D%22geometry%22%2F%3E%3C%2FmxCell%3E%3CmxCell%20id%3D%2235%22%20style%3D%22edgeStyle%3DorthogonalEdgeStyle%3Brounded%3D0%3BorthogonalLoop%3D1%3BjettySize%3Dauto%3Bhtml%3D1%3BentryX%3D0.803%3BentryY%3D0.018%3BentryDx%3D0%3BentryDy%3D0%3BentryPerimeter%3D0%3BstrokeColor%3D%2382B366%3B%22%20edge%3D%221%22%20source%3D%2233%22%20target%3D%2227%22%20parent%3D%221%22%3E%3CmxGeometry%20relative%3D%221%22%20as%3D%22geometry%22%3E%3CArray%20as%3D%22points%22%3E%3CmxPoint%20x%3D%22720%22%20y%3D%22455%22%2F%3E%3CmxPoint%20x%3D%22552%22%20y%3D%22455%22%2F%3E%3C%2FArray%3E%3C%2FmxGeometry%3E%3C%2FmxCell%3E%3CmxCell%20id%3D%2236%22%20value%3D%22%26lt%3Bspan%20style%3D%26quot%3Bcolor%3A%20rgb(130%2C%20179%2C%20102)%3B%26quot%3B%26gt%3Bpay%26amp%3Bnbsp%3B%26lt%3B%2Fspan%26gt%3B%26lt%3Bdiv%20style%3D%26quot%3Bcolor%3A%20rgb(130%2C%20179%2C%20102)%3B%26quot%3B%26gt%3Bperformance%26amp%3Bnbsp%3B%26lt%3Bspan%20style%3D%26quot%3Bbackground-color%3A%20light-dark(%23ffffff%2C%20var(--ge-dark-color%2C%20%23121212))%3B%20color%3A%20light-dark(rgb(130%2C%20179%2C%20102)%2C%20rgb(68%2C%20110%2C%2044))%3B%26quot%3B%26gt%3Bfees%26lt%3B%2Fspan%26gt%3B%26lt%3B%2Fdiv%26gt%3B%22%20style%3D%22edgeLabel%3Bhtml%3D1%3Balign%3Dcenter%3BverticalAlign%3Dmiddle%3Bresizable%3D0%3Bpoints%3D%5B%5D%3B%22%20vertex%3D%221%22%20connectable%3D%220%22%20parent%3D%2235%22%3E%3CmxGeometry%20x%3D%22-0.0713%22%20y%3D%221%22%20relative%3D%221%22%20as%3D%22geometry%22%3E%3CmxPoint%20x%3D%22-11%22%20y%3D%22-3%22%20as%3D%22offset%22%2F%3E%3C%2FmxGeometry%3E%3C%2FmxCell%3E%3CmxCell%20id%3D%2237%22%20value%3D%22%22%20style%3D%22shape%3Dcorner%3BwhiteSpace%3Dwrap%3Bhtml%3D1%3Brotation%3D90%3Bdx%3D415%3Bdy%3D184%3BfillColor%3D%23d5e8d4%3Bdashed%3D1%3BstrokeWidth%3D1%3BstrokeColor%3D%2382b366%3B%22%20vertex%3D%221%22%20parent%3D%221%22%3E%3CmxGeometry%20x%3D%22673.5200000000001%22%20y%3D%22623.0900000000001%22%20width%3D%2213.79%22%20height%3D%2218.13%22%20as%3D%22geometry%22%2F%3E%3C%2FmxCell%3E%3CmxCell%20id%3D%2238%22%20value%3D%22%22%20style%3D%22shape%3Dcorner%3BwhiteSpace%3Dwrap%3Bhtml%3D1%3Brotation%3D90%3Bdx%3D415%3Bdy%3D184%3BfillColor%3D%23F8CECC%3Bdashed%3D1%3BstrokeWidth%3D1%3BstrokeColor%3D%23B85450%3B%22%20vertex%3D%221%22%20parent%3D%221%22%3E%3CmxGeometry%20x%3D%22673.5200000000001%22%20y%3D%22650.52%22%20width%3D%2213.79%22%20height%3D%2218.13%22%20as%3D%22geometry%22%2F%3E%3C%2FmxCell%3E%3CmxCell%20id%3D%2239%22%20value%3D%22%26lt%3Bfont%20style%3D%26quot%3Bfont-size%3A%2010px%3B%26quot%3B%26gt%3B%26lt%3Bb%26gt%3BComponents%26lt%3B%2Fb%26gt%3B%26lt%3B%2Ffont%26gt%3B%22%20style%3D%22text%3Bhtml%3D1%3Balign%3Dcenter%3BverticalAlign%3Dmiddle%3BwhiteSpace%3Dwrap%3Brounded%3D0%3BstrokeColor%3D%23039905%3BfontSize%3D10%3B%22%20vertex%3D%221%22%20parent%3D%221%22%3E%3CmxGeometry%20x%3D%22703.1044835351701%22%20y%3D%22621.5321231749735%22%20width%3D%2247.81372796838019%22%20height%3D%2221.244246349946895%22%20as%3D%22geometry%22%2F%3E%3C%2FmxCell%3E%3CmxCell%20id%3D%2240%22%20value%3D%22%26lt%3Bfont%20style%3D%26quot%3Bfont-size%3A%2010px%3B%26quot%3B%26gt%3B%26lt%3Bb%26gt%3BEntities%26lt%3B%2Fb%26gt%3B%26lt%3B%2Ffont%26gt%3B%22%20style%3D%22text%3Bhtml%3D1%3Balign%3Dcenter%3BverticalAlign%3Dmiddle%3BwhiteSpace%3Dwrap%3Brounded%3D0%3BstrokeColor%3D%238C0C00%3BfontSize%3D10%3B%22%20vertex%3D%221%22%20parent%3D%221%22%3E%3CmxGeometry%20x%3D%22703.1091182756162%22%20y%3D%22648.9621231749736%22%20width%3D%2247.81372796838019%22%20height%3D%2221.244246349946895%22%20as%3D%22geometry%22%2F%3E%3C%2FmxCell%3E%3CmxCell%20id%3D%2241%22%20style%3D%22edgeStyle%3DorthogonalEdgeStyle%3Brounded%3D0%3BorthogonalLoop%3D1%3BjettySize%3Dauto%3Bhtml%3D1%3BentryX%3D0.699%3BentryY%3D-0.003%3BentryDx%3D0%3BentryDy%3D0%3BentryPerimeter%3D0%3BstrokeColor%3D%230066CC%3BstrokeWidth%3D1.5%3B%22%20edge%3D%221%22%20parent%3D%221%22%3E%3CmxGeometry%20relative%3D%221%22%20as%3D%22geometry%22%3E%3CmxPoint%20x%3D%22685.5000000000001%22%20y%3D%22688.56%22%20as%3D%22sourcePoint%22%2F%3E%3CmxPoint%20x%3D%22671.0000000000001%22%20y%3D%22678.4099999999999%22%20as%3D%22targetPoint%22%2F%3E%3CArray%20as%3D%22points%22%3E%3CmxPoint%20x%3D%22685.6%22%20y%3D%22698.56%22%2F%3E%3CmxPoint%20x%3D%22685.6%22%20y%3D%22678.56%22%2F%3E%3C%2FArray%3E%3C%2FmxGeometry%3E%3C%2FmxCell%3E%3CmxCell%20id%3D%2242%22%20value%3D%22%26lt%3Bfont%20color%3D%26quot%3B%230066cc%26quot%3B%26gt%3BUser%26lt%3B%2Ffont%26gt%3B%26lt%3Bdiv%26gt%3B%26lt%3Bfont%20color%3D%26quot%3B%230066cc%26quot%3B%26gt%3BActions%26lt%3B%2Ffont%26gt%3B%26lt%3B%2Fdiv%26gt%3B%22%20style%3D%22text%3Bhtml%3D1%3Balign%3Dleft%3BverticalAlign%3Dmiddle%3BwhiteSpace%3Dwrap%3Brounded%3D0%3BstrokeColor%3Dnone%3BfontSize%3D10%3Bcontainer%3D0%3BfontStyle%3D1%22%20vertex%3D%221%22%20parent%3D%221%22%3E%3CmxGeometry%20x%3D%22703.1%22%20y%3D%22671.49%22%20width%3D%2246.9%22%20height%3D%2224.64%22%20as%3D%22geometry%22%2F%3E%3C%2FmxCell%3E%3CmxCell%20id%3D%2243%22%20style%3D%22edgeStyle%3DorthogonalEdgeStyle%3Brounded%3D0%3BorthogonalLoop%3D1%3BjettySize%3Dauto%3Bhtml%3D1%3BentryX%3D0.699%3BentryY%3D-0.003%3BentryDx%3D0%3BentryDy%3D0%3BentryPerimeter%3D0%3BstrokeColor%3D%23C28A55%3BstrokeWidth%3D1.5%3B%22%20edge%3D%221%22%20parent%3D%221%22%3E%3CmxGeometry%20relative%3D%221%22%20as%3D%22geometry%22%3E%3CmxPoint%20x%3D%22684.5000000000001%22%20y%3D%22713.74%22%20as%3D%22sourcePoint%22%2F%3E%3CmxPoint%20x%3D%22670.0000000000001%22%20y%3D%22703.5899999999997%22%20as%3D%22targetPoint%22%2F%3E%3CArray%20as%3D%22points%22%3E%3CmxPoint%20x%3D%22684.6%22%20y%3D%22723.7399999999999%22%2F%3E%3CmxPoint%20x%3D%22684.6%22%20y%3D%22703.7399999999998%22%2F%3E%3C%2FArray%3E%3C%2FmxGeometry%3E%3C%2FmxCell%3E%3CmxCell%20id%3D%2244%22%20value%3D%22%26lt%3Bfont%20color%3D%26quot%3B%23c28a55%26quot%3B%20style%3D%26quot%3Bfont-size%3A%2010px%3B%26quot%3B%26gt%3B%26lt%3Bb%26gt%3BSystem%26lt%3B%2Fb%26gt%3B%26lt%3B%2Ffont%26gt%3B%26lt%3Bdiv%26gt%3B%26lt%3Bfont%20color%3D%26quot%3B%23c28a55%26quot%3B%20style%3D%26quot%3Bfont-size%3A%2010px%3B%26quot%3B%26gt%3B%26lt%3Bb%26gt%3BActions%26lt%3B%2Fb%26gt%3B%26lt%3B%2Ffont%26gt%3B%26lt%3B%2Fdiv%26gt%3B%22%20style%3D%22text%3Bhtml%3D1%3Balign%3Dleft%3BverticalAlign%3Dmiddle%3BwhiteSpace%3Dwrap%3Brounded%3D0%3BstrokeColor%3Dnone%3BfontSize%3D10%3Bcontainer%3D0%3BfontColor%3D%23FFB570%3B%22%20vertex%3D%221%22%20parent%3D%221%22%3E%3CmxGeometry%20x%3D%22701%22%20y%3D%22699%22%20width%3D%2245%22%20height%3D%2224.64%22%20as%3D%22geometry%22%2F%3E%3C%2FmxCell%3E%3C%2Froot%3E%3C%2FmxGraphModel%3E&lt;/span&gt;" style="text;html=1;align=center;verticalAlign=middle;resizable=0;points=[];autosize=1;strokeColor=none;fillColor=none;" vertex="1" parent="1">
          <mxGeometry x="-367" y="498" width="18" height="26" as="geometry" />
        </mxCell>
        <mxCell id="s_7uNWrEDpn2mi_4LuEL-88" style="edgeStyle=orthogonalEdgeStyle;rounded=0;orthogonalLoop=1;jettySize=auto;html=1;entryX=0.993;entryY=0.491;entryDx=0;entryDy=0;entryPerimeter=0;exitX=-0.005;exitY=0.492;exitDx=0;exitDy=0;exitPerimeter=0;strokeColor=#B85450;" edge="1" parent="1" source="s_7uNWrEDpn2mi_4LuEL-115" target="s_7uNWrEDpn2mi_4LuEL-118">
          <mxGeometry relative="1" as="geometry">
            <mxPoint x="-865" y="553" as="sourcePoint" />
            <mxPoint x="-962.52" y="554.1360000000001" as="targetPoint" />
            <Array as="points" />
          </mxGeometry>
        </mxCell>
        <mxCell id="s_7uNWrEDpn2mi_4LuEL-89" value="send rewards" style="edgeLabel;html=1;align=center;verticalAlign=middle;resizable=0;points=[];fontColor=#B85450;" vertex="1" connectable="0" parent="s_7uNWrEDpn2mi_4LuEL-88">
          <mxGeometry x="0.2558" relative="1" as="geometry">
            <mxPoint x="16" as="offset" />
          </mxGeometry>
        </mxCell>
        <mxCell id="s_7uNWrEDpn2mi_4LuEL-90" style="edgeStyle=orthogonalEdgeStyle;rounded=0;orthogonalLoop=1;jettySize=auto;html=1;entryX=0;entryY=0.25;entryDx=0;entryDy=0;exitX=1;exitY=0.25;exitDx=0;exitDy=0;strokeColor=#82B366;" edge="1" parent="1" source="s_7uNWrEDpn2mi_4LuEL-113" target="s_7uNWrEDpn2mi_4LuEL-110">
          <mxGeometry relative="1" as="geometry">
            <mxPoint x="-558.8799999999999" y="537.504" as="sourcePoint" />
            <mxPoint x="-464" y="538" as="targetPoint" />
          </mxGeometry>
        </mxCell>
        <mxCell id="s_7uNWrEDpn2mi_4LuEL-91" value="build reserve" style="edgeLabel;html=1;align=center;verticalAlign=middle;resizable=0;points=[];fontColor=#82B366;" vertex="1" connectable="0" parent="s_7uNWrEDpn2mi_4LuEL-90">
          <mxGeometry x="-0.1" y="1" relative="1" as="geometry">
            <mxPoint x="4" as="offset" />
          </mxGeometry>
        </mxCell>
        <mxCell id="s_7uNWrEDpn2mi_4LuEL-92" style="edgeStyle=orthogonalEdgeStyle;rounded=0;orthogonalLoop=1;jettySize=auto;html=1;entryX=1.009;entryY=0.701;entryDx=0;entryDy=0;entryPerimeter=0;exitX=-0.004;exitY=0.722;exitDx=0;exitDy=0;exitPerimeter=0;strokeColor=#B85450;" edge="1" parent="1" source="s_7uNWrEDpn2mi_4LuEL-110" target="s_7uNWrEDpn2mi_4LuEL-113">
          <mxGeometry relative="1" as="geometry">
            <mxPoint x="-459" y="554" as="sourcePoint" />
            <mxPoint x="-558.76" y="553.968" as="targetPoint" />
            <Array as="points">
              <mxPoint x="-508" y="554" />
            </Array>
          </mxGeometry>
        </mxCell>
        <mxCell id="s_7uNWrEDpn2mi_4LuEL-93" value="liquid injection" style="edgeLabel;html=1;align=center;verticalAlign=middle;resizable=0;points=[];fontColor=#B85450;" vertex="1" connectable="0" parent="s_7uNWrEDpn2mi_4LuEL-92">
          <mxGeometry x="0.1845" relative="1" as="geometry">
            <mxPoint x="12" as="offset" />
          </mxGeometry>
        </mxCell>
        <mxCell id="s_7uNWrEDpn2mi_4LuEL-94" style="edgeStyle=orthogonalEdgeStyle;rounded=0;orthogonalLoop=1;jettySize=auto;html=1;entryX=0.022;entryY=0.342;entryDx=0;entryDy=0;entryPerimeter=0;exitX=1.004;exitY=0.462;exitDx=0;exitDy=0;exitPerimeter=0;strokeColor=#B85450;" edge="1" parent="1" target="s_7uNWrEDpn2mi_4LuEL-119">
          <mxGeometry relative="1" as="geometry">
            <mxPoint x="-552.5199999999998" y="351.87199999999996" as="sourcePoint" />
            <mxPoint x="-457" y="352" as="targetPoint" />
          </mxGeometry>
        </mxCell>
        <mxCell id="s_7uNWrEDpn2mi_4LuEL-95" value="send&lt;div&gt;allocation&lt;/div&gt;" style="edgeLabel;html=1;align=center;verticalAlign=middle;resizable=0;points=[];fontColor=#B85450;" vertex="1" connectable="0" parent="s_7uNWrEDpn2mi_4LuEL-94">
          <mxGeometry x="0.0721" relative="1" as="geometry">
            <mxPoint x="-3" y="-6" as="offset" />
          </mxGeometry>
        </mxCell>
        <mxCell id="s_7uNWrEDpn2mi_4LuEL-96" style="edgeStyle=orthogonalEdgeStyle;rounded=0;orthogonalLoop=1;jettySize=auto;html=1;entryX=1.003;entryY=0.759;entryDx=0;entryDy=0;entryPerimeter=0;exitX=0.1;exitY=0.831;exitDx=0;exitDy=0;exitPerimeter=0;strokeColor=#82B366;" edge="1" parent="1" source="s_7uNWrEDpn2mi_4LuEL-119">
          <mxGeometry relative="1" as="geometry">
            <mxPoint x="-458" y="369" as="sourcePoint" />
            <mxPoint x="-552.6399999999999" y="368.504" as="targetPoint" />
            <Array as="points">
              <mxPoint x="-458" y="369" />
            </Array>
          </mxGeometry>
        </mxCell>
        <mxCell id="s_7uNWrEDpn2mi_4LuEL-97" value="provide&lt;div&gt;funds&lt;/div&gt;" style="edgeLabel;html=1;align=center;verticalAlign=middle;resizable=0;points=[];fontColor=#82B366;" vertex="1" connectable="0" parent="s_7uNWrEDpn2mi_4LuEL-96">
          <mxGeometry x="-0.1404" relative="1" as="geometry">
            <mxPoint x="-7" y="6" as="offset" />
          </mxGeometry>
        </mxCell>
        <mxCell id="s_7uNWrEDpn2mi_4LuEL-98" style="edgeStyle=orthogonalEdgeStyle;rounded=0;orthogonalLoop=1;jettySize=auto;html=1;entryX=0.012;entryY=0.525;entryDx=0;entryDy=0;entryPerimeter=0;exitX=1;exitY=0.5;exitDx=0;exitDy=0;strokeColor=#82B366;" edge="1" parent="1" source="s_7uNWrEDpn2mi_4LuEL-120" target="s_7uNWrEDpn2mi_4LuEL-116">
          <mxGeometry relative="1" as="geometry">
            <mxPoint x="-771.401" y="358.54999999999995" as="sourcePoint" />
            <mxPoint x="-666" y="358" as="targetPoint" />
          </mxGeometry>
        </mxCell>
        <mxCell id="s_7uNWrEDpn2mi_4LuEL-99" value="launch projects" style="edgeLabel;html=1;align=center;verticalAlign=middle;resizable=0;points=[];fontColor=#82B366;" vertex="1" connectable="0" parent="s_7uNWrEDpn2mi_4LuEL-98">
          <mxGeometry x="-0.1668" relative="1" as="geometry">
            <mxPoint x="4" y="-2" as="offset" />
          </mxGeometry>
        </mxCell>
        <mxCell id="s_7uNWrEDpn2mi_4LuEL-100" style="edgeStyle=orthogonalEdgeStyle;rounded=0;orthogonalLoop=1;jettySize=auto;html=1;entryX=0.491;entryY=0.999;entryDx=0;entryDy=0;exitX=0.486;exitY=0.013;exitDx=0;exitDy=0;exitPerimeter=0;entryPerimeter=0;strokeColor=#82B366;" edge="1" parent="1" source="s_7uNWrEDpn2mi_4LuEL-114" target="s_7uNWrEDpn2mi_4LuEL-115">
          <mxGeometry relative="1" as="geometry">
            <mxPoint x="-831" y="703" as="sourcePoint" />
            <mxPoint x="-830.24" y="565.56" as="targetPoint" />
            <Array as="points">
              <mxPoint x="-822" y="564" />
            </Array>
          </mxGeometry>
        </mxCell>
        <mxCell id="s_7uNWrEDpn2mi_4LuEL-101" value="fund&lt;div&gt;pool&lt;/div&gt;" style="edgeLabel;html=1;align=center;verticalAlign=middle;resizable=0;points=[];fontColor=#82B366;" vertex="1" connectable="0" parent="s_7uNWrEDpn2mi_4LuEL-100">
          <mxGeometry x="-0.0417" y="2" relative="1" as="geometry">
            <mxPoint as="offset" />
          </mxGeometry>
        </mxCell>
        <mxCell id="s_7uNWrEDpn2mi_4LuEL-102" style="edgeStyle=orthogonalEdgeStyle;rounded=0;orthogonalLoop=1;jettySize=auto;html=1;entryX=0.468;entryY=0.985;entryDx=0;entryDy=0;entryPerimeter=0;exitX=0.534;exitY=-0.001;exitDx=0;exitDy=0;exitPerimeter=0;fillColor=#d5e8d4;strokeColor=#82b366;" edge="1" parent="1" source="s_7uNWrEDpn2mi_4LuEL-117" target="s_7uNWrEDpn2mi_4LuEL-113">
          <mxGeometry relative="1" as="geometry">
            <mxPoint x="-607" y="703.84" as="sourcePoint" />
            <mxPoint x="-606" y="566.84" as="targetPoint" />
            <Array as="points">
              <mxPoint x="-606" y="577" />
              <mxPoint x="-606" y="577" />
            </Array>
          </mxGeometry>
        </mxCell>
        <mxCell id="s_7uNWrEDpn2mi_4LuEL-103" value="&lt;font style=&quot;color: rgb(130, 179, 102);&quot;&gt;pay transaction&lt;/font&gt;&lt;div&gt;&lt;font style=&quot;color: rgb(130, 179, 102);&quot;&gt;management &amp;amp; performance fees&lt;/font&gt;&lt;/div&gt;" style="edgeLabel;html=1;align=center;verticalAlign=middle;resizable=0;points=[];" vertex="1" connectable="0" parent="s_7uNWrEDpn2mi_4LuEL-102">
          <mxGeometry x="-0.0138" y="-1" relative="1" as="geometry">
            <mxPoint x="3" y="4" as="offset" />
          </mxGeometry>
        </mxCell>
        <mxCell id="s_7uNWrEDpn2mi_4LuEL-104" style="edgeStyle=orthogonalEdgeStyle;rounded=0;orthogonalLoop=1;jettySize=auto;html=1;exitX=0.459;exitY=1.007;exitDx=0;exitDy=0;exitPerimeter=0;entryX=0.471;entryY=-0.008;entryDx=0;entryDy=0;entryPerimeter=0;strokeColor=#82B366;" edge="1" parent="1" source="s_7uNWrEDpn2mi_4LuEL-116" target="s_7uNWrEDpn2mi_4LuEL-113">
          <mxGeometry relative="1" as="geometry">
            <mxPoint x="-606.4799999999998" y="381.9999999999999" as="sourcePoint" />
            <mxPoint x="-606" y="520.84" as="targetPoint" />
            <Array as="points">
              <mxPoint x="-607" y="452" />
              <mxPoint x="-605" y="452" />
            </Array>
          </mxGeometry>
        </mxCell>
        <mxCell id="s_7uNWrEDpn2mi_4LuEL-105" value="send&amp;nbsp;&lt;div&gt;allocation&lt;/div&gt;" style="edgeLabel;html=1;align=center;verticalAlign=middle;resizable=0;points=[];fontColor=#82B366;" vertex="1" connectable="0" parent="s_7uNWrEDpn2mi_4LuEL-104">
          <mxGeometry x="0.0591" relative="1" as="geometry">
            <mxPoint as="offset" />
          </mxGeometry>
        </mxCell>
        <mxCell id="s_7uNWrEDpn2mi_4LuEL-106" style="edgeStyle=orthogonalEdgeStyle;rounded=0;orthogonalLoop=1;jettySize=auto;html=1;entryX=0.495;entryY=1.003;entryDx=0;entryDy=0;entryPerimeter=0;exitX=0.458;exitY=-0.006;exitDx=0;exitDy=0;exitPerimeter=0;strokeColor=#B85450;" edge="1" parent="1" source="s_7uNWrEDpn2mi_4LuEL-115" target="s_7uNWrEDpn2mi_4LuEL-120">
          <mxGeometry relative="1" as="geometry">
            <mxPoint x="-825.266" y="529.28" as="sourcePoint" />
            <mxPoint x="-825.004" y="374.23" as="targetPoint" />
            <Array as="points">
              <mxPoint x="-825" y="529" />
            </Array>
          </mxGeometry>
        </mxCell>
        <mxCell id="s_7uNWrEDpn2mi_4LuEL-107" value="send&amp;nbsp;&lt;div&gt;rewards&lt;/div&gt;" style="edgeLabel;html=1;align=center;verticalAlign=middle;resizable=0;points=[];fontColor=#B85450;" vertex="1" connectable="0" parent="s_7uNWrEDpn2mi_4LuEL-106">
          <mxGeometry x="0.001" relative="1" as="geometry">
            <mxPoint x="1" y="4" as="offset" />
          </mxGeometry>
        </mxCell>
        <mxCell id="s_7uNWrEDpn2mi_4LuEL-108" style="edgeStyle=orthogonalEdgeStyle;rounded=0;orthogonalLoop=1;jettySize=auto;html=1;entryX=0.163;entryY=0.028;entryDx=0;entryDy=0;entryPerimeter=0;exitX=0.79;exitY=0.916;exitDx=0;exitDy=0;exitPerimeter=0;strokeColor=#82B366;" edge="1" parent="1" source="s_7uNWrEDpn2mi_4LuEL-120" target="s_7uNWrEDpn2mi_4LuEL-113">
          <mxGeometry relative="1" as="geometry">
            <mxPoint x="-785.8400000000001" y="382.448" as="sourcePoint" />
            <mxPoint x="-639.1599999999999" y="520.792" as="targetPoint" />
            <Array as="points">
              <mxPoint x="-796" y="382" />
              <mxPoint x="-796" y="382" />
              <mxPoint x="-796" y="457" />
              <mxPoint x="-636" y="457" />
            </Array>
          </mxGeometry>
        </mxCell>
        <mxCell id="s_7uNWrEDpn2mi_4LuEL-109" value="pay&amp;nbsp;&lt;div&gt;deployment&amp;nbsp;&lt;span style=&quot;background-color: light-dark(#ffffff, var(--ge-dark-color, #121212)); color: light-dark(rgb(130, 179, 102), rgb(68, 110, 44));&quot;&gt;fees&lt;/span&gt;&lt;/div&gt;" style="edgeLabel;html=1;align=center;verticalAlign=middle;resizable=0;points=[];fontColor=#82B366;" vertex="1" connectable="0" parent="s_7uNWrEDpn2mi_4LuEL-108">
          <mxGeometry x="-0.3064" relative="1" as="geometry">
            <mxPoint x="52" y="-1" as="offset" />
          </mxGeometry>
        </mxCell>
        <mxCell id="s_7uNWrEDpn2mi_4LuEL-110" value="&lt;font face=&quot;Helvetica&quot; style=&quot;text-wrap-mode: nowrap;&quot;&gt;EASYA&lt;/font&gt;&lt;div style=&quot;text-wrap-mode: nowrap;&quot;&gt;&lt;font face=&quot;Helvetica&quot;&gt;Treasury&lt;/font&gt;&lt;/div&gt;" style="html=1;dropTarget=0;whiteSpace=wrap;strokeWidth=0.5;" vertex="1" parent="1">
          <mxGeometry x="-456" y="529" width="99" height="35" as="geometry" />
        </mxCell>
        <mxCell id="s_7uNWrEDpn2mi_4LuEL-111" style="edgeStyle=orthogonalEdgeStyle;rounded=0;orthogonalLoop=1;jettySize=auto;html=1;entryX=1;entryY=0.5;entryDx=0;entryDy=0;strokeColor=#b85450;fillColor=#f8cecc;" edge="1" parent="1" source="s_7uNWrEDpn2mi_4LuEL-113" target="s_7uNWrEDpn2mi_4LuEL-115">
          <mxGeometry relative="1" as="geometry" />
        </mxCell>
        <mxCell id="s_7uNWrEDpn2mi_4LuEL-112" value="&lt;span style=&quot;&quot;&gt;fund&lt;/span&gt;&lt;div style=&quot;&quot;&gt;pool&lt;/div&gt;" style="edgeLabel;html=1;align=center;verticalAlign=middle;resizable=0;points=[];fontColor=#B85450;" vertex="1" connectable="0" parent="s_7uNWrEDpn2mi_4LuEL-111">
          <mxGeometry x="-0.0604" relative="1" as="geometry">
            <mxPoint as="offset" />
          </mxGeometry>
        </mxCell>
        <mxCell id="s_7uNWrEDpn2mi_4LuEL-113" value="&lt;font face=&quot;Helvetica&quot; style=&quot;text-wrap-mode: nowrap;&quot;&gt;EASYA&lt;/font&gt;&lt;div style=&quot;text-wrap-mode: nowrap;&quot;&gt;&lt;font face=&quot;Helvetica&quot;&gt;Protocol&lt;/font&gt;&lt;/div&gt;" style="html=1;dropTarget=0;whiteSpace=wrap;strokeWidth=0.5;" vertex="1" parent="1">
          <mxGeometry x="-652" y="529" width="99" height="35" as="geometry" />
        </mxCell>
        <mxCell id="s_7uNWrEDpn2mi_4LuEL-114" value="&lt;span style=&quot;text-wrap-mode: nowrap;&quot;&gt;&lt;font face=&quot;Helvetica&quot;&gt;L1 Protocol&lt;/font&gt;&lt;/span&gt;" style="html=1;dropTarget=0;whiteSpace=wrap;strokeWidth=0.5;" vertex="1" parent="1">
          <mxGeometry x="-870.5" y="702.5" width="99" height="35" as="geometry" />
        </mxCell>
        <mxCell id="s_7uNWrEDpn2mi_4LuEL-115" value="&lt;font face=&quot;Helvetica&quot; style=&quot;text-wrap-mode: nowrap;&quot;&gt;EASYA&lt;/font&gt;&lt;div style=&quot;text-wrap-mode: nowrap;&quot;&gt;&lt;font face=&quot;Helvetica&quot;&gt;Rewards Pool&lt;/font&gt;&lt;/div&gt;" style="html=1;dropTarget=0;whiteSpace=wrap;strokeWidth=0.5;" vertex="1" parent="1">
          <mxGeometry x="-870.5" y="529" width="99" height="35" as="geometry" />
        </mxCell>
        <mxCell id="s_7uNWrEDpn2mi_4LuEL-116" value="&lt;font style=&quot;text-wrap-mode: nowrap;&quot;&gt;EASYA&lt;/font&gt;&lt;div style=&quot;text-wrap-mode: nowrap;&quot;&gt;Launchpad&lt;/div&gt;" style="html=1;dropTarget=0;whiteSpace=wrap;strokeWidth=0.5;" vertex="1" parent="1">
          <mxGeometry x="-652" y="340" width="99" height="35" as="geometry" />
        </mxCell>
        <mxCell id="s_7uNWrEDpn2mi_4LuEL-117" value="&lt;font face=&quot;Helvetica&quot; style=&quot;text-wrap-mode: nowrap;&quot;&gt;EASYA&lt;/font&gt;&lt;div style=&quot;text-wrap-mode: nowrap;&quot;&gt;&lt;font face=&quot;Helvetica&quot;&gt;Users&lt;/font&gt;&lt;/div&gt;" style="ellipse;whiteSpace=wrap;html=1;strokeWidth=0.5;" vertex="1" parent="1">
          <mxGeometry x="-659" y="702.5" width="99" height="35" as="geometry" />
        </mxCell>
        <mxCell id="s_7uNWrEDpn2mi_4LuEL-118" value="&lt;font face=&quot;Helvetica&quot; style=&quot;text-wrap-mode: nowrap;&quot;&gt;EASYA&lt;/font&gt;&lt;div style=&quot;text-wrap-mode: nowrap;&quot;&gt;&lt;font face=&quot;Helvetica&quot;&gt;Learner&lt;/font&gt;&lt;/div&gt;" style="ellipse;whiteSpace=wrap;html=1;strokeWidth=0.5;" vertex="1" parent="1">
          <mxGeometry x="-1062" y="529" width="99" height="35" as="geometry" />
        </mxCell>
        <mxCell id="s_7uNWrEDpn2mi_4LuEL-119" value="&lt;font face=&quot;Helvetica&quot; style=&quot;text-wrap-mode: nowrap;&quot;&gt;EASYA&lt;/font&gt;&lt;div style=&quot;text-wrap-mode: nowrap;&quot;&gt;&lt;font face=&quot;Helvetica&quot;&gt;Investors&lt;/font&gt;&lt;/div&gt;" style="ellipse;whiteSpace=wrap;html=1;strokeWidth=0.5;" vertex="1" parent="1">
          <mxGeometry x="-453" y="340" width="99" height="35" as="geometry" />
        </mxCell>
        <mxCell id="s_7uNWrEDpn2mi_4LuEL-120" value="&lt;font face=&quot;Helvetica&quot; style=&quot;text-wrap-mode: nowrap;&quot;&gt;EASYA&lt;/font&gt;&lt;div style=&quot;text-wrap-mode: nowrap;&quot;&gt;&lt;font face=&quot;Helvetica&quot;&gt;Developers&lt;/font&gt;&lt;/div&gt;" style="ellipse;whiteSpace=wrap;html=1;strokeWidth=0.5;" vertex="1" parent="1">
          <mxGeometry x="-874" y="340" width="99" height="35" as="geometry" />
        </mxCell>
        <mxCell id="s_7uNWrEDpn2mi_4LuEL-121" style="edgeStyle=orthogonalEdgeStyle;rounded=0;orthogonalLoop=1;jettySize=auto;html=1;entryX=0.803;entryY=0.018;entryDx=0;entryDy=0;entryPerimeter=0;strokeColor=#82B366;" edge="1" parent="1" source="s_7uNWrEDpn2mi_4LuEL-119" target="s_7uNWrEDpn2mi_4LuEL-113">
          <mxGeometry relative="1" as="geometry">
            <Array as="points">
              <mxPoint x="-404" y="459" />
              <mxPoint x="-572" y="459" />
            </Array>
          </mxGeometry>
        </mxCell>
        <mxCell id="s_7uNWrEDpn2mi_4LuEL-122" value="&lt;span style=&quot;color: rgb(130, 179, 102);&quot;&gt;pay&amp;nbsp;&lt;/span&gt;&lt;div style=&quot;color: rgb(130, 179, 102);&quot;&gt;performance&amp;nbsp;&lt;span style=&quot;background-color: light-dark(#ffffff, var(--ge-dark-color, #121212)); color: light-dark(rgb(130, 179, 102), rgb(68, 110, 44));&quot;&gt;fees&lt;/span&gt;&lt;/div&gt;" style="edgeLabel;html=1;align=center;verticalAlign=middle;resizable=0;points=[];" vertex="1" connectable="0" parent="s_7uNWrEDpn2mi_4LuEL-121">
          <mxGeometry x="-0.0713" y="1" relative="1" as="geometry">
            <mxPoint x="-11" y="-3" as="offset" />
          </mxGeometry>
        </mxCell>
        <mxCell id="s_7uNWrEDpn2mi_4LuEL-123" value="" style="shape=corner;whiteSpace=wrap;html=1;rotation=90;dx=415;dy=184;fillColor=#d5e8d4;dashed=1;strokeWidth=1;strokeColor=#82b366;" vertex="1" parent="1">
          <mxGeometry x="-450.4799999999999" y="627.0900000000001" width="13.79" height="18.13" as="geometry" />
        </mxCell>
        <mxCell id="s_7uNWrEDpn2mi_4LuEL-124" value="" style="shape=corner;whiteSpace=wrap;html=1;rotation=90;dx=415;dy=184;fillColor=#F8CECC;dashed=1;strokeWidth=1;strokeColor=#B85450;" vertex="1" parent="1">
          <mxGeometry x="-450.4799999999999" y="654.52" width="13.79" height="18.13" as="geometry" />
        </mxCell>
        <mxCell id="s_7uNWrEDpn2mi_4LuEL-125" value="&lt;font style=&quot;font-size: 10px;&quot;&gt;&lt;b&gt;Components&lt;/b&gt;&lt;/font&gt;" style="text;html=1;align=center;verticalAlign=middle;whiteSpace=wrap;rounded=0;strokeColor=#039905;fontSize=10;" vertex="1" parent="1">
          <mxGeometry x="-420.89551646482994" y="625.5321231749735" width="47.81372796838019" height="21.244246349946895" as="geometry" />
        </mxCell>
        <mxCell id="s_7uNWrEDpn2mi_4LuEL-126" value="&lt;font style=&quot;font-size: 10px;&quot;&gt;&lt;b&gt;Entities&lt;/b&gt;&lt;/font&gt;" style="text;html=1;align=center;verticalAlign=middle;whiteSpace=wrap;rounded=0;strokeColor=#8C0C00;fontSize=10;" vertex="1" parent="1">
          <mxGeometry x="-420.8908817243838" y="652.9621231749736" width="47.81372796838019" height="21.244246349946895" as="geometry" />
        </mxCell>
        <mxCell id="s_7uNWrEDpn2mi_4LuEL-127" style="edgeStyle=orthogonalEdgeStyle;rounded=0;orthogonalLoop=1;jettySize=auto;html=1;entryX=0.699;entryY=-0.003;entryDx=0;entryDy=0;entryPerimeter=0;strokeColor=#0066CC;strokeWidth=1.5;" edge="1" parent="1">
          <mxGeometry relative="1" as="geometry">
            <mxPoint x="-438.4999999999999" y="692.56" as="sourcePoint" />
            <mxPoint x="-452.9999999999999" y="682.4099999999999" as="targetPoint" />
            <Array as="points">
              <mxPoint x="-438.4" y="702.56" />
              <mxPoint x="-438.4" y="682.56" />
            </Array>
          </mxGeometry>
        </mxCell>
        <mxCell id="s_7uNWrEDpn2mi_4LuEL-128" value="&lt;font color=&quot;#0066cc&quot;&gt;User&lt;/font&gt;&lt;div&gt;&lt;font color=&quot;#0066cc&quot;&gt;Actions&lt;/font&gt;&lt;/div&gt;" style="text;html=1;align=left;verticalAlign=middle;whiteSpace=wrap;rounded=0;strokeColor=none;fontSize=10;container=0;fontStyle=1" vertex="1" parent="1">
          <mxGeometry x="-420.9" y="675.49" width="46.9" height="24.64" as="geometry" />
        </mxCell>
        <mxCell id="s_7uNWrEDpn2mi_4LuEL-129" style="edgeStyle=orthogonalEdgeStyle;rounded=0;orthogonalLoop=1;jettySize=auto;html=1;entryX=0.699;entryY=-0.003;entryDx=0;entryDy=0;entryPerimeter=0;strokeColor=#C28A55;strokeWidth=1.5;" edge="1" parent="1">
          <mxGeometry relative="1" as="geometry">
            <mxPoint x="-439.4999999999999" y="717.74" as="sourcePoint" />
            <mxPoint x="-453.9999999999999" y="707.5899999999997" as="targetPoint" />
            <Array as="points">
              <mxPoint x="-439.4" y="727.7399999999999" />
              <mxPoint x="-439.4" y="707.7399999999998" />
            </Array>
          </mxGeometry>
        </mxCell>
        <mxCell id="s_7uNWrEDpn2mi_4LuEL-130" value="&lt;font color=&quot;#c28a55&quot; style=&quot;font-size: 10px;&quot;&gt;&lt;b&gt;System&lt;/b&gt;&lt;/font&gt;&lt;div&gt;&lt;font color=&quot;#c28a55&quot; style=&quot;font-size: 10px;&quot;&gt;&lt;b&gt;Actions&lt;/b&gt;&lt;/font&gt;&lt;/div&gt;" style="text;html=1;align=left;verticalAlign=middle;whiteSpace=wrap;rounded=0;strokeColor=none;fontSize=10;container=0;fontColor=#FFB570;" vertex="1" parent="1">
          <mxGeometry x="-423" y="703" width="45" height="24.64" as="geometry" />
        </mxCell>
      </root>
    </mxGraphModel>
  </diagram>
</mxfile>
